SplineFontDB: 3.2
FontName: DucklonMusk
FullName: DucklonMusk
FamilyName: DucklonMusk
Weight: Regular
Copyright: Copyright (c) 2024, PsychoDuck Tech\nBy toxyz :P and GabiBrawl :3 
UComments: "2024-10-31: Created with FontForge (http://fontforge.org)"
Version: 003.500
ItalicAngle: 0
UnderlinePosition: -102
UnderlineWidth: 51
Ascent: 819
Descent: 205
InvalidEm: 0
LayerCount: 2
Layer: 0 0 "Back" 1
Layer: 1 0 "Fore" 0
XUID: [1021 791 363391415 11149]
StyleMap: 0x0000
FSType: 0
OS2Version: 0
OS2_WeightWidthSlopeOnly: 0
OS2_UseTypoMetrics: 1
CreationTime: 1730388839
ModificationTime: 1731502013
PfmFamily: 81
TTFWeight: 400
TTFWidth: 5
LineGap: 92
VLineGap: 0
OS2TypoAscent: 0
OS2TypoAOffset: 1
OS2TypoDescent: 0
OS2TypoDOffset: 1
OS2TypoLinegap: 92
OS2WinAscent: 0
OS2WinAOffset: 1
OS2WinDescent: 0
OS2WinDOffset: 1
HheadAscent: 0
HheadAOffset: 1
HheadDescent: 0
HheadDOffset: 1
OS2Vendor: 'PfEd'
MarkAttachClasses: 1
DEI: 91125
LangName: 1033
Encoding: Custom
UnicodeInterp: none
NameList: AGL For New Fonts
DisplaySize: -48
AntiAlias: 1
FitToEm: 0
WinInfo: 0 28 9
BeginPrivate: 0
EndPrivate
Grid
-1024 472 m 0
 2048 472 l 1024
-1024 -168 m 0
 2048 -168 l 1024
EndSplineSet
BeginChars: 256 150

StartChar: A
Encoding: 65 65 0
Width: 746
Flags: HW
LayerCount: 2
Fore
SplineSet
140 614 m 6
 605 614 l 6
 631 614 652 593 652 567 c 6
 652 539 l 6
 652 513 631 493 605 493 c 6
 140 493 l 6
 114 493 94 513 94 539 c 6
 94 567 l 6
 94 593 114 614 140 614 c 6
140 474 m 6
 233 474 l 6
 259 474 280 454 280 428 c 6
 280 400 l 6
 280 374 259 353 233 353 c 6
 140 353 l 6
 114 353 94 374 94 400 c 6
 94 428 l 6
 94 454 114 474 140 474 c 6
512 474 m 6
 605 474 l 6
 631 474 652 454 652 428 c 6
 652 400 l 6
 652 374 631 353 605 353 c 6
 512 353 l 6
 486 353 466 374 466 400 c 6
 466 428 l 6
 466 454 486 474 512 474 c 6
140 335 m 6
 233 335 l 6
 259 335 280 314 280 288 c 6
 280 260 l 6
 280 234 259 214 233 214 c 6
 140 214 l 6
 114 214 94 234 94 260 c 6
 94 288 l 6
 94 314 114 335 140 335 c 6
512 335 m 6
 605 335 l 6
 631 335 652 314 652 288 c 6
 652 260 l 6
 652 234 631 214 605 214 c 6
 512 214 l 6
 486 214 466 234 466 260 c 6
 466 288 l 6
 466 314 486 335 512 335 c 6
140 195 m 6
 605 195 l 6
 631 195 652 175 652 149 c 6
 652 121 l 6
 652 95 631 74 605 74 c 6
 140 74 l 6
 114 74 94 95 94 121 c 6
 94 149 l 6
 94 175 114 195 140 195 c 6
140 56 m 6
 233 56 l 6
 259 56 280 35 280 9 c 6
 280 -19 l 6
 280 -45 259 -65 233 -65 c 6
 140 -65 l 6
 114 -65 94 -45 94 -19 c 6
 94 9 l 6
 94 35 114 56 140 56 c 6
512 56 m 6
 605 56 l 6
 631 56 652 35 652 9 c 6
 652 -19 l 6
 652 -45 631 -65 605 -65 c 6
 512 -65 l 6
 486 -65 466 -45 466 -19 c 6
 466 9 l 6
 466 35 486 56 512 56 c 6
140 -84 m 6
 233 -84 l 6
 259 -84 280 -104 280 -130 c 6
 280 -158 l 6
 280 -184 259 -205 233 -205 c 6
 140 -205 l 6
 114 -205 94 -184 94 -158 c 6
 94 -130 l 6
 94 -104 114 -84 140 -84 c 6
512 -84 m 6
 605 -84 l 6
 631 -84 652 -104 652 -130 c 6
 652 -158 l 6
 652 -184 631 -205 605 -205 c 6
 512 -205 l 6
 486 -205 466 -184 466 -158 c 6
 466 -130 l 6
 466 -104 486 -84 512 -84 c 6
EndSplineSet
Validated: 1
EndChar

StartChar: B
Encoding: 66 66 1
Width: 748
Flags: HW
LayerCount: 2
Fore
SplineSet
142 614 m 2
 514 614 l 2
 540 614 560 593 560 567 c 2
 560 539 l 2
 560 513 540 493 514 493 c 2
 142 493 l 2
 116 493 95 513 95 539 c 2
 95 567 l 2
 95 593 116 614 142 614 c 2
142 474 m 2
 235 474 l 2
 261 474 281 454 281 428 c 2
 281 400 l 2
 281 374 261 353 235 353 c 2
 142 353 l 2
 116 353 95 374 95 400 c 2
 95 428 l 2
 95 454 116 474 142 474 c 2
514 474 m 2
 607 474 l 2
 633 474 653 454 653 428 c 2
 653 400 l 2
 653 374 633 353 607 353 c 2
 514 353 l 2
 488 353 467 374 467 400 c 2
 467 428 l 2
 467 454 488 474 514 474 c 2
142 335 m 2
 514 335 l 2
 540 335 560 314 560 288 c 2
 560 260 l 2
 560 234 540 214 514 214 c 2
 142 214 l 2
 116 214 95 234 95 260 c 2
 95 288 l 2
 95 314 116 335 142 335 c 2
142 195 m 2
 235 195 l 2
 261 195 281 175 281 149 c 2
 281 121 l 2
 281 95 261 74 235 74 c 2
 142 74 l 2
 116 74 95 95 95 121 c 2
 95 149 l 2
 95 175 116 195 142 195 c 2
514 195 m 2
 607 195 l 2
 633 195 653 175 653 149 c 2
 653 121 l 2
 653 95 633 74 607 74 c 2
 514 74 l 2
 488 74 467 95 467 121 c 2
 467 149 l 2
 467 175 488 195 514 195 c 2
142 56 m 2
 235 56 l 2
 261 56 281 35 281 9 c 2
 281 -19 l 2
 281 -45 261 -65 235 -65 c 2
 142 -65 l 2
 116 -65 95 -45 95 -19 c 2
 95 9 l 2
 95 35 116 56 142 56 c 2
514 56 m 2
 607 56 l 2
 633 56 653 35 653 9 c 2
 653 -19 l 2
 653 -45 633 -65 607 -65 c 2
 514 -65 l 2
 488 -65 467 -45 467 -19 c 2
 467 9 l 2
 467 35 488 56 514 56 c 2
142 -84 m 2
 514 -84 l 2
 540 -84 560 -104 560 -130 c 2
 560 -158 l 2
 560 -184 540 -205 514 -205 c 2
 142 -205 l 2
 116 -205 95 -184 95 -158 c 2
 95 -130 l 2
 95 -104 116 -84 142 -84 c 2
EndSplineSet
Validated: 1
EndChar

StartChar: C
Encoding: 67 67 2
Width: 748
Flags: HW
LayerCount: 2
Fore
SplineSet
142 614 m 2
 607 614 l 2
 633 614 653 593 653 567 c 2
 653 539 l 2
 653 513 633 493 607 493 c 2
 142 493 l 2
 116 493 95 513 95 539 c 2
 95 567 l 2
 95 593 116 614 142 614 c 2
142 474 m 2
 235 474 l 2
 261 474 281 454 281 428 c 2
 281 400 l 2
 281 374 261 353 235 353 c 2
 142 353 l 2
 116 353 95 374 95 400 c 2
 95 428 l 2
 95 454 116 474 142 474 c 2
142 335 m 2
 235 335 l 2
 261 335 281 314 281 288 c 2
 281 260 l 2
 281 234 261 214 235 214 c 2
 142 214 l 2
 116 214 95 234 95 260 c 2
 95 288 l 2
 95 314 116 335 142 335 c 2
142 195 m 2
 235 195 l 2
 261 195 281 175 281 149 c 2
 281 121 l 2
 281 95 261 74 235 74 c 2
 142 74 l 2
 116 74 95 95 95 121 c 2
 95 149 l 2
 95 175 116 195 142 195 c 2
142 56 m 2
 235 56 l 2
 261 56 281 35 281 9 c 2
 281 -19 l 2
 281 -45 261 -65 235 -65 c 2
 142 -65 l 2
 116 -65 95 -45 95 -19 c 2
 95 9 l 2
 95 35 116 56 142 56 c 2
142 -84 m 2
 607 -84 l 2
 633 -84 653 -104 653 -130 c 2
 653 -158 l 2
 653 -184 633 -205 607 -205 c 2
 142 -205 l 2
 116 -205 95 -184 95 -158 c 2
 95 -130 l 2
 95 -104 116 -84 142 -84 c 2
EndSplineSet
Validated: 1
EndChar

StartChar: D
Encoding: 68 68 3
Width: 748
Flags: HW
LayerCount: 2
Fore
SplineSet
142 614 m 2
 514 614 l 2
 540 614 560 593 560 567 c 2
 560 539 l 2
 560 513 540 493 514 493 c 2
 142 493 l 2
 116 493 95 513 95 539 c 2
 95 567 l 2
 95 593 116 614 142 614 c 2
142 474 m 2
 235 474 l 2
 261 474 281 454 281 428 c 2
 281 400 l 2
 281 374 261 353 235 353 c 2
 142 353 l 2
 116 353 95 374 95 400 c 2
 95 428 l 2
 95 454 116 474 142 474 c 2
514 474 m 2
 607 474 l 2
 633 474 653 454 653 428 c 2
 653 400 l 2
 653 374 633 353 607 353 c 2
 514 353 l 2
 488 353 467 374 467 400 c 2
 467 428 l 2
 467 454 488 474 514 474 c 2
142 335 m 2
 235 335 l 2
 261 335 281 314 281 288 c 2
 281 260 l 2
 281 234 261 214 235 214 c 2
 142 214 l 2
 116 214 95 234 95 260 c 2
 95 288 l 2
 95 314 116 335 142 335 c 2
514 335 m 2
 607 335 l 2
 633 335 653 314 653 288 c 2
 653 260 l 2
 653 234 633 214 607 214 c 2
 514 214 l 2
 488 214 467 234 467 260 c 2
 467 288 l 2
 467 314 488 335 514 335 c 2
142 195 m 2
 235 195 l 2
 261 195 281 175 281 149 c 2
 281 121 l 2
 281 95 261 74 235 74 c 2
 142 74 l 2
 116 74 95 95 95 121 c 2
 95 149 l 2
 95 175 116 195 142 195 c 2
514 195 m 2
 607 195 l 2
 633 195 653 175 653 149 c 2
 653 121 l 2
 653 95 633 74 607 74 c 2
 514 74 l 2
 488 74 467 95 467 121 c 2
 467 149 l 2
 467 175 488 195 514 195 c 2
142 56 m 2
 235 56 l 2
 261 56 281 35 281 9 c 2
 281 -19 l 2
 281 -45 261 -65 235 -65 c 2
 142 -65 l 2
 116 -65 95 -45 95 -19 c 2
 95 9 l 2
 95 35 116 56 142 56 c 2
514 56 m 2
 607 56 l 2
 633 56 653 35 653 9 c 2
 653 -19 l 2
 653 -45 633 -65 607 -65 c 2
 514 -65 l 2
 488 -65 467 -45 467 -19 c 2
 467 9 l 2
 467 35 488 56 514 56 c 2
142 -84 m 2
 514 -84 l 2
 540 -84 560 -104 560 -130 c 2
 560 -158 l 2
 560 -184 540 -205 514 -205 c 2
 142 -205 l 2
 116 -205 95 -184 95 -158 c 2
 95 -130 l 2
 95 -104 116 -84 142 -84 c 2
EndSplineSet
Validated: 1
EndChar

StartChar: E
Encoding: 69 69 4
Width: 748
Flags: HW
LayerCount: 2
Fore
SplineSet
142 614 m 2
 607 614 l 2
 633 614 653 593 653 567 c 2
 653 539 l 2
 653 513 633 493 607 493 c 2
 142 493 l 2
 116 493 95 513 95 539 c 2
 95 567 l 2
 95 593 116 614 142 614 c 2
142 474 m 2
 235 474 l 2
 261 474 281 454 281 428 c 2
 281 400 l 2
 281 374 261 353 235 353 c 2
 142 353 l 2
 116 353 95 374 95 400 c 2
 95 428 l 2
 95 454 116 474 142 474 c 2
142 335 m 2
 402 335 l 2
 428 335 449 314 449 288 c 2
 449 260 l 2
 449 234 428 214 402 214 c 2
 142 214 l 2
 116 214 95 234 95 260 c 2
 95 288 l 2
 95 314 116 335 142 335 c 2
142 195 m 2
 235 195 l 2
 261 195 281 175 281 149 c 2
 281 121 l 2
 281 95 261 74 235 74 c 2
 142 74 l 2
 116 74 95 95 95 121 c 2
 95 149 l 2
 95 175 116 195 142 195 c 2
142 56 m 2
 235 56 l 2
 261 56 281 35 281 9 c 2
 281 -19 l 2
 281 -45 261 -65 235 -65 c 2
 142 -65 l 2
 116 -65 95 -45 95 -19 c 2
 95 9 l 2
 95 35 116 56 142 56 c 2
142 -84 m 2
 607 -84 l 2
 633 -84 653 -104 653 -130 c 2
 653 -158 l 2
 653 -184 633 -205 607 -205 c 2
 142 -205 l 2
 116 -205 95 -184 95 -158 c 2
 95 -130 l 2
 95 -104 116 -84 142 -84 c 2
EndSplineSet
Validated: 1
EndChar

StartChar: F
Encoding: 70 70 5
Width: 748
Flags: HW
LayerCount: 2
Fore
SplineSet
142 614 m 2
 607 614 l 2
 633 614 653 593 653 567 c 2
 653 539 l 2
 653 513 633 493 607 493 c 2
 142 493 l 2
 116 493 95 513 95 539 c 2
 95 567 l 2
 95 593 116 614 142 614 c 2
142 474 m 2
 235 474 l 2
 261 474 281 454 281 428 c 2
 281 400 l 2
 281 374 261 353 235 353 c 2
 142 353 l 2
 116 353 95 374 95 400 c 2
 95 428 l 2
 95 454 116 474 142 474 c 2
142 335 m 2
 402 335 l 2
 428 335 449 314 449 288 c 2
 449 260 l 2
 449 234 428 214 402 214 c 2
 142 214 l 2
 116 214 95 234 95 260 c 2
 95 288 l 2
 95 314 116 335 142 335 c 2
142 195 m 2
 235 195 l 2
 261 195 281 175 281 149 c 2
 281 121 l 2
 281 95 261 74 235 74 c 2
 142 74 l 2
 116 74 95 95 95 121 c 2
 95 149 l 2
 95 175 116 195 142 195 c 2
142 56 m 2
 235 56 l 2
 261 56 281 35 281 9 c 2
 281 -19 l 2
 281 -45 261 -65 235 -65 c 2
 142 -65 l 2
 116 -65 95 -45 95 -19 c 2
 95 9 l 2
 95 35 116 56 142 56 c 2
142 -84 m 2
 235 -84 l 2
 261 -84 281 -104 281 -130 c 2
 281 -158 l 2
 281 -184 261 -205 235 -205 c 2
 142 -205 l 2
 116 -205 95 -184 95 -158 c 2
 95 -130 l 2
 95 -104 116 -84 142 -84 c 2
EndSplineSet
Validated: 1
EndChar

StartChar: G
Encoding: 71 71 6
Width: 748
Flags: HW
LayerCount: 2
Fore
SplineSet
142 614 m 2
 607 614 l 2
 633 614 653 593 653 567 c 2
 653 539 l 2
 653 513 633 493 607 493 c 2
 142 493 l 2
 116 493 95 513 95 539 c 2
 95 567 l 2
 95 593 116 614 142 614 c 2
142 474 m 2
 235 474 l 2
 261 474 281 454 281 428 c 2
 281 400 l 2
 281 374 261 353 235 353 c 2
 142 353 l 2
 116 353 95 374 95 400 c 2
 95 428 l 2
 95 454 116 474 142 474 c 2
142 335 m 2
 235 335 l 2
 261 335 281 314 281 288 c 2
 281 260 l 2
 281 234 261 214 235 214 c 2
 142 214 l 2
 116 214 95 234 95 260 c 2
 95 288 l 2
 95 314 116 335 142 335 c 2
142 195 m 2
 235 195 l 2
 261 195 281 175 281 149 c 2
 281 121 l 2
 281 95 261 74 235 74 c 2
 142 74 l 2
 116 74 95 95 95 121 c 2
 95 149 l 2
 95 175 116 195 142 195 c 2
421 195 m 2
 607 195 l 2
 633 195 653 175 653 149 c 2
 653 121 l 2
 653 95 633 74 607 74 c 2
 421 74 l 2
 395 74 374 95 374 121 c 2
 374 149 l 2
 374 175 395 195 421 195 c 2
142 56 m 2
 235 56 l 2
 261 56 281 35 281 9 c 2
 281 -19 l 2
 281 -45 261 -65 235 -65 c 2
 142 -65 l 2
 116 -65 95 -45 95 -19 c 2
 95 9 l 2
 95 35 116 56 142 56 c 2
514 56 m 2
 607 56 l 2
 633 56 653 35 653 9 c 2
 653 -19 l 2
 653 -45 633 -65 607 -65 c 2
 514 -65 l 2
 488 -65 467 -45 467 -19 c 2
 467 9 l 2
 467 35 488 56 514 56 c 2
142 -84 m 2
 607 -84 l 2
 633 -84 653 -104 653 -130 c 2
 653 -158 l 2
 653 -184 633 -205 607 -205 c 2
 142 -205 l 2
 116 -205 95 -184 95 -158 c 2
 95 -130 l 2
 95 -104 116 -84 142 -84 c 2
EndSplineSet
Validated: 1
EndChar

StartChar: H
Encoding: 72 72 7
Width: 749
Flags: HW
LayerCount: 2
Fore
SplineSet
143 614 m 2
 236 614 l 2
 262 614 282 593 282 567 c 2
 282 539 l 2
 282 513 262 493 236 493 c 2
 143 493 l 2
 117 493 96 513 96 539 c 2
 96 567 l 2
 96 593 117 614 143 614 c 2
515 614 m 2
 608 614 l 2
 634 614 654 593 654 567 c 2
 654 539 l 2
 654 513 634 493 608 493 c 2
 515 493 l 2
 489 493 468 513 468 539 c 2
 468 567 l 2
 468 593 489 614 515 614 c 2
143 474 m 2
 236 474 l 2
 262 474 282 454 282 428 c 2
 282 400 l 2
 282 374 262 353 236 353 c 2
 143 353 l 2
 117 353 96 374 96 400 c 2
 96 428 l 2
 96 454 117 474 143 474 c 2
515 474 m 2
 608 474 l 2
 634 474 654 454 654 428 c 2
 654 400 l 2
 654 374 634 353 608 353 c 2
 515 353 l 2
 489 353 468 374 468 400 c 2
 468 428 l 2
 468 454 489 474 515 474 c 2
143 335 m 2
 236 335 l 2
 262 335 282 314 282 288 c 2
 282 260 l 2
 282 234 262 214 236 214 c 2
 143 214 l 2
 117 214 96 234 96 260 c 2
 96 288 l 2
 96 314 117 335 143 335 c 2
515 335 m 2
 608 335 l 2
 634 335 654 314 654 288 c 2
 654 260 l 2
 654 234 634 214 608 214 c 2
 515 214 l 2
 489 214 468 234 468 260 c 2
 468 288 l 2
 468 314 489 335 515 335 c 2
143 195 m 2
 608 195 l 2
 634 195 654 175 654 149 c 2
 654 121 l 2
 654 95 634 74 608 74 c 2
 143 74 l 2
 117 74 96 95 96 121 c 2
 96 149 l 2
 96 175 117 195 143 195 c 2
143 56 m 2
 236 56 l 2
 262 56 282 35 282 9 c 2
 282 -19 l 2
 282 -45 262 -65 236 -65 c 2
 143 -65 l 2
 117 -65 96 -45 96 -19 c 2
 96 9 l 2
 96 35 117 56 143 56 c 2
515 56 m 2
 608 56 l 2
 634 56 654 35 654 9 c 2
 654 -19 l 2
 654 -45 634 -65 608 -65 c 2
 515 -65 l 2
 489 -65 468 -45 468 -19 c 2
 468 9 l 2
 468 35 489 56 515 56 c 2
143 -84 m 2
 236 -84 l 2
 262 -84 282 -104 282 -130 c 2
 282 -158 l 2
 282 -184 262 -205 236 -205 c 2
 143 -205 l 2
 117 -205 96 -184 96 -158 c 2
 96 -130 l 2
 96 -104 117 -84 143 -84 c 2
515 -84 m 2
 608 -84 l 2
 634 -84 654 -104 654 -130 c 2
 654 -158 l 2
 654 -184 634 -205 608 -205 c 2
 515 -205 l 2
 489 -205 468 -184 468 -158 c 2
 468 -130 l 2
 468 -104 489 -84 515 -84 c 2
EndSplineSet
Validated: 1
EndChar

StartChar: I
Encoding: 73 73 8
Width: 748
Flags: HW
LayerCount: 2
Fore
SplineSet
142 614 m 2
 607 614 l 2
 633 614 653 593 653 567 c 2
 653 539 l 2
 653 513 633 493 607 493 c 2
 142 493 l 2
 116 493 95 513 95 539 c 2
 95 567 l 2
 95 593 116 614 142 614 c 2
328 474 m 2
 421 474 l 2
 447 474 467 454 467 428 c 2
 467 400 l 2
 467 374 447 353 421 353 c 2
 328 353 l 2
 302 353 281 374 281 400 c 2
 281 428 l 2
 281 454 302 474 328 474 c 2
328 335 m 2
 421 335 l 2
 447 335 467 314 467 288 c 2
 467 260 l 2
 467 234 447 214 421 214 c 2
 328 214 l 2
 302 214 281 234 281 260 c 2
 281 288 l 2
 281 314 302 335 328 335 c 2
328 195 m 2
 421 195 l 2
 447 195 467 175 467 149 c 2
 467 121 l 2
 467 95 447 74 421 74 c 2
 328 74 l 2
 302 74 281 95 281 121 c 2
 281 149 l 2
 281 175 302 195 328 195 c 2
328 56 m 2
 421 56 l 2
 447 56 467 35 467 9 c 2
 467 -19 l 2
 467 -45 447 -65 421 -65 c 2
 328 -65 l 2
 302 -65 281 -45 281 -19 c 2
 281 9 l 2
 281 35 302 56 328 56 c 2
142 -84 m 2
 607 -84 l 2
 633 -84 653 -104 653 -130 c 2
 653 -158 l 2
 653 -184 633 -205 607 -205 c 2
 142 -205 l 2
 116 -205 95 -184 95 -158 c 2
 95 -130 l 2
 95 -104 116 -84 142 -84 c 2
EndSplineSet
Validated: 1
EndChar

StartChar: J
Encoding: 74 74 9
Width: 664
Flags: HW
LayerCount: 2
Fore
SplineSet
430 614 m 2
 523 614 l 2
 549 614 570 593 570 567 c 2
 570 539 l 2
 570 513 549 493 523 493 c 2
 430 493 l 2
 404 493 384 513 384 539 c 2
 384 567 l 2
 384 593 404 614 430 614 c 2
430 474 m 2
 523 474 l 2
 549 474 570 454 570 428 c 2
 570 400 l 2
 570 374 549 353 523 353 c 2
 430 353 l 2
 404 353 384 374 384 400 c 2
 384 428 l 2
 384 454 404 474 430 474 c 2
430 335 m 2
 523 335 l 2
 549 335 570 314 570 288 c 2
 570 260 l 2
 570 234 549 214 523 214 c 2
 430 214 l 2
 404 214 384 234 384 260 c 2
 384 288 l 2
 384 314 404 335 430 335 c 2
430 195 m 2
 523 195 l 2
 549 195 570 175 570 149 c 2
 570 121 l 2
 570 95 549 74 523 74 c 2
 430 74 l 2
 404 74 384 95 384 121 c 2
 384 149 l 2
 384 175 404 195 430 195 c 2
142 56 m 2
 235 56 l 2
 261 56 281 35 281 9 c 2
 281 -19 l 2
 281 -45 261 -65 235 -65 c 2
 142 -65 l 2
 116 -65 95 -45 95 -19 c 2
 95 9 l 2
 95 35 116 56 142 56 c 2
430 56 m 2
 523 56 l 2
 549 56 570 35 570 9 c 2
 570 -19 l 2
 570 -45 549 -65 523 -65 c 2
 430 -65 l 2
 404 -65 384 -45 384 -19 c 2
 384 9 l 2
 384 35 404 56 430 56 c 2
142 -84 m 2
 523 -84 l 2
 549 -84 570 -104 570 -130 c 2
 570 -158 l 2
 570 -184 549 -205 523 -205 c 2
 142 -205 l 2
 116 -205 95 -184 95 -158 c 2
 95 -130 l 2
 95 -104 116 -84 142 -84 c 2
EndSplineSet
Validated: 1
EndChar

StartChar: K
Encoding: 75 75 10
Width: 748
Flags: HW
LayerCount: 2
Fore
SplineSet
142 614 m 2
 235 614 l 2
 261 614 281 593 281 567 c 2
 281 539 l 2
 281 513 261 493 235 493 c 2
 142 493 l 2
 116 493 95 513 95 539 c 2
 95 567 l 2
 95 593 116 614 142 614 c 2
514 614 m 2
 607 614 l 2
 633 614 653 593 653 567 c 2
 653 539 l 2
 653 513 633 493 607 493 c 2
 514 493 l 2
 488 493 467 513 467 539 c 2
 467 567 l 2
 467 593 488 614 514 614 c 2
142 474 m 2
 235 474 l 2
 261 474 281 454 281 428 c 2
 281 400 l 2
 281 374 261 353 235 353 c 2
 142 353 l 2
 116 353 95 374 95 400 c 2
 95 428 l 2
 95 454 116 474 142 474 c 2
421 474 m 2
 514 474 l 2
 540 474 560 454 560 428 c 2
 560 400 l 2
 560 374 540 353 514 353 c 2
 421 353 l 2
 395 353 374 374 374 400 c 2
 374 428 l 2
 374 454 395 474 421 474 c 2
142 335 m 2
 421 335 l 2
 447 335 467 314 467 288 c 2
 467 260 l 2
 467 234 447 214 421 214 c 2
 142 214 l 2
 116 214 95 234 95 260 c 2
 95 288 l 2
 95 314 116 335 142 335 c 2
142 195 m 2
 235 195 l 2
 261 195 281 175 281 149 c 2
 281 121 l 2
 281 95 261 74 235 74 c 2
 142 74 l 2
 116 74 95 95 95 121 c 2
 95 149 l 2
 95 175 116 195 142 195 c 2
374 195 m 2
 467 195 l 2
 493 195 514 175 514 149 c 2
 514 121 l 2
 514 95 493 74 467 74 c 2
 374 74 l 2
 348 74 328 95 328 121 c 2
 328 149 l 2
 328 175 348 195 374 195 c 2
142 56 m 2
 235 56 l 2
 261 56 281 35 281 9 c 2
 281 -19 l 2
 281 -45 261 -65 235 -65 c 2
 142 -65 l 2
 116 -65 95 -45 95 -19 c 2
 95 9 l 2
 95 35 116 56 142 56 c 2
449 56 m 2
 542 56 l 2
 568 56 588 35 588 9 c 2
 588 -19 l 2
 588 -45 568 -65 542 -65 c 2
 449 -65 l 2
 423 -65 402 -45 402 -19 c 2
 402 9 l 2
 402 35 423 56 449 56 c 2
142 -84 m 2
 235 -84 l 2
 261 -84 281 -104 281 -130 c 2
 281 -158 l 2
 281 -184 261 -205 235 -205 c 2
 142 -205 l 2
 116 -205 95 -184 95 -158 c 2
 95 -130 l 2
 95 -104 116 -84 142 -84 c 2
514 -84 m 2
 607 -84 l 2
 633 -84 653 -104 653 -130 c 2
 653 -158 l 2
 653 -184 633 -205 607 -205 c 2
 514 -205 l 2
 488 -205 467 -184 467 -158 c 2
 467 -130 l 2
 467 -104 488 -84 514 -84 c 2
EndSplineSet
Validated: 1
EndChar

StartChar: L
Encoding: 76 76 11
Width: 748
Flags: HW
LayerCount: 2
Fore
SplineSet
142 614 m 2
 235 614 l 2
 261 614 281 593 281 567 c 2
 281 539 l 2
 281 513 261 493 235 493 c 2
 142 493 l 2
 116 493 95 513 95 539 c 2
 95 567 l 2
 95 593 116 614 142 614 c 2
142 474 m 2
 235 474 l 2
 261 474 281 454 281 428 c 2
 281 400 l 2
 281 374 261 353 235 353 c 2
 142 353 l 2
 116 353 95 374 95 400 c 2
 95 428 l 2
 95 454 116 474 142 474 c 2
142 335 m 2
 235 335 l 2
 261 335 281 314 281 288 c 2
 281 260 l 2
 281 234 261 214 235 214 c 2
 142 214 l 2
 116 214 95 234 95 260 c 2
 95 288 l 2
 95 314 116 335 142 335 c 2
142 195 m 2
 235 195 l 2
 261 195 281 175 281 149 c 2
 281 121 l 2
 281 95 261 74 235 74 c 2
 142 74 l 2
 116 74 95 95 95 121 c 2
 95 149 l 2
 95 175 116 195 142 195 c 2
142 56 m 2
 235 56 l 2
 261 56 281 35 281 9 c 2
 281 -19 l 2
 281 -45 261 -65 235 -65 c 2
 142 -65 l 2
 116 -65 95 -45 95 -19 c 2
 95 9 l 2
 95 35 116 56 142 56 c 2
142 -84 m 2
 607 -84 l 2
 633 -84 653 -104 653 -130 c 2
 653 -158 l 2
 653 -184 633 -205 607 -205 c 2
 142 -205 l 2
 116 -205 95 -184 95 -158 c 2
 95 -130 l 2
 95 -104 116 -84 142 -84 c 2
EndSplineSet
Validated: 1
EndChar

StartChar: M
Encoding: 77 77 12
Width: 814
Flags: HW
LayerCount: 2
Fore
SplineSet
142 614 m 2
 235 614 l 2
 261 614 281 593 281 567 c 2
 281 539 l 2
 281 513 261 493 235 493 c 2
 142 493 l 2
 116 493 95 513 95 539 c 2
 95 567 l 2
 95 593 116 614 142 614 c 2
579 614 m 2
 672 614 l 2
 698 614 718 593 718 567 c 2
 718 539 l 2
 718 513 698 493 672 493 c 2
 579 493 l 2
 553 493 532 513 532 539 c 2
 532 567 l 2
 532 593 553 614 579 614 c 2
142 474 m 2
 328 474 l 2
 354 474 374 454 374 428 c 2
 374 400 l 2
 374 374 354 353 328 353 c 2
 142 353 l 2
 116 353 95 374 95 400 c 2
 95 428 l 2
 95 454 116 474 142 474 c 2
477 474 m 2
 672 474 l 2
 698 474 718 454 718 428 c 2
 718 400 l 2
 718 374 698 353 672 353 c 2
 477 353 l 2
 451 353 430 374 430 400 c 2
 430 428 l 2
 430 454 451 474 477 474 c 2
356 344 m 2
 449 344 l 2
 475 344 495 323 495 297 c 2
 495 269 l 2
 495 243 475 223 449 223 c 2
 356 223 l 2
 330 223 309 243 309 269 c 2
 309 297 l 2
 309 323 330 344 356 344 c 2
142 335 m 2
 235 335 l 2
 261 335 281 314 281 288 c 2
 281 260 l 2
 281 234 261 214 235 214 c 2
 142 214 l 2
 116 214 95 234 95 260 c 2
 95 288 l 2
 95 314 116 335 142 335 c 2
579 335 m 2
 672 335 l 2
 698 335 718 314 718 288 c 2
 718 260 l 2
 718 234 698 214 672 214 c 2
 579 214 l 2
 553 214 532 234 532 260 c 2
 532 288 l 2
 532 314 553 335 579 335 c 2
142 195 m 2
 235 195 l 2
 261 195 281 175 281 149 c 2
 281 121 l 2
 281 95 261 74 235 74 c 2
 142 74 l 2
 116 74 95 95 95 121 c 2
 95 149 l 2
 95 175 116 195 142 195 c 2
579 195 m 2
 672 195 l 2
 698 195 718 175 718 149 c 2
 718 121 l 2
 718 95 698 74 672 74 c 2
 579 74 l 2
 553 74 532 95 532 121 c 2
 532 149 l 2
 532 175 553 195 579 195 c 2
142 56 m 2
 235 56 l 2
 261 56 281 35 281 9 c 2
 281 -19 l 2
 281 -45 261 -65 235 -65 c 2
 142 -65 l 2
 116 -65 95 -45 95 -19 c 2
 95 9 l 2
 95 35 116 56 142 56 c 2
579 56 m 2
 672 56 l 2
 698 56 718 35 718 9 c 2
 718 -19 l 2
 718 -45 698 -65 672 -65 c 2
 579 -65 l 2
 553 -65 532 -45 532 -19 c 2
 532 9 l 2
 532 35 553 56 579 56 c 2
142 -84 m 2
 235 -84 l 2
 261 -84 281 -104 281 -130 c 2
 281 -158 l 2
 281 -184 261 -205 235 -205 c 2
 142 -205 l 2
 116 -205 95 -184 95 -158 c 2
 95 -130 l 2
 95 -104 116 -84 142 -84 c 2
579 -84 m 2
 672 -84 l 2
 698 -84 718 -104 718 -130 c 2
 718 -158 l 2
 718 -184 698 -205 672 -205 c 2
 579 -205 l 2
 553 -205 532 -184 532 -158 c 2
 532 -130 l 2
 532 -104 553 -84 579 -84 c 2
EndSplineSet
Validated: 1
EndChar

StartChar: N
Encoding: 78 78 13
Width: 749
Flags: HW
LayerCount: 2
Fore
SplineSet
142 614 m 2
 235 614 l 2
 261 614 281 593 281 567 c 2
 281 539 l 2
 281 513 261 493 235 493 c 2
 142 493 l 2
 116 493 95 513 95 539 c 2
 95 567 l 2
 95 593 116 614 142 614 c 2
514 614 m 2
 607 614 l 2
 633 614 653 593 653 567 c 2
 653 539 l 2
 653 513 633 493 607 493 c 2
 514 493 l 2
 488 493 467 513 467 539 c 2
 467 567 l 2
 467 593 488 614 514 614 c 2
142 474 m 2
 309 474 l 2
 335 474 356 454 356 428 c 2
 356 400 l 2
 356 374 335 353 309 353 c 2
 142 353 l 2
 116 353 95 374 95 400 c 2
 95 428 l 2
 95 454 116 474 142 474 c 2
514 474 m 2
 607 474 l 2
 633 474 653 454 653 428 c 2
 653 400 l 2
 653 374 633 353 607 353 c 2
 514 353 l 2
 488 353 467 374 467 400 c 2
 467 428 l 2
 467 454 488 474 514 474 c 2
142 335 m 2
 235 335 l 1
 365 335 l 2
 391 335 411 314 411 288 c 2
 411 260 l 2
 411 234 391 214 365 214 c 2
 235 214 l 1
 142 214 l 2
 116 214 95 234 95 260 c 2
 95 288 l 2
 95 314 116 335 142 335 c 2
514 335 m 2
 607 335 l 2
 633 335 653 314 653 288 c 2
 653 260 l 2
 653 234 633 214 607 214 c 2
 514 214 l 2
 488 214 467 234 467 260 c 2
 467 288 l 2
 467 314 488 335 514 335 c 2
142 195 m 2
 235 195 l 2
 261 195 281 175 281 149 c 2
 281 121 l 2
 281 95 261 74 235 74 c 2
 142 74 l 2
 116 74 95 95 95 121 c 2
 95 149 l 2
 95 175 116 195 142 195 c 2
384 195 m 2
 607 195 l 2
 633 195 653 175 653 149 c 2
 653 121 l 2
 653 95 633 74 607 74 c 2
 384 74 l 2
 358 74 337 95 337 121 c 2
 337 149 l 2
 337 175 358 195 384 195 c 2
142 56 m 2
 235 56 l 2
 261 56 281 35 281 9 c 2
 281 -19 l 2
 281 -45 261 -65 235 -65 c 2
 142 -65 l 2
 116 -65 95 -45 95 -19 c 2
 95 9 l 2
 95 35 116 56 142 56 c 2
439 56 m 2
 607 56 l 2
 633 56 653 35 653 9 c 2
 653 -19 l 2
 653 -45 633 -65 607 -65 c 2
 439 -65 l 2
 413 -65 393 -45 393 -19 c 2
 393 9 l 2
 393 35 413 56 439 56 c 2
142 -84 m 2
 235 -84 l 2
 261 -84 281 -104 281 -130 c 2
 281 -158 l 2
 281 -184 261 -205 235 -205 c 2
 142 -205 l 2
 116 -205 95 -184 95 -158 c 2
 95 -130 l 2
 95 -104 116 -84 142 -84 c 2
514 -84 m 2
 607 -84 l 2
 633 -84 653 -104 653 -130 c 2
 653 -158 l 2
 653 -184 633 -205 607 -205 c 2
 514 -205 l 2
 488 -205 467 -184 467 -158 c 2
 467 -130 l 2
 467 -104 488 -84 514 -84 c 2
EndSplineSet
Validated: 1
EndChar

StartChar: O
Encoding: 79 79 14
Width: 748
Flags: HW
LayerCount: 2
Fore
SplineSet
142 614 m 2
 607 614 l 2
 633 614 653 593 653 567 c 2
 653 539 l 2
 653 513 633 493 607 493 c 2
 142 493 l 2
 116 493 95 513 95 539 c 2
 95 567 l 2
 95 593 116 614 142 614 c 2
142 474 m 2
 235 474 l 2
 261 474 281 454 281 428 c 2
 281 400 l 2
 281 374 261 353 235 353 c 2
 142 353 l 2
 116 353 95 374 95 400 c 2
 95 428 l 2
 95 454 116 474 142 474 c 2
514 474 m 2
 607 474 l 2
 633 474 653 454 653 428 c 2
 653 400 l 2
 653 374 633 353 607 353 c 2
 514 353 l 2
 488 353 467 374 467 400 c 2
 467 428 l 2
 467 454 488 474 514 474 c 2
142 335 m 2
 235 335 l 2
 261 335 281 314 281 288 c 2
 281 260 l 2
 281 234 261 214 235 214 c 2
 142 214 l 2
 116 214 95 234 95 260 c 2
 95 288 l 2
 95 314 116 335 142 335 c 2
514 335 m 2
 607 335 l 2
 633 335 653 314 653 288 c 2
 653 260 l 2
 653 234 633 214 607 214 c 2
 514 214 l 2
 488 214 467 234 467 260 c 2
 467 288 l 2
 467 314 488 335 514 335 c 2
142 195 m 2
 235 195 l 2
 261 195 281 175 281 149 c 2
 281 121 l 2
 281 95 261 74 235 74 c 2
 142 74 l 2
 116 74 95 95 95 121 c 2
 95 149 l 2
 95 175 116 195 142 195 c 2
514 195 m 2
 607 195 l 2
 633 195 653 175 653 149 c 2
 653 121 l 2
 653 95 633 74 607 74 c 2
 514 74 l 2
 488 74 467 95 467 121 c 2
 467 149 l 2
 467 175 488 195 514 195 c 2
142 56 m 2
 235 56 l 2
 261 56 281 35 281 9 c 2
 281 -19 l 2
 281 -45 261 -65 235 -65 c 2
 142 -65 l 2
 116 -65 95 -45 95 -19 c 2
 95 9 l 2
 95 35 116 56 142 56 c 2
514 56 m 2
 607 56 l 2
 633 56 653 35 653 9 c 2
 653 -19 l 2
 653 -45 633 -65 607 -65 c 2
 514 -65 l 2
 488 -65 467 -45 467 -19 c 2
 467 9 l 2
 467 35 488 56 514 56 c 2
142 -84 m 2
 607 -84 l 2
 633 -84 653 -104 653 -130 c 2
 653 -158 l 2
 653 -184 633 -205 607 -205 c 2
 142 -205 l 2
 116 -205 95 -184 95 -158 c 2
 95 -130 l 2
 95 -104 116 -84 142 -84 c 2
EndSplineSet
Validated: 1
EndChar

StartChar: P
Encoding: 80 80 15
Width: 748
Flags: HW
LayerCount: 2
Fore
SplineSet
142 614 m 2
 514 614 l 2
 540 614 560 593 560 567 c 2
 560 539 l 2
 560 513 540 493 514 493 c 2
 142 493 l 2
 116 493 95 513 95 539 c 2
 95 567 l 2
 95 593 116 614 142 614 c 2
142 474 m 2
 235 474 l 2
 261 474 281 454 281 428 c 2
 281 400 l 2
 281 374 261 353 235 353 c 2
 142 353 l 2
 116 353 95 374 95 400 c 2
 95 428 l 2
 95 454 116 474 142 474 c 2
514 474 m 2
 607 474 l 2
 633 474 653 454 653 428 c 2
 653 400 l 2
 653 374 633 353 607 353 c 2
 514 353 l 2
 488 353 467 374 467 400 c 2
 467 428 l 2
 467 454 488 474 514 474 c 2
142 335 m 2
 235 335 l 2
 261 335 281 314 281 288 c 2
 281 260 l 2
 281 234 261 214 235 214 c 2
 142 214 l 2
 116 214 95 234 95 260 c 2
 95 288 l 2
 95 314 116 335 142 335 c 2
514 335 m 2
 607 335 l 2
 633 335 653 314 653 288 c 2
 653 260 l 2
 653 234 633 214 607 214 c 2
 514 214 l 2
 488 214 467 234 467 260 c 2
 467 288 l 2
 467 314 488 335 514 335 c 2
142 195 m 2
 514 195 l 2
 540 195 560 175 560 149 c 2
 560 121 l 2
 560 95 540 74 514 74 c 2
 142 74 l 2
 116 74 95 95 95 121 c 2
 95 149 l 2
 95 175 116 195 142 195 c 2
142 56 m 2
 235 56 l 2
 261 56 281 35 281 9 c 2
 281 -19 l 2
 281 -45 261 -65 235 -65 c 2
 142 -65 l 2
 116 -65 95 -45 95 -19 c 2
 95 9 l 2
 95 35 116 56 142 56 c 2
142 -84 m 2
 235 -84 l 2
 261 -84 281 -104 281 -130 c 2
 281 -158 l 2
 281 -184 261 -205 235 -205 c 2
 142 -205 l 2
 116 -205 95 -184 95 -158 c 2
 95 -130 l 2
 95 -104 116 -84 142 -84 c 2
EndSplineSet
Validated: 1
EndChar

StartChar: Q
Encoding: 81 81 16
Width: 739
Flags: HW
LayerCount: 2
Fore
SplineSet
225 614 m 2
 504 614 l 2
 530 614 550 593 550 567 c 2
 550 539 l 2
 550 513 530 493 504 493 c 2
 225 493 l 2
 199 493 178 513 178 539 c 2
 178 567 l 2
 178 593 199 614 225 614 c 2
132 474 m 2
 225 474 l 2
 251 474 271 454 271 428 c 2
 271 400 l 2
 271 374 251 353 225 353 c 2
 132 353 l 2
 106 353 85 374 85 400 c 2
 85 428 l 2
 85 454 106 474 132 474 c 2
504 474 m 2
 597 474 l 2
 623 474 643 454 643 428 c 2
 643 400 l 2
 643 374 623 353 597 353 c 2
 504 353 l 2
 478 353 457 374 457 400 c 2
 457 428 l 2
 457 454 478 474 504 474 c 2
132 335 m 2
 225 335 l 2
 251 335 271 314 271 288 c 2
 271 260 l 2
 271 234 251 214 225 214 c 2
 132 214 l 2
 106 214 85 234 85 260 c 2
 85 288 l 2
 85 314 106 335 132 335 c 2
504 335 m 2
 597 335 l 2
 623 335 643 314 643 288 c 2
 643 260 l 2
 643 234 623 214 597 214 c 2
 504 214 l 2
 478 214 457 234 457 260 c 2
 457 288 l 2
 457 314 478 335 504 335 c 2
132 195 m 2
 225 195 l 2
 251 195 271 175 271 149 c 2
 271 121 l 2
 271 95 251 74 225 74 c 2
 132 74 l 2
 106 74 85 95 85 121 c 2
 85 149 l 2
 85 175 106 195 132 195 c 2
504 195 m 2
 597 195 l 2
 623 195 643 175 643 149 c 2
 643 121 l 2
 643 95 623 74 597 74 c 2
 504 74 l 2
 478 74 457 95 457 121 c 2
 457 149 l 2
 457 175 478 195 504 195 c 2
132 56 m 2
 225 56 l 2
 251 56 271 35 271 9 c 2
 271 -19 l 2
 271 -45 251 -65 225 -65 c 2
 132 -65 l 2
 106 -65 85 -45 85 -19 c 2
 85 9 l 2
 85 35 106 56 132 56 c 2
504 56 m 2
 597 56 l 2
 623 56 643 35 643 9 c 2
 643 -19 l 2
 643 -45 623 -65 597 -65 c 2
 504 -65 l 2
 478 -65 457 -45 457 -19 c 2
 457 9 l 2
 457 35 478 56 504 56 c 2
225 -84 m 2
 504 -84 l 2
 530 -84 550 -104 550 -130 c 2
 550 -158 l 2
 550 -184 530 -205 504 -205 c 2
 225 -205 l 2
 199 -205 178 -184 178 -158 c 2
 178 -130 l 2
 178 -104 199 -84 225 -84 c 2
504 -214 m 2
 597 -214 l 2
 623 -214 643 -235 643 -261 c 2
 643 -288 l 2
 643 -314 623 -335 597 -335 c 2
 504 -335 l 2
 478 -335 457 -314 457 -288 c 2
 457 -261 l 2
 457 -235 478 -214 504 -214 c 2
EndSplineSet
Validated: 1
EndChar

StartChar: R
Encoding: 82 82 17
Width: 748
Flags: HW
LayerCount: 2
Fore
SplineSet
142 614 m 2
 514 614 l 2
 540 614 560 593 560 567 c 2
 560 539 l 2
 560 513 540 493 514 493 c 2
 142 493 l 2
 116 493 95 513 95 539 c 2
 95 567 l 2
 95 593 116 614 142 614 c 2
142 474 m 2
 235 474 l 2
 261 474 281 454 281 428 c 2
 281 400 l 2
 281 374 261 353 235 353 c 2
 142 353 l 2
 116 353 95 374 95 400 c 2
 95 428 l 2
 95 454 116 474 142 474 c 2
514 474 m 2
 607 474 l 2
 633 474 653 454 653 428 c 2
 653 400 l 2
 653 374 633 353 607 353 c 2
 514 353 l 2
 488 353 467 374 467 400 c 2
 467 428 l 2
 467 454 488 474 514 474 c 2
142 335 m 2
 235 335 l 2
 261 335 281 314 281 288 c 2
 281 260 l 2
 281 234 261 214 235 214 c 2
 142 214 l 2
 116 214 95 234 95 260 c 2
 95 288 l 2
 95 314 116 335 142 335 c 2
514 335 m 2
 607 335 l 2
 633 335 653 314 653 288 c 2
 653 260 l 2
 653 234 633 214 607 214 c 2
 514 214 l 2
 488 214 467 234 467 260 c 2
 467 288 l 2
 467 314 488 335 514 335 c 2
142 195 m 2
 514 195 l 2
 540 195 560 175 560 149 c 2
 560 121 l 2
 560 95 540 74 514 74 c 2
 142 74 l 2
 116 74 95 95 95 121 c 2
 95 149 l 2
 95 175 116 195 142 195 c 2
142 56 m 2
 235 56 l 2
 261 56 281 35 281 9 c 2
 281 -19 l 2
 281 -45 261 -65 235 -65 c 2
 142 -65 l 2
 116 -65 95 -45 95 -19 c 2
 95 9 l 2
 95 35 116 56 142 56 c 2
421 56 m 2
 514 56 l 2
 540 56 560 35 560 9 c 2
 560 -19 l 2
 560 -45 540 -65 514 -65 c 2
 421 -65 l 2
 395 -65 374 -45 374 -19 c 2
 374 9 l 2
 374 35 395 56 421 56 c 2
142 -84 m 2
 235 -84 l 2
 261 -84 281 -104 281 -130 c 2
 281 -158 l 2
 281 -184 261 -205 235 -205 c 2
 142 -205 l 2
 116 -205 95 -184 95 -158 c 2
 95 -130 l 2
 95 -104 116 -84 142 -84 c 2
514 -84 m 2
 607 -84 l 2
 633 -84 653 -104 653 -130 c 2
 653 -158 l 2
 653 -184 633 -205 607 -205 c 2
 514 -205 l 2
 488 -205 467 -184 467 -158 c 2
 467 -130 l 2
 467 -104 488 -84 514 -84 c 2
EndSplineSet
Validated: 1
EndChar

StartChar: S
Encoding: 83 83 18
Width: 796
Flags: HW
LayerCount: 2
Fore
SplineSet
264.124023438 594 m 2
 536.374023438 594 l 2
 561.510742188 594 581.748046875 573.76171875 581.748046875 548.625 c 2
 581.748046875 521.399414062 l 2
 581.748046875 496.262695312 561.510742188 476.024414062 536.374023438 476.024414062 c 2
 264.124023438 476.024414062 l 2
 238.986328125 476.024414062 218.749023438 496.262695312 218.749023438 521.399414062 c 2
 218.749023438 548.625 l 2
 218.749023438 573.76171875 238.986328125 594 264.124023438 594 c 2
173.374023438 457.875 m 2
 264.124023438 457.875 l 2
 289.260742188 457.875 309.499023438 437.637695312 309.499023438 412.5 c 2
 309.499023438 385.275390625 l 2
 309.499023438 360.137695312 289.260742188 339.901367188 264.124023438 339.901367188 c 2
 173.374023438 339.901367188 l 2
 148.237304688 339.901367188 128 360.137695312 128 385.275390625 c 2
 128 412.5 l 2
 128 437.637695312 148.237304688 457.875 173.374023438 457.875 c 2
536.374023438 457.875 m 2
 627.123046875 457.875 l 2
 652.260742188 457.875 672.498046875 437.637695312 672.498046875 412.5 c 2
 672.498046875 385.275390625 l 2
 672.498046875 360.137695312 652.260742188 339.901367188 627.123046875 339.901367188 c 2
 536.374023438 339.901367188 l 2
 511.236328125 339.901367188 490.999023438 360.137695312 490.999023438 385.275390625 c 2
 490.999023438 412.5 l 2
 490.999023438 437.637695312 511.236328125 457.875 536.374023438 457.875 c 2
159.76171875 330.825195312 m 2
 196.061523438 330.825195312 l 2
 213.659179688 330.825195312 227.825195312 316.659179688 227.825195312 299.063476562 c 2
 227.825195312 244.614257812 l 2
 227.825195312 227.017578125 213.659179688 212.8515625 196.061523438 212.8515625 c 2
 159.76171875 212.8515625 l 2
 142.166015625 212.8515625 128 227.017578125 128 244.614257812 c 2
 128 299.063476562 l 2
 128 316.659179688 142.166015625 330.825195312 159.76171875 330.825195312 c 2
291.348632812 258.2265625 m 2
 509.149414062 258.2265625 l 2
 534.286132812 258.2265625 554.5234375 237.98828125 554.5234375 212.8515625 c 2
 554.5234375 185.625976562 l 2
 554.5234375 160.489257812 534.286132812 140.250976562 509.149414062 140.250976562 c 2
 291.348632812 140.250976562 l 2
 266.2109375 140.250976562 245.973632812 160.489257812 245.973632812 185.625976562 c 2
 245.973632812 212.8515625 l 2
 245.973632812 237.98828125 266.2109375 258.2265625 291.348632812 258.2265625 c 2
604.435546875 185.625976562 m 2
 640.736328125 185.625976562 l 2
 658.33203125 185.625976562 672.498046875 171.459960938 672.498046875 153.86328125 c 2
 672.498046875 99.4140625 l 2
 672.498046875 81.818359375 658.33203125 67.65234375 640.736328125 67.65234375 c 2
 604.435546875 67.65234375 l 2
 586.83984375 67.65234375 572.672851562 81.818359375 572.672851562 99.4140625 c 2
 572.672851562 153.86328125 l 2
 572.672851562 171.459960938 586.83984375 185.625976562 604.435546875 185.625976562 c 2
173.374023438 49.501953125 m 2
 264.124023438 49.501953125 l 2
 289.260742188 49.501953125 309.499023438 29.2646484375 309.499023438 4.1259765625 c 2
 309.499023438 -23.0986328125 l 2
 309.499023438 -48.2353515625 289.260742188 -68.47265625 264.124023438 -68.47265625 c 2
 173.374023438 -68.47265625 l 2
 148.237304688 -68.47265625 128 -48.2353515625 128 -23.0986328125 c 2
 128 4.1259765625 l 2
 128 29.2646484375 148.237304688 49.501953125 173.374023438 49.501953125 c 2
536.374023438 49.501953125 m 2
 627.123046875 49.501953125 l 2
 652.260742188 49.501953125 672.498046875 29.2646484375 672.498046875 4.1259765625 c 2
 672.498046875 -23.0986328125 l 2
 672.498046875 -48.2353515625 652.260742188 -68.47265625 627.123046875 -68.47265625 c 2
 536.374023438 -68.47265625 l 2
 511.236328125 -68.47265625 490.999023438 -48.2353515625 490.999023438 -23.0986328125 c 2
 490.999023438 4.1259765625 l 2
 490.999023438 29.2646484375 511.236328125 49.501953125 536.374023438 49.501953125 c 2
264.124023438 -86.623046875 m 2
 536.374023438 -86.623046875 l 2
 561.510742188 -86.623046875 581.748046875 -106.859375 581.748046875 -131.998046875 c 2
 581.748046875 -159.22265625 l 2
 581.748046875 -184.360351562 561.510742188 -204.59765625 536.374023438 -204.59765625 c 2
 264.124023438 -204.59765625 l 2
 238.986328125 -204.59765625 218.749023438 -184.360351562 218.749023438 -159.22265625 c 2
 218.749023438 -131.998046875 l 2
 218.749023438 -106.859375 238.986328125 -86.623046875 264.124023438 -86.623046875 c 2
EndSplineSet
Validated: 1
EndChar

StartChar: T
Encoding: 84 84 19
Width: 701
Flags: HW
LayerCount: 2
Fore
SplineSet
118 614 m 2
 583 614 l 2
 609 614 630 593 630 567 c 2
 630 539 l 2
 630 513 609 493 583 493 c 2
 118 493 l 2
 92 493 72 513 72 539 c 2
 72 567 l 2
 72 593 92 614 118 614 c 2
304 474 m 2
 397 474 l 2
 423 474 444 454 444 428 c 2
 444 400 l 2
 444 374 423 353 397 353 c 2
 304 353 l 2
 278 353 258 374 258 400 c 2
 258 428 l 2
 258 454 278 474 304 474 c 2
304 335 m 2
 397 335 l 2
 423 335 444 314 444 288 c 2
 444 260 l 2
 444 234 423 214 397 214 c 2
 304 214 l 2
 278 214 258 234 258 260 c 2
 258 288 l 2
 258 314 278 335 304 335 c 2
304 195 m 2
 397 195 l 2
 423 195 444 175 444 149 c 2
 444 121 l 2
 444 95 423 74 397 74 c 2
 304 74 l 2
 278 74 258 95 258 121 c 2
 258 149 l 2
 258 175 278 195 304 195 c 2
304 56 m 2
 397 56 l 2
 423 56 444 35 444 9 c 2
 444 -19 l 2
 444 -45 423 -65 397 -65 c 2
 304 -65 l 2
 278 -65 258 -45 258 -19 c 2
 258 9 l 2
 258 35 278 56 304 56 c 2
304 -84 m 2
 397 -84 l 2
 423 -84 444 -104 444 -130 c 2
 444 -158 l 2
 444 -184 423 -205 397 -205 c 2
 304 -205 l 2
 278 -205 258 -184 258 -158 c 2
 258 -130 l 2
 258 -104 278 -84 304 -84 c 2
EndSplineSet
Validated: 1
EndChar

StartChar: U
Encoding: 85 85 20
Width: 748
Flags: HW
LayerCount: 2
Fore
SplineSet
142 614 m 2
 235 614 l 2
 261 614 281 593 281 567 c 2
 281 539 l 2
 281 513 261 493 235 493 c 2
 142 493 l 2
 116 493 95 513 95 539 c 2
 95 567 l 2
 95 593 116 614 142 614 c 2
514 614 m 2
 607 614 l 2
 633 614 653 593 653 567 c 2
 653 539 l 2
 653 513 633 493 607 493 c 2
 514 493 l 2
 488 493 467 513 467 539 c 2
 467 567 l 2
 467 593 488 614 514 614 c 2
142 474 m 2
 235 474 l 2
 261 474 281 454 281 428 c 2
 281 400 l 2
 281 374 261 353 235 353 c 2
 142 353 l 2
 116 353 95 374 95 400 c 2
 95 428 l 2
 95 454 116 474 142 474 c 2
514 474 m 2
 607 474 l 2
 633 474 653 454 653 428 c 2
 653 400 l 2
 653 374 633 353 607 353 c 2
 514 353 l 2
 488 353 467 374 467 400 c 2
 467 428 l 2
 467 454 488 474 514 474 c 2
142 335 m 2
 235 335 l 2
 261 335 281 314 281 288 c 2
 281 260 l 2
 281 234 261 214 235 214 c 2
 142 214 l 2
 116 214 95 234 95 260 c 2
 95 288 l 2
 95 314 116 335 142 335 c 2
514 335 m 2
 607 335 l 2
 633 335 653 314 653 288 c 2
 653 260 l 2
 653 234 633 214 607 214 c 2
 514 214 l 2
 488 214 467 234 467 260 c 2
 467 288 l 2
 467 314 488 335 514 335 c 2
142 195 m 2
 235 195 l 2
 261 195 281 175 281 149 c 2
 281 121 l 2
 281 95 261 74 235 74 c 2
 142 74 l 2
 116 74 95 95 95 121 c 2
 95 149 l 2
 95 175 116 195 142 195 c 2
514 195 m 2
 607 195 l 2
 633 195 653 175 653 149 c 2
 653 121 l 2
 653 95 633 74 607 74 c 2
 514 74 l 2
 488 74 467 95 467 121 c 2
 467 149 l 2
 467 175 488 195 514 195 c 2
142 56 m 2
 235 56 l 2
 261 56 281 35 281 9 c 2
 281 -19 l 2
 281 -45 261 -65 235 -65 c 2
 142 -65 l 2
 116 -65 95 -45 95 -19 c 2
 95 9 l 2
 95 35 116 56 142 56 c 2
514 56 m 2
 607 56 l 2
 633 56 653 35 653 9 c 2
 653 -19 l 2
 653 -45 633 -65 607 -65 c 2
 514 -65 l 2
 488 -65 467 -45 467 -19 c 2
 467 9 l 2
 467 35 488 56 514 56 c 2
142 -84 m 2
 607 -84 l 2
 633 -84 653 -104 653 -130 c 2
 653 -158 l 2
 653 -184 633 -205 607 -205 c 2
 142 -205 l 2
 116 -205 95 -184 95 -158 c 2
 95 -130 l 2
 95 -104 116 -84 142 -84 c 2
EndSplineSet
Validated: 1
EndChar

StartChar: V
Encoding: 86 86 21
Width: 701
Flags: HW
LayerCount: 2
Fore
SplineSet
118 614 m 2
 211 614 l 2
 237 614 258 593 258 567 c 2
 258 539 l 2
 258 513 237 493 211 493 c 2
 118 493 l 2
 92 493 72 513 72 539 c 2
 72 567 l 2
 72 593 92 614 118 614 c 2
490 614 m 2
 583 614 l 2
 609 614 630 593 630 567 c 2
 630 539 l 2
 630 513 609 493 583 493 c 2
 490 493 l 2
 464 493 444 513 444 539 c 2
 444 567 l 2
 444 593 464 614 490 614 c 2
146 474 m 2
 239 474 l 2
 265 474 286 454 286 428 c 2
 286 400 l 2
 286 374 265 353 239 353 c 2
 146 353 l 2
 120 353 100 374 100 400 c 2
 100 428 l 2
 100 454 120 474 146 474 c 2
462 474 m 2
 555 474 l 2
 581 474 602 454 602 428 c 2
 602 400 l 2
 602 374 581 353 555 353 c 2
 462 353 l 2
 436 353 416 374 416 400 c 2
 416 428 l 2
 416 454 436 474 462 474 c 2
174 335 m 2
 267 335 l 2
 293 335 313 314 313 288 c 2
 313 260 l 2
 313 234 293 214 267 214 c 2
 174 214 l 2
 148 214 127 234 127 260 c 2
 127 288 l 2
 127 314 148 335 174 335 c 2
434 335 m 2
 527 335 l 2
 553 335 574 314 574 288 c 2
 574 260 l 2
 574 234 553 214 527 214 c 2
 434 214 l 2
 408 214 388 234 388 260 c 2
 388 288 l 2
 388 314 408 335 434 335 c 2
211 195 m 2
 304 195 l 2
 330 195 351 175 351 149 c 2
 351 121 l 2
 351 95 330 74 304 74 c 2
 211 74 l 2
 185 74 165 95 165 121 c 2
 165 149 l 2
 165 175 185 195 211 195 c 2
406 195 m 2
 499 195 l 2
 525 195 546 175 546 149 c 2
 546 121 l 2
 546 95 525 74 499 74 c 2
 406 74 l 2
 380 74 360 95 360 121 c 2
 360 149 l 2
 360 175 380 195 406 195 c 2
258 56 m 2
 453 56 l 2
 479 56 499 35 499 9 c 2
 499 -19 l 2
 499 -45 479 -65 453 -65 c 2
 258 -65 l 2
 232 -65 211 -45 211 -19 c 2
 211 9 l 2
 211 35 232 56 258 56 c 2
304 -84 m 2
 397 -84 l 2
 423 -84 444 -104 444 -130 c 2
 444 -158 l 2
 444 -184 423 -205 397 -205 c 2
 304 -205 l 2
 278 -205 258 -184 258 -158 c 2
 258 -130 l 2
 258 -104 278 -84 304 -84 c 2
EndSplineSet
Validated: 1
EndChar

StartChar: W
Encoding: 87 87 22
Width: 814
Flags: HW
LayerCount: 2
Fore
SplineSet
142 614 m 2
 235 614 l 2
 261 614 281 593 281 567 c 2
 281 539 l 2
 281 513 261 493 235 493 c 2
 142 493 l 2
 116 493 95 513 95 539 c 2
 95 567 l 2
 95 593 116 614 142 614 c 2
579 614 m 2
 672 614 l 2
 698 614 718 593 718 567 c 2
 718 539 l 2
 718 513 698 493 672 493 c 2
 579 493 l 2
 553 493 532 513 532 539 c 2
 532 567 l 2
 532 593 553 614 579 614 c 2
142 474 m 2
 235 474 l 2
 261 474 281 454 281 428 c 2
 281 400 l 2
 281 374 261 353 235 353 c 2
 142 353 l 2
 116 353 95 374 95 400 c 2
 95 428 l 2
 95 454 116 474 142 474 c 2
579 474 m 2
 672 474 l 2
 698 474 718 454 718 428 c 2
 718 400 l 2
 718 374 698 353 672 353 c 2
 579 353 l 2
 553 353 532 374 532 400 c 2
 532 428 l 2
 532 454 553 474 579 474 c 2
142 335 m 2
 235 335 l 2
 261 335 281 314 281 288 c 2
 281 260 l 2
 281 234 261 214 235 214 c 2
 142 214 l 2
 116 214 95 234 95 260 c 2
 95 288 l 2
 95 314 116 335 142 335 c 2
579 335 m 2
 672 335 l 2
 698 335 718 314 718 288 c 2
 718 260 l 2
 718 234 698 214 672 214 c 2
 579 214 l 2
 553 214 532 234 532 260 c 2
 532 288 l 2
 532 314 553 335 579 335 c 2
142 195 m 2
 235 195 l 2
 261 195 281 175 281 149 c 2
 281 121 l 2
 281 95 261 74 235 74 c 2
 142 74 l 2
 116 74 95 95 95 121 c 2
 95 149 l 2
 95 175 116 195 142 195 c 2
579 195 m 2
 672 195 l 2
 698 195 718 175 718 149 c 2
 718 121 l 2
 718 95 698 74 672 74 c 2
 579 74 l 2
 553 74 532 95 532 121 c 2
 532 149 l 2
 532 175 553 195 579 195 c 2
356 186 m 2
 449 186 l 2
 475 186 495 165 495 139 c 2
 495 111 l 2
 495 85 475 65 449 65 c 2
 356 65 l 2
 330 65 309 85 309 111 c 2
 309 139 l 2
 309 165 330 186 356 186 c 2
142 56 m 2
 328 56 l 2
 354 56 374 35 374 9 c 2
 374 -19 l 2
 374 -45 354 -65 328 -65 c 2
 142 -65 l 2
 116 -65 95 -45 95 -19 c 2
 95 9 l 2
 95 35 116 56 142 56 c 2
476 56 m 2
 672 56 l 2
 698 56 718 35 718 9 c 2
 718 -19 l 2
 718 -45 698 -65 672 -65 c 2
 476 -65 l 2
 450 -65 430 -45 430 -19 c 2
 430 9 l 2
 430 35 450 56 476 56 c 2
142 -84 m 2
 235 -84 l 2
 261 -84 281 -104 281 -130 c 2
 281 -158 l 2
 281 -184 261 -205 235 -205 c 2
 142 -205 l 2
 116 -205 95 -184 95 -158 c 2
 95 -130 l 2
 95 -104 116 -84 142 -84 c 2
579 -84 m 2
 672 -84 l 2
 698 -84 718 -104 718 -130 c 2
 718 -158 l 2
 718 -184 698 -205 672 -205 c 2
 579 -205 l 2
 553 -205 532 -184 532 -158 c 2
 532 -130 l 2
 532 -104 553 -84 579 -84 c 2
EndSplineSet
Validated: 1
EndChar

StartChar: X
Encoding: 88 88 23
Width: 748
InSpiro: 1
Flags: HW
LayerCount: 2
Fore
SplineSet
141.728515625 613.563476562 m 2
 235 614 l 2
 260 614 281 593 281 567 c 2
 281 539 l 2
 281 513 260 493 235 493 c 2
 142 493 l 2
 116 493 95 513 95 539 c 2
 95 567 l 2
 95 593 115.969726562 613.563476562 141.728515625 613.563476562 c 2
  Spiro
    141.729 613.563 [
    234.726 613.563 ]
    258.209 607.244 o
    274.905 590.548 o
    281.223 567.065 [
    281.223 539.166 ]
    274.905 515.682 o
    258.209 498.987 o
    234.726 492.668 [
    141.729 492.668 ]
    118.246 498.987 o
    101.55 515.682 o
    95.232 539.166 [
    95.232 567.065 ]
    101.55 590.548 o
    118.246 607.244 o
    0 0 z
  EndSpiro
514 614 m 2
 607 614 l 2
 632 614 653 593 653 567 c 2
 653 539 l 2
 653 513 632 493 607 493 c 2
 514 493 l 2
 488 493 467 513 467 539 c 2
 467 567 l 2
 467 593 488 614 514 614 c 2
  Spiro
    513.713 613.563 [
    606.708 613.563 ]
    630.192 607.244 o
    646.888 590.548 o
    653.207 567.065 [
    653.207 539.166 ]
    646.888 515.682 o
    630.192 498.987 o
    606.708 492.668 [
    513.713 492.668 ]
    490.23 498.987 o
    473.534 515.682 o
    467.216 539.166 [
    467.216 567.065 ]
    473.534 590.548 o
    490.23 607.244 o
    0 0 z
  EndSpiro
198 474 m 2
 291 474 l 2
 316 474 337 453 337 428 c 2
 337 400 l 2
 337 374 316 353 291 353 c 2
 198 353 l 2
 172 353 151 374 151 400 c 2
 151 428 l 2
 151 453 172 474 198 474 c 2
  Spiro
    197.528 474.069 [
    290.523 474.069 ]
    314.007 467.751 o
    330.703 451.055 o
    337.021 427.571 [
    337.021 399.673 ]
    330.703 376.19 o
    314.007 359.494 o
    290.523 353.175 [
    197.528 353.175 ]
    174.044 359.494 o
    157.348 376.19 o
    151.029 399.673 [
    151.029 427.571 ]
    157.348 451.055 o
    174.044 467.751 o
    0 0 z
  EndSpiro
449 474 m 2
 542 474 l 2
 567 474 588 453 588 428 c 2
 588 400 l 2
 588 374 567 353 542 353 c 2
 449 353 l 2
 423 353 402 374 402 400 c 2
 402 428 l 2
 402 453 423 474 449 474 c 2
  Spiro
    448.616 474.069 [
    541.611 474.069 ]
    565.094 467.751 o
    581.792 451.055 o
    588.111 427.571 [
    588.111 399.673 ]
    581.792 376.19 o
    565.094 359.494 o
    541.611 353.175 [
    448.616 353.175 ]
    425.133 359.494 o
    408.437 376.19 o
    402.118 399.673 [
    402.118 427.571 ]
    408.437 451.055 o
    425.133 467.751 o
    0 0 z
  EndSpiro
281 335 m 2
 467 335 l 2
 493 335 513.712890625 313.837890625 513.712890625 288.078125 c 2
 513.712890625 260.178710938 l 2
 513.712890625 234.418945312 492.974609375 213.680664062 467.215820312 213.680664062 c 2
 281 214 l 2
 255 214 235 234 235 260 c 2
 235 288 l 2
 235 314 255 335 281 335 c 2
  Spiro
    281.223 334.576 [
    467.216 334.576 ]
    490.699 328.258 o
    507.394 311.561 o
    513.713 288.078 [
    513.713 260.179 ]
    507.394 236.696 o
    490.699 219.999 o
    467.216 213.681 [
    281.223 213.681 ]
    257.741 219.999 o
    241.044 236.696 o
    234.726 260.179 [
    234.726 288.078 ]
    241.044 311.561 o
    257.741 328.258 o
    0 0 z
  EndSpiro
281 195 m 2
 467.215820312 195.08203125 l 2
 492.974609375 195.08203125 513.712890625 174.34375 513.712890625 148.583984375 c 2
 513.712890625 120.684570312 l 2
 513.712890625 94.92578125 492.974609375 74.1865234375 467.215820312 74.1865234375 c 2
 281.22265625 74.1865234375 l 2
 255.463867188 74.1865234375 234.725585938 94.92578125 234.725585938 120.684570312 c 2
 234.725585938 148.583984375 l 2
 234.725585938 174.34375 255 195 281 195 c 2
  Spiro
    281.223 195.082 [
    467.216 195.082 ]
    490.699 188.763 o
    507.394 172.067 o
    513.713 148.584 [
    513.713 120.685 ]
    507.394 97.2022 o
    490.699 80.5058 o
    467.216 74.187 [
    281.223 74.187 ]
    257.741 80.5058 o
    241.044 97.2022 o
    234.726 120.685 [
    234.726 148.584 ]
    241.044 172.067 o
    257.741 188.763 o
    0 0 z
  EndSpiro
206.827148438 55.587890625 m 2
 299.823242188 55.587890625 l 2
 325.58203125 55.587890625 346.321289062 34.849609375 346.321289062 9.08984375 c 2
 346.321289062 -18.8076171875 l 2
 346.321289062 -44.568359375 325.58203125 -65.3056640625 299.823242188 -65.3056640625 c 2
 206.827148438 -65.3056640625 l 2
 181.067382812 -65.3056640625 160.329101562 -44.568359375 160.329101562 -18.8076171875 c 2
 160.329101562 9.08984375 l 2
 160.329101562 34.849609375 181.067382812 55.587890625 206.827148438 55.587890625 c 2
  Spiro
    206.826 55.588 [
    299.823 55.588 ]
    323.305 49.2695 o
    340.002 32.5732 o
    346.321 9.09 [
    346.321 -18.808 ]
    340.002 -42.2913 o
    323.305 -58.9875 o
    299.823 -65.306 [
    206.826 -65.306 ]
    183.344 -58.9875 o
    166.648 -42.2913 o
    160.329 -18.808 [
    160.329 9.09 ]
    166.648 32.5732 o
    183.344 49.2695 o
    0 0 z
  EndSpiro
448.616210938 55.587890625 m 2
 541.611328125 55.587890625 l 2
 567.37109375 55.587890625 588.111328125 34.849609375 588.111328125 9.08984375 c 2
 588.111328125 -18.8076171875 l 2
 588.111328125 -44.568359375 567.37109375 -65.3056640625 541.611328125 -65.3056640625 c 2
 448.616210938 -65.3056640625 l 2
 422.856445312 -65.3056640625 402.118164062 -44.568359375 402.118164062 -18.8076171875 c 2
 402.118164062 9.08984375 l 2
 402.118164062 34.849609375 422.856445312 55.587890625 448.616210938 55.587890625 c 2
  Spiro
    448.616 55.588 [
    541.611 55.588 ]
    565.094 49.2695 o
    581.792 32.5732 o
    588.111 9.09 [
    588.111 -18.808 ]
    581.792 -42.2913 o
    565.094 -58.9875 o
    541.611 -65.306 [
    448.616 -65.306 ]
    425.133 -58.9875 o
    408.437 -42.2913 o
    402.118 -18.808 [
    402.118 9.09 ]
    408.437 32.5732 o
    425.133 49.2695 o
    0 0 z
  EndSpiro
141.728515625 -83.9052734375 m 2
 234.725585938 -83.9052734375 l 2
 260.486328125 -83.9052734375 281.22265625 -104.642578125 281.22265625 -130.403320312 c 2
 281.22265625 -158.301757812 l 2
 281.22265625 -184.061523438 260.486328125 -204.799804688 234.725585938 -204.799804688 c 2
 141.728515625 -204.799804688 l 2
 115.969726562 -204.799804688 95.232421875 -184.061523438 95.232421875 -158.301757812 c 2
 95.232421875 -130.403320312 l 2
 95.232421875 -104.642578125 115.969726562 -83.9052734375 141.728515625 -83.9052734375 c 2
  Spiro
    141.729 -83.905 [
    234.726 -83.905 ]
    258.209 -90.2235 o
    274.905 -106.92 o
    281.223 -130.403 [
    281.223 -158.302 ]
    274.905 -181.786 o
    258.209 -198.482 o
    234.726 -204.8 [
    141.729 -204.8 ]
    118.246 -198.482 o
    101.55 -181.786 o
    95.232 -158.302 [
    95.232 -130.403 ]
    101.55 -106.92 o
    118.246 -90.2235 o
    0 0 z
  EndSpiro
514 -84 m 2
 606.708007812 -83.9052734375 l 2
 632.46875 -83.9052734375 653.20703125 -104.642578125 653.20703125 -130.403320312 c 2
 653.20703125 -158.301757812 l 2
 653.20703125 -184.061523438 632.46875 -204.799804688 606.708007812 -204.799804688 c 2
 513.712890625 -204.799804688 l 2
 487.953125 -204.799804688 467.215820312 -184.061523438 467.215820312 -158.301757812 c 2
 467.215820312 -130.403320312 l 2
 467.215820312 -104.642578125 488 -84 514 -84 c 2
  Spiro
    513.713 -83.905 [
    606.708 -83.905 ]
    630.192 -90.2235 o
    646.888 -106.92 o
    653.207 -130.403 [
    653.207 -158.302 ]
    646.888 -181.786 o
    630.192 -198.482 o
    606.708 -204.8 [
    513.713 -204.8 ]
    490.23 -198.482 o
    473.534 -181.786 o
    467.216 -158.302 [
    467.216 -130.403 ]
    473.534 -106.92 o
    490.23 -90.2235 o
    0 0 z
  EndSpiro
EndSplineSet
Validated: 1
EndChar

StartChar: Y
Encoding: 89 89 24
Width: 766
Flags: HW
LayerCount: 2
Fore
SplineSet
118 614 m 2
 211 614 l 2
 237 614 258 593 258 567 c 2
 258 539 l 2
 258 513 237 493 211 493 c 2
 118 493 l 2
 92 493 72 513 72 539 c 2
 72 567 l 2
 72 593 92 614 118 614 c 2
555 614 m 2
 648 614 l 2
 674 614 695 593 695 567 c 2
 695 539 l 2
 695 513 674 493 648 493 c 2
 555 493 l 2
 529 493 509 513 509 539 c 2
 509 567 l 2
 509 593 529 614 555 614 c 2
193 474 m 2
 286 474 l 2
 312 474 332 454 332 428 c 2
 332 400 l 2
 332 374 312 353 286 353 c 2
 193 353 l 2
 167 353 146 374 146 400 c 2
 146 428 l 2
 146 454 167 474 193 474 c 2
490 474 m 2
 583 474 l 2
 609 474 630 454 630 428 c 2
 630 400 l 2
 630 374 609 353 583 353 c 2
 490 353 l 2
 464 353 444 374 444 400 c 2
 444 428 l 2
 444 454 464 474 490 474 c 2
286 335 m 2
 490 335 l 2
 516 335 537 314 537 288 c 2
 537 260 l 2
 537 234 516 214 490 214 c 2
 286 214 l 2
 260 214 239 234 239 260 c 2
 239 288 l 2
 239 314 260 335 286 335 c 2
341 195 m 2
 434 195 l 2
 460 195 481 175 481 149 c 2
 481 121 l 2
 481 95 460 74 434 74 c 2
 341 74 l 2
 315 74 295 95 295 121 c 2
 295 149 l 2
 295 175 315 195 341 195 c 2
341 56 m 2
 434 56 l 2
 460 56 481 35 481 9 c 2
 481 -19 l 2
 481 -45 460 -65 434 -65 c 2
 341 -65 l 2
 315 -65 295 -45 295 -19 c 2
 295 9 l 2
 295 35 315 56 341 56 c 2
341 -84 m 2
 434 -84 l 2
 460 -84 481 -104 481 -130 c 2
 481 -158 l 2
 481 -184 460 -205 434 -205 c 2
 341 -205 l 2
 315 -205 295 -184 295 -158 c 2
 295 -130 l 2
 295 -104 315 -84 341 -84 c 2
EndSplineSet
Validated: 1
EndChar

StartChar: Z
Encoding: 90 90 25
Width: 748
Flags: HW
LayerCount: 2
Fore
SplineSet
142 614 m 6
 607 614 l 6
 633 614 653 593 653 567 c 6
 653 539 l 6
 653 513 633 493 607 493 c 6
 142 493 l 6
 116 493 95 513 95 539 c 6
 95 567 l 6
 95 593 116 614 142 614 c 6
514 474 m 6
 607 474 l 6
 633 474 653 454 653 428 c 6
 653 400 l 6
 653 374 633 353 607 353 c 6
 514 353 l 6
 488 353 467 374 467 400 c 6
 467 428 l 6
 467 454 488 474 514 474 c 6
356 335 m 6
 514 335 l 6
 540 335 560 314 560 288 c 6
 560 260 l 6
 560 234 540 214 514 214 c 6
 356 214 l 6
 330 214 309 234 309 260 c 6
 309 288 l 6
 309 314 330 335 356 335 c 6
235 195 m 6
 393 195 l 6
 419 195 439 175 439 149 c 6
 439 121 l 6
 439 95 419 74 393 74 c 6
 235 74 l 6
 209 74 188 95 188 121 c 6
 188 149 l 6
 188 175 209 195 235 195 c 6
142 56 m 6
 235 56 l 6
 261 56 281 35 281 9 c 6
 281 -19 l 6
 281 -45 261 -65 235 -65 c 6
 142 -65 l 6
 116 -65 95 -45 95 -19 c 6
 95 9 l 6
 95 35 116 56 142 56 c 6
142 -84 m 6
 607 -84 l 6
 633 -84 653 -104 653 -130 c 6
 653 -158 l 6
 653 -184 633 -205 607 -205 c 6
 142 -205 l 6
 116 -205 95 -184 95 -158 c 6
 95 -130 l 6
 95 -104 116 -84 142 -84 c 6
EndSplineSet
Validated: 1
EndChar

StartChar: a
Encoding: 97 97 26
Width: 672
Flags: HW
LayerCount: 2
Fore
SplineSet
118 326 m 2
 437 326 l 2
 462 326 483 305 483 280 c 2
 483 253 l 2
 483 228 462 207 437 207 c 2
 118 207 l 2
 93 207 72 228 72 253 c 2
 72 280 l 2
 72 305 93 326 118 326 c 2
209 189 m 2
 529 189 l 2
 554 189 574 168 574 143 c 2
 574 116 l 2
 574 91 554 70 529 70 c 2
 209 70 l 2
 184 70 163 91 163 116 c 2
 163 143 l 2
 163 168 184 189 209 189 c 2
118 52 m 2
 209 52 l 2
 234 52 255 31 255 6 c 2
 255 -21 l 2
 255 -46 234 -67 209 -67 c 2
 118 -67 l 2
 93 -67 72 -46 72 -21 c 2
 72 6 l 2
 72 31 93 52 118 52 c 2
437 52 m 2
 529 52 l 2
 554 52 574 31 574 6 c 2
 574 -21 l 2
 574 -46 554 -67 529 -67 c 2
 437 -67 l 2
 412 -67 392 -46 392 -21 c 2
 392 6 l 2
 392 31 412 52 437 52 c 2
209 -85 m 2
 529 -85 l 2
 554 -85 574 -106 574 -131 c 2
 574 -158 l 2
 574 -183 554 -204 529 -204 c 2
 209 -204 l 2
 184 -204 163 -183 163 -158 c 2
 163 -131 l 2
 163 -106 184 -85 209 -85 c 2
EndSplineSet
Validated: 1
EndChar

StartChar: b
Encoding: 98 98 27
Width: 714
Flags: HW
LayerCount: 2
Fore
SplineSet
142 614 m 2
 235 614 l 2
 261 614 282 593 282 567 c 2
 282 539 l 2
 282 513 261 493 235 493 c 2
 142 493 l 2
 116 493 96 513 96 539 c 2
 96 567 l 2
 96 593 116 614 142 614 c 2
142 474 m 2
 235 474 l 2
 261 474 282 454 282 428 c 2
 282 400 l 2
 282 374 261 353 235 353 c 2
 142 353 l 2
 116 353 96 374 96 400 c 2
 96 428 l 2
 96 454 116 474 142 474 c 2
142 335 m 2
 468 335 l 2
 494 335 514 314 514 288 c 2
 514 260 l 2
 514 234 494 214 468 214 c 2
 142 214 l 2
 116 214 96 234 96 260 c 2
 96 288 l 2
 96 314 116 335 142 335 c 2
142 195 m 2
 235 195 l 2
 261 195 282 175 282 149 c 2
 282 121 l 2
 282 95 261 74 235 74 c 2
 142 74 l 2
 116 74 96 95 96 121 c 2
 96 149 l 2
 96 175 116 195 142 195 c 2
468 195 m 2
 561 195 l 2
 587 195 607 175 607 149 c 2
 607 121 l 2
 607 95 587 74 561 74 c 2
 468 74 l 2
 442 74 421 95 421 121 c 2
 421 149 l 2
 421 175 442 195 468 195 c 2
142 56 m 2
 235 56 l 2
 261 56 282 35 282 9 c 2
 282 -19 l 2
 282 -45 261 -65 235 -65 c 2
 142 -65 l 2
 116 -65 96 -45 96 -19 c 2
 96 9 l 2
 96 35 116 56 142 56 c 2
468 56 m 2
 561 56 l 2
 587 56 607 35 607 9 c 2
 607 -19 l 2
 607 -45 587 -65 561 -65 c 2
 468 -65 l 2
 442 -65 421 -45 421 -19 c 2
 421 9 l 2
 421 34 441 55 466 56 c 0
 467 56 467 56 468 56 c 2
142 -84 m 2
 468 -84 l 2
 494 -84 514 -104 514 -130 c 2
 514 -158 l 2
 514 -184 494 -205 468 -205 c 2
 142 -205 l 2
 116 -205 96 -184 96 -158 c 2
 96 -130 l 2
 96 -104 116 -84 142 -84 c 2
EndSplineSet
Validated: 1
EndChar

StartChar: c
Encoding: 99 99 28
Width: 634
Flags: HW
LayerCount: 2
Fore
SplineSet
130 335 m 2
 502 335 l 2
 528 335 549 314 549 288 c 2
 549 260 l 2
 549 234 528 214 502 214 c 2
 130 214 l 2
 104 214 84 234 84 260 c 2
 84 288 l 2
 84 314 104 335 130 335 c 2
130 195 m 2
 223 195 l 2
 249 195 270 175 270 149 c 2
 270 121 l 2
 270 95 249 74 223 74 c 2
 130 74 l 2
 104 74 84 95 84 121 c 2
 84 149 l 2
 84 175 104 195 130 195 c 2
130 56 m 2
 223 56 l 2
 249 56 270 35 270 9 c 2
 270 -19 l 2
 270 -45 249 -65 223 -65 c 2
 130 -65 l 2
 104 -65 84 -45 84 -19 c 2
 84 9 l 2
 84 35 104 56 130 56 c 2
130 -84 m 2
 502 -84 l 2
 528 -84 549 -104 549 -130 c 2
 549 -158 l 2
 549 -184 528 -205 502 -205 c 2
 130 -205 l 2
 104 -205 84 -184 84 -158 c 2
 84 -130 l 2
 84 -104 104 -84 130 -84 c 2
EndSplineSet
Validated: 1
EndChar

StartChar: d
Encoding: 100 100 29
Width: 716
Flags: HW
LayerCount: 2
Fore
SplineSet
464 614 m 2
 557 614 l 2
 583 614 603 593 603 567 c 2
 603 539 l 2
 603 513 583 493 557 493 c 2
 464 493 l 2
 438 493 417 513 417 539 c 2
 417 567 l 2
 417 593 438 614 464 614 c 2
464 474 m 2
 557 474 l 2
 583 474 603 454 603 428 c 2
 603 400 l 2
 603 374 583 353 557 353 c 2
 464 353 l 2
 438 353 417 374 417 400 c 2
 417 428 l 2
 417 454 438 474 464 474 c 2
231 335 m 2
 557 335 l 2
 583 335 603 314 603 288 c 2
 603 260 l 2
 603 234 583 214 557 214 c 2
 231 214 l 2
 205 214 185 234 185 260 c 2
 185 288 l 2
 185 314 205 335 231 335 c 2
138 195 m 2
 231 195 l 2
 257 195 278 175 278 149 c 2
 278 121 l 2
 278 95 257 74 231 74 c 2
 138 74 l 2
 112 74 92 95 92 121 c 2
 92 149 l 2
 92 175 112 195 138 195 c 2
464 195 m 2
 557 195 l 2
 583 195 603 175 603 149 c 2
 603 121 l 2
 603 95 583 74 557 74 c 2
 464 74 l 2
 438 74 417 95 417 121 c 2
 417 149 l 2
 417 175 438 195 464 195 c 2
138 56 m 2
 231 56 l 2
 257 56 278 35 278 9 c 2
 278 -19 l 2
 278 -45 257 -65 231 -65 c 2
 138 -65 l 2
 112 -65 92 -45 92 -19 c 2
 92 9 l 2
 92 35 112 56 138 56 c 2
464 56 m 2
 557 56 l 2
 583 56 603 35 603 9 c 2
 603 -19 l 2
 603 -45 583 -65 557 -65 c 2
 464 -65 l 2
 438 -65 417 -45 417 -19 c 2
 417 9 l 2
 417 35 438 56 464 56 c 2
231 -84 m 2
 557 -84 l 2
 583 -84 603 -104 603 -130 c 2
 603 -158 l 2
 603 -184 583 -205 557 -205 c 2
 231 -205 l 2
 205 -205 185 -184 185 -158 c 2
 185 -130 l 2
 185 -104 205 -84 231 -84 c 2
EndSplineSet
Validated: 1
EndChar

StartChar: zero
Encoding: 48 48 30
Width: 805
Flags: HW
LayerCount: 2
Fore
SplineSet
265 614 m 2
 544 614 l 2
 570 614 591 593 591 567 c 2
 591 539 l 2
 591 513 570 493 544 493 c 2
 265 493 l 2
 239 493 219 513 219 539 c 2
 219 567 l 2
 219 593 239 614 265 614 c 2
172 474 m 2
 265 474 l 2
 291 474 312 454 312 428 c 2
 312 400 l 2
 312 374 291 353 265 353 c 2
 172 353 l 2
 146 353 126 374 126 400 c 2
 126 428 l 2
 126 454 146 474 172 474 c 2
544 474 m 2
 637 474 l 2
 663 474 684 454 684 428 c 2
 684 400 l 2
 684 374 663 353 637 353 c 2
 544 353 l 2
 518 353 498 374 498 400 c 2
 498 428 l 2
 498 454 518 474 544 474 c 2
172 335 m 2
 265 335 l 2
 291 335 312 314 312 288 c 2
 312 260 l 2
 312 234 291 214 265 214 c 2
 172 214 l 2
 146 214 126 234 126 260 c 2
 126 288 l 2
 126 314 146 335 172 335 c 2
544 335 m 2
 637 335 l 2
 663 335 684 314 684 288 c 2
 684 260 l 2
 684 234 663 214 637 214 c 2
 544 214 l 2
 518 214 498 234 498 260 c 2
 498 288 l 2
 498 314 518 335 544 335 c 2
172 195 m 2
 265 195 l 2
 291 195 312 175 312 149 c 2
 312 121 l 2
 312 95 291 74 265 74 c 2
 172 74 l 2
 146 74 126 95 126 121 c 2
 126 149 l 2
 126 175 146 195 172 195 c 2
544 195 m 2
 637 195 l 2
 663 195 684 175 684 149 c 2
 684 121 l 2
 684 95 663 74 637 74 c 2
 544 74 l 2
 518 74 498 95 498 121 c 2
 498 149 l 2
 498 175 518 195 544 195 c 2
172 56 m 2
 265 56 l 2
 291 56 312 35 312 9 c 2
 312 -19 l 2
 312 -45 291 -65 265 -65 c 2
 172 -65 l 2
 146 -65 126 -45 126 -19 c 2
 126 9 l 2
 126 35 146 56 172 56 c 2
544 56 m 2
 637 56 l 2
 663 56 684 35 684 9 c 2
 684 -19 l 2
 684 -45 663 -65 637 -65 c 2
 544 -65 l 2
 518 -65 498 -45 498 -19 c 2
 498 9 l 2
 498 35 518 56 544 56 c 2
265 -84 m 2
 544 -84 l 2
 570 -84 591 -104 591 -130 c 2
 591 -158 l 2
 591 -184 570 -205 544 -205 c 2
 265 -205 l 2
 239 -205 219 -184 219 -158 c 2
 219 -130 l 2
 219 -104 239 -84 265 -84 c 2
EndSplineSet
Validated: 1
EndChar

StartChar: one
Encoding: 49 49 31
Width: 544
Flags: HW
LayerCount: 2
Fore
SplineSet
305 614 m 2
 417 614 l 2
 443 614 463 593 463 567 c 2
 463 539 l 2
 463 513 443 493 417 493 c 2
 305 493 l 2
 279 493 259 513 259 539 c 2
 259 567 l 2
 259 593 279 614 305 614 c 2
203 474 m 2
 417 474 l 2
 443 474 463 454 463 428 c 2
 463 400 l 2
 463 374 443 353 417 353 c 2
 203 353 l 2
 177 353 156 374 156 400 c 2
 156 428 l 2
 156 454 177 474 203 474 c 2
110 335 m 2
 203 335 l 2
 229 335 249 314 249 288 c 2
 249 260 l 2
 249 234 229 214 203 214 c 2
 110 214 l 2
 84 214 63 234 63 260 c 2
 63 288 l 2
 63 314 84 335 110 335 c 2
324 335 m 2
 417 335 l 2
 443 335 463 314 463 288 c 2
 463 260 l 2
 463 234 443 214 417 214 c 2
 324 214 l 2
 298 214 277 234 277 260 c 2
 277 288 l 2
 277 314 298 335 324 335 c 2
324 195 m 2
 417 195 l 2
 443 195 463 175 463 149 c 2
 463 121 l 2
 463 95 443 74 417 74 c 2
 324 74 l 2
 298 74 277 95 277 121 c 2
 277 149 l 2
 277 175 298 195 324 195 c 2
324 56 m 2
 417 56 l 2
 443 56 463 35 463 9 c 2
 463 -19 l 2
 463 -45 443 -65 417 -65 c 2
 324 -65 l 2
 298 -65 277 -45 277 -19 c 2
 277 9 l 2
 277 35 298 56 324 56 c 2
324 -84 m 2
 417 -84 l 2
 443 -84 463 -104 463 -130 c 2
 463 -158 l 2
 463 -184 443 -205 417 -205 c 2
 324 -205 l 2
 298 -205 277 -184 277 -158 c 2
 277 -130 l 2
 277 -104 298 -84 324 -84 c 2
EndSplineSet
Validated: 1
EndChar

StartChar: two
Encoding: 50 50 32
Width: 739
Flags: HW
LayerCount: 2
Fore
SplineSet
219 614 m 2
 498 614 l 2
 524 614 545 593 545 567 c 2
 545 539 l 2
 545 513 524 493 498 493 c 2
 219 493 l 2
 193 493 173 513 173 539 c 2
 173 567 l 2
 173 593 193 614 219 614 c 2
126 474 m 2
 219 474 l 2
 245 474 266 454 266 428 c 2
 266 400 l 2
 266 374 245 353 219 353 c 2
 126 353 l 2
 100 353 80 374 80 400 c 2
 80 428 l 2
 80 454 100 474 126 474 c 2
498 474 m 2
 591 474 l 2
 617 474 638 454 638 428 c 2
 638 400 l 2
 638 374 617 353 591 353 c 2
 498 353 l 2
 472 353 452 374 452 400 c 2
 452 428 l 2
 452 454 472 474 498 474 c 2
405 335 m 2
 498 335 l 2
 524 335 545 314 545 288 c 2
 545 260 l 2
 545 234 524 214 498 214 c 2
 405 214 l 2
 379 214 359 234 359 260 c 2
 359 288 l 2
 359 314 379 335 405 335 c 2
312 195 m 2
 405 195 l 2
 431 195 452 175 452 149 c 2
 452 121 l 2
 452 95 431 74 405 74 c 2
 312 74 l 2
 286 74 266 95 266 121 c 2
 266 149 l 2
 266 175 286 195 312 195 c 2
219 56 m 2
 312 56 l 2
 338 56 359 35 359 9 c 2
 359 -19 l 2
 359 -45 338 -65 312 -65 c 2
 219 -65 l 2
 193 -65 173 -45 173 -19 c 2
 173 9 l 2
 173 35 193 56 219 56 c 2
126 -84 m 2
 591 -84 l 2
 617 -84 638 -104 638 -130 c 2
 638 -158 l 2
 638 -184 617 -205 591 -205 c 2
 126 -205 l 2
 100 -205 80 -184 80 -158 c 2
 80 -130 l 2
 80 -104 100 -84 126 -84 c 2
EndSplineSet
Validated: 1
EndChar

StartChar: three
Encoding: 51 51 33
Width: 748
Flags: HW
LayerCount: 2
Fore
SplineSet
238 613 m 6
 517 613 l 6
 543 613 563 592 563 566 c 6
 563 538 l 6
 563 512 543 492 517 492 c 6
 238 492 l 6
 212 492 191 512 191 538 c 6
 191 566 l 6
 191 592 212 613 238 613 c 6
145 473 m 6
 238 473 l 6
 264 473 284 453 284 427 c 6
 284 399 l 6
 284 373 264 352 238 352 c 6
 145 352 l 6
 119 352 98 373 98 399 c 6
 98 427 l 6
 98 453 119 473 145 473 c 6
517 473 m 6
 610 473 l 6
 636 473 656 453 656 427 c 6
 656 399 l 6
 656 373 636 352 610 352 c 6
 517 352 l 6
 491 352 470 373 470 399 c 6
 470 427 l 6
 470 453 491 473 517 473 c 6
424 334 m 6
 517 334 l 6
 543 334 563 313 563 287 c 6
 563 259 l 6
 563 233 543 213 517 213 c 6
 424 213 l 6
 398 213 377 233 377 259 c 6
 377 287 l 6
 377 313 398 334 424 334 c 6
252 264 m 6
 326 264 l 6
 344 264 359 249 359 231 c 6
 359 175 l 6
 359 157 344 143 326 143 c 6
 252 143 l 6
 234 143 219 157 219 175 c 6
 219 231 l 6
 219 249 234 264 252 264 c 6
424 194 m 6
 517 194 l 6
 543 194 563 174 563 148 c 6
 563 120 l 6
 563 94 543 73 517 73 c 6
 424 73 l 6
 398 73 377 94 377 120 c 6
 377 148 l 6
 377 174 398 194 424 194 c 6
145 55 m 6
 238 55 l 6
 264 55 284 34 284 8 c 6
 284 -20 l 6
 284 -46 264 -66 238 -66 c 6
 145 -66 l 6
 119 -66 98 -46 98 -20 c 6
 98 8 l 6
 98 34 119 55 145 55 c 6
517 55 m 6
 610 55 l 6
 636 55 656 34 656 8 c 6
 656 -20 l 6
 656 -46 636 -66 610 -66 c 6
 517 -66 l 6
 491 -66 470 -46 470 -20 c 6
 470 8 l 6
 470 34 491 55 517 55 c 6
238 -85 m 6
 517 -85 l 6
 543 -85 563 -105 563 -131 c 6
 563 -159 l 6
 563 -185 543 -206 517 -206 c 6
 238 -206 l 6
 212 -206 191 -185 191 -159 c 6
 191 -131 l 6
 191 -105 212 -85 238 -85 c 6
EndSplineSet
Validated: 1
EndChar

StartChar: four
Encoding: 52 52 34
Width: 702
Flags: HW
LayerCount: 2
Fore
SplineSet
130 614 m 2
 223 614 l 2
 249 614 270 593 270 567 c 2
 270 539 l 2
 270 513 249 493 223 493 c 2
 130 493 l 2
 104 493 84 513 84 539 c 2
 84 567 l 2
 84 593 104 614 130 614 c 2
465 614 m 2
 558 614 l 2
 584 614 605 593 605 567 c 2
 605 539 l 2
 605 513 584 493 558 493 c 2
 465 493 l 2
 439 493 419 513 419 539 c 2
 419 567 l 2
 419 593 439 614 465 614 c 2
130 474 m 2
 223 474 l 2
 249 474 270 454 270 428 c 2
 270 400 l 2
 270 374 249 353 223 353 c 2
 130 353 l 2
 104 353 84 374 84 400 c 2
 84 428 l 2
 84 454 104 474 130 474 c 2
465 474 m 2
 558 474 l 2
 584 474 605 454 605 428 c 2
 605 400 l 2
 605 374 584 353 558 353 c 2
 465 353 l 2
 439 353 419 374 419 400 c 2
 419 428 l 2
 419 454 439 474 465 474 c 2
223 335 m 2
 558 335 l 2
 584 335 605 314 605 288 c 2
 605 260 l 2
 605 234 584 214 558 214 c 2
 223 214 l 2
 197 214 177 234 177 260 c 2
 177 288 l 2
 177 314 197 335 223 335 c 2
465 195 m 2
 558 195 l 2
 584 195 605 175 605 149 c 2
 605 121 l 2
 605 95 584 74 558 74 c 2
 465 74 l 2
 439 74 419 95 419 121 c 2
 419 149 l 2
 419 175 439 195 465 195 c 2
465 56 m 2
 558 56 l 2
 584 56 605 35 605 9 c 2
 605 -19 l 2
 605 -45 584 -65 558 -65 c 2
 465 -65 l 2
 439 -65 419 -45 419 -19 c 2
 419 9 l 2
 419 35 439 56 465 56 c 2
465 -84 m 2
 558 -84 l 2
 584 -84 605 -104 605 -130 c 2
 605 -158 l 2
 605 -184 584 -205 558 -205 c 2
 465 -205 l 2
 439 -205 419 -184 419 -158 c 2
 419 -130 l 2
 419 -104 439 -84 465 -84 c 2
EndSplineSet
Validated: 1
EndChar

StartChar: five
Encoding: 53 53 35
Width: 638
Flags: HW
LayerCount: 2
Fore
SplineSet
126 614 m 2
 498 614 l 2
 524 614 545 593 545 567 c 2
 545 539 l 2
 545 513 524 493 498 493 c 2
 126 493 l 2
 100 493 80 513 80 539 c 2
 80 567 l 2
 80 593 100 614 126 614 c 2
126 474 m 2
 219 474 l 2
 245 474 266 454 266 428 c 2
 266 400 l 2
 266 374 245 353 219 353 c 2
 126 353 l 2
 100 353 80 374 80 400 c 2
 80 428 l 2
 80 454 100 474 126 474 c 2
126 335 m 2
 405 335 l 2
 431 335 452 314 452 288 c 2
 452 260 l 2
 452 234 431 214 405 214 c 2
 126 214 l 2
 100 214 80 234 80 260 c 2
 80 288 l 2
 80 314 100 335 126 335 c 2
405 195 m 2
 498 195 l 2
 524 195 545 175 545 149 c 2
 545 121 l 2
 545 95 524 74 498 74 c 2
 405 74 l 2
 379 74 359 95 359 121 c 2
 359 149 l 2
 359 175 379 195 405 195 c 2
405 56 m 2
 498 56 l 2
 524 56 545 35 545 9 c 2
 545 -19 l 2
 545 -45 524 -65 498 -65 c 2
 405 -65 l 2
 379 -65 359 -45 359 -19 c 2
 359 9 l 2
 359 35 379 56 405 56 c 2
126 -84 m 2
 405 -84 l 2
 431 -84 452 -104 452 -130 c 2
 452 -158 l 2
 452 -184 431 -205 405 -205 c 2
 126 -205 l 2
 100 -205 80 -184 80 -158 c 2
 80 -130 l 2
 80 -104 100 -84 126 -84 c 2
EndSplineSet
Validated: 1
EndChar

StartChar: six
Encoding: 54 54 36
Width: 743
Flags: HW
LayerCount: 2
Fore
SplineSet
235 614 m 2
 514 614 l 2
 540 614 560 593 560 567 c 2
 560 539 l 2
 560 513 540 493 514 493 c 2
 235 493 l 2
 209 493 188 513 188 539 c 2
 188 567 l 2
 188 593 209 614 235 614 c 2
142 474 m 2
 235 474 l 2
 261 474 281 454 281 428 c 2
 281 400 l 2
 281 374 261 353 235 353 c 2
 142 353 l 2
 116 353 95 374 95 400 c 2
 95 428 l 2
 95 454 116 474 142 474 c 2
514 474 m 2
 607 474 l 2
 633 474 653 454 653 428 c 2
 653 400 l 2
 653 374 633 353 607 353 c 2
 514 353 l 2
 488 353 467 374 467 400 c 2
 467 428 l 2
 467 454 488 474 514 474 c 2
142 335 m 2
 235 335 l 2
 261 335 281 314 281 288 c 2
 281 260 l 2
 281 234 261 214 235 214 c 2
 142 214 l 2
 116 214 95 234 95 260 c 2
 95 288 l 2
 95 314 116 335 142 335 c 2
142 195 m 2
 514 195 l 2
 540 195 560 175 560 149 c 2
 560 121 l 2
 560 95 540 74 514 74 c 2
 142 74 l 2
 116 74 95 95 95 121 c 2
 95 149 l 2
 95 175 116 195 142 195 c 2
142 56 m 2
 235 56 l 2
 261 56 281 35 281 9 c 2
 281 -19 l 2
 281 -45 261 -65 235 -65 c 2
 142 -65 l 2
 116 -65 95 -45 95 -19 c 2
 95 9 l 2
 95 35 116 56 142 56 c 2
514 56 m 2
 607 56 l 2
 633 56 653 35 653 9 c 2
 653 -19 l 2
 653 -45 633 -65 607 -65 c 2
 514 -65 l 2
 488 -65 467 -45 467 -19 c 2
 467 9 l 2
 467 35 488 56 514 56 c 2
235 -84 m 2
 514 -84 l 2
 540 -84 560 -104 560 -130 c 2
 560 -158 l 2
 560 -184 540 -205 514 -205 c 2
 235 -205 l 2
 209 -205 188 -184 188 -158 c 2
 188 -130 l 2
 188 -104 209 -84 235 -84 c 2
EndSplineSet
Validated: 1
EndChar

StartChar: seven
Encoding: 55 55 37
Width: 722
Flags: HW
LayerCount: 2
Fore
SplineSet
126 614 m 2
 591 614 l 2
 617 614 638 593 638 567 c 2
 638 539 l 2
 638 513 617 493 591 493 c 2
 126 493 l 2
 100 493 80 513 80 539 c 2
 80 567 l 2
 80 593 100 614 126 614 c 2
433 474 m 2
 526 474 l 2
 552 474 573 454 573 428 c 2
 573 400 l 2
 573 374 552 353 526 353 c 2
 433 353 l 2
 407 353 387 374 387 400 c 2
 387 428 l 2
 387 454 407 474 433 474 c 2
368 335 m 2
 461 335 l 2
 487 335 508 314 508 288 c 2
 508 260 l 2
 508 234 487 214 461 214 c 2
 368 214 l 2
 342 214 322 234 322 260 c 2
 322 288 l 2
 322 314 342 335 368 335 c 2
303 195 m 2
 396 195 l 2
 422 195 443 175 443 149 c 2
 443 121 l 2
 443 95 422 74 396 74 c 2
 303 74 l 2
 277 74 257 95 257 121 c 2
 257 149 l 2
 257 175 277 195 303 195 c 2
238 56 m 2
 331 56 l 2
 357 56 377 35 377 9 c 2
 377 -19 l 2
 377 -45 357 -65 331 -65 c 2
 238 -65 l 2
 212 -65 191 -45 191 -19 c 2
 191 9 l 2
 191 35 212 56 238 56 c 2
173 -84 m 2
 266 -84 l 2
 292 -84 312 -104 312 -130 c 2
 312 -158 l 2
 312 -184 292 -205 266 -205 c 2
 173 -205 l 2
 147 -205 126 -184 126 -158 c 2
 126 -130 l 2
 126 -104 147 -84 173 -84 c 2
EndSplineSet
Validated: 1
EndChar

StartChar: eight
Encoding: 56 56 38
Width: 763
Flags: HW
LayerCount: 2
Fore
SplineSet
240 614 m 2
 519 614 l 2
 545 614 565 593 565 567 c 2
 565 539 l 2
 565 513 545 493 519 493 c 2
 240 493 l 2
 214 493 193 513 193 539 c 2
 193 567 l 2
 193 593 214 614 240 614 c 2
147 474 m 2
 240 474 l 2
 266 474 286 454 286 428 c 2
 286 400 l 2
 286 374 266 353 240 353 c 2
 147 353 l 2
 121 353 100 374 100 400 c 2
 100 428 l 2
 100 454 121 474 147 474 c 2
519 474 m 2
 612 474 l 2
 638 474 658 454 658 428 c 2
 658 400 l 2
 658 374 638 353 612 353 c 2
 519 353 l 2
 493 353 472 374 472 400 c 2
 472 428 l 2
 472 454 493 474 519 474 c 2
240 335 m 2
 519 335 l 2
 545 335 565 314 565 288 c 2
 565 260 l 2
 565 234 545 214 519 214 c 2
 240 214 l 2
 214 214 193 234 193 260 c 2
 193 288 l 2
 193 314 214 335 240 335 c 2
147 195 m 2
 240 195 l 2
 266 195 286 175 286 149 c 2
 286 121 l 2
 286 95 266 74 240 74 c 2
 147 74 l 2
 121 74 100 95 100 121 c 2
 100 149 l 2
 100 175 121 195 147 195 c 2
519 195 m 2
 612 195 l 2
 638 195 658 175 658 149 c 2
 658 121 l 2
 658 95 638 74 612 74 c 2
 519 74 l 2
 493 74 472 95 472 121 c 2
 472 149 l 2
 472 175 493 195 519 195 c 2
147 56 m 2
 240 56 l 2
 266 56 286 35 286 9 c 2
 286 -19 l 2
 286 -45 266 -65 240 -65 c 2
 147 -65 l 2
 121 -65 100 -45 100 -19 c 2
 100 9 l 2
 100 35 121 56 147 56 c 2
519 56 m 2
 612 56 l 2
 638 56 658 35 658 9 c 2
 658 -19 l 2
 658 -45 638 -65 612 -65 c 2
 519 -65 l 2
 493 -65 472 -45 472 -19 c 2
 472 9 l 2
 472 35 493 56 519 56 c 2
240 -84 m 2
 519 -84 l 2
 545 -84 565 -104 565 -130 c 2
 565 -158 l 2
 565 -184 545 -205 519 -205 c 2
 240 -205 l 2
 214 -205 193 -184 193 -158 c 2
 193 -130 l 2
 193 -104 214 -84 240 -84 c 2
EndSplineSet
Validated: 1
EndChar

StartChar: nine
Encoding: 57 57 39
Width: 737
Flags: HW
LayerCount: 2
Fore
SplineSet
221 614 m 2
 500 614 l 2
 526 614 547 593 547 567 c 2
 547 539 l 2
 547 513 526 493 500 493 c 2
 221 493 l 2
 195 493 175 513 175 539 c 2
 175 567 l 2
 175 593 195 614 221 614 c 2
128 474 m 2
 221 474 l 2
 247 474 268 454 268 428 c 2
 268 400 l 2
 268 374 247 353 221 353 c 2
 128 353 l 2
 102 353 82 374 82 400 c 2
 82 428 l 2
 82 454 102 474 128 474 c 2
500 474 m 2
 593 474 l 2
 619 474 640 454 640 428 c 2
 640 400 l 2
 640 374 619 353 593 353 c 2
 500 353 l 2
 474 353 454 374 454 400 c 2
 454 428 l 2
 454 454 474 474 500 474 c 2
221 335 m 2
 593 335 l 2
 619 335 640 314 640 288 c 2
 640 260 l 2
 640 234 619 214 593 214 c 2
 221 214 l 2
 195 214 175 234 175 260 c 2
 175 288 l 2
 175 314 195 335 221 335 c 2
500 195 m 2
 593 195 l 2
 619 195 640 175 640 149 c 2
 640 121 l 2
 640 95 619 74 593 74 c 2
 500 74 l 2
 474 74 454 95 454 121 c 2
 454 149 l 2
 454 175 474 195 500 195 c 2
128 56 m 2
 221 56 l 2
 247 56 268 35 268 9 c 2
 268 -19 l 2
 268 -45 247 -65 221 -65 c 2
 128 -65 l 2
 102 -65 82 -45 82 -19 c 2
 82 9 l 2
 82 35 102 56 128 56 c 2
500 56 m 2
 593 56 l 2
 619 56 640 35 640 9 c 2
 640 -19 l 2
 640 -45 619 -65 593 -65 c 2
 500 -65 l 2
 474 -65 454 -45 454 -19 c 2
 454 9 l 2
 454 35 474 56 500 56 c 2
221 -84 m 2
 500 -84 l 2
 526 -84 547 -104 547 -130 c 2
 547 -158 l 2
 547 -184 526 -205 500 -205 c 2
 221 -205 l 2
 195 -205 175 -184 175 -158 c 2
 175 -130 l 2
 175 -104 195 -84 221 -84 c 2
EndSplineSet
Validated: 1
EndChar

StartChar: e
Encoding: 101 101 40
Width: 715
Flags: HW
LayerCount: 2
Fore
SplineSet
237 334 m 2
 562 334 l 2
 588 334 608 314 608 288 c 2
 608 260 l 2
 608 234 588 214 562 214 c 2
 237 214 l 2
 211 214 191 234 191 260 c 2
 191 288 l 2
 191 314 211 334 237 334 c 2
144 195 m 2
 237 195 l 2
 263 195 284 175 284 149 c 2
 284 121 l 2
 284 95 263 75 237 75 c 2
 144 75 l 2
 118 75 98 95 98 121 c 2
 98 149 l 2
 98 175 118 195 144 195 c 2
469 195 m 2
 562 195 l 2
 588 195 608 175 608 149 c 2
 608 121 l 2
 608 95 588 75 562 75 c 2
 469 75 l 2
 443 75 423 95 423 121 c 2
 423 149 l 2
 423 175 443 195 469 195 c 2
144 56 m 2
 469 56 l 2
 495 56 515 36 515 10 c 2
 515 -18 l 2
 515 -44 495 -65 469 -65 c 2
 144 -65 l 2
 118 -65 98 -44 98 -18 c 2
 98 10 l 2
 98 36 118 56 144 56 c 2
237 -83 m 2
 562 -83 l 2
 588 -83 608 -104 608 -130 c 2
 608 -157 l 2
 608 -183 588 -204 562 -204 c 2
 237 -204 l 2
 211 -204 191 -183 191 -157 c 2
 191 -130 l 2
 191 -104 211 -83 237 -83 c 2
EndSplineSet
Validated: 1
EndChar

StartChar: f
Encoding: 102 102 41
Width: 656
Flags: HW
LayerCount: 2
Fore
SplineSet
296 614 m 2
 529 614 l 2
 555 614 575 593 575 567 c 2
 575 539 l 2
 575 513 555 493 529 493 c 2
 296 493 l 2
 270 493 250 513 250 539 c 2
 250 567 l 2
 250 593 270 614 296 614 c 2
203 474 m 2
 296 474 l 2
 322 474 343 454 343 428 c 2
 343 400 l 2
 343 374 322 353 296 353 c 2
 203 353 l 2
 177 353 157 374 157 400 c 2
 157 428 l 2
 157 454 177 474 203 474 c 2
110 335 m 2
 529 335 l 2
 555 335 575 314 575 288 c 2
 575 260 l 2
 575 234 555 214 529 214 c 2
 110 214 l 2
 84 214 64 234 64 260 c 2
 64 288 l 2
 64 314 84 335 110 335 c 2
203 195 m 2
 296 195 l 2
 322 195 343 175 343 149 c 2
 343 121 l 2
 343 95 322 74 296 74 c 2
 203 74 l 2
 177 74 157 95 157 121 c 2
 157 149 l 2
 157 175 177 195 203 195 c 2
203 56 m 2
 296 56 l 2
 322 56 343 35 343 9 c 2
 343 -19 l 2
 343 -45 322 -65 296 -65 c 2
 203 -65 l 2
 177 -65 157 -45 157 -19 c 2
 157 9 l 2
 157 35 177 56 203 56 c 2
203 -84 m 2
 296 -84 l 2
 322 -84 343 -104 343 -130 c 2
 343 -158 l 2
 343 -184 322 -205 296 -205 c 2
 203 -205 l 2
 177 -205 157 -184 157 -158 c 2
 157 -130 l 2
 157 -104 177 -84 203 -84 c 2
EndSplineSet
Validated: 1
EndChar

StartChar: g
Encoding: 103 103 42
Width: 740
Flags: HW
LayerCount: 2
Fore
SplineSet
243 335 m 2
 569 335 l 2
 595 335 615 314 615 288 c 2
 615 260 l 2
 615 234 595 214 569 214 c 2
 243 214 l 2
 217 214 197 234 197 260 c 2
 197 288 l 2
 197 314 217 335 243 335 c 2
150 195 m 2
 243 195 l 2
 269 195 290 175 290 149 c 2
 290 121 l 2
 290 95 269 74 243 74 c 2
 150 74 l 2
 124 74 104 95 104 121 c 2
 104 149 l 2
 104 175 124 195 150 195 c 2
476 195 m 2
 569 195 l 2
 595 195 615 175 615 149 c 2
 615 121 l 2
 615 95 595 74 569 74 c 2
 476 74 l 2
 450 74 429 95 429 121 c 2
 429 149 l 2
 429 175 450 195 476 195 c 2
150 56 m 2
 243 56 l 2
 269 56 290 35 290 9 c 2
 290 -19 l 2
 290 -45 269 -65 243 -65 c 2
 150 -65 l 2
 124 -65 104 -45 104 -19 c 2
 104 9 l 2
 104 35 124 56 150 56 c 2
476 56 m 2
 569 56 l 2
 595 56 615 35 615 9 c 2
 615 -19 l 2
 615 -45 595 -65 569 -65 c 2
 476 -65 l 2
 450 -65 429 -45 429 -19 c 2
 429 9 l 2
 429 35 450 56 476 56 c 2
243 -84 m 2
 569 -84 l 2
 595 -84 615 -104 615 -130 c 2
 615 -158 l 2
 615 -184 595 -205 569 -205 c 2
 243 -205 l 2
 217 -205 197 -184 197 -158 c 2
 197 -130 l 2
 197 -104 217 -84 243 -84 c 2
476 -223 m 2
 569 -223 l 2
 595 -223 615 -244 615 -270 c 2
 615 -298 l 2
 615 -324 595 -344 569 -344 c 2
 476 -344 l 2
 450 -344 429 -324 429 -298 c 2
 429 -270 l 2
 429 -244 450 -223 476 -223 c 2
150 -363 m 2
 476 -363 l 2
 502 -363 522 -383 522 -409 c 2
 522 -437 l 2
 522 -463 502 -484 476 -484 c 2
 150 -484 l 2
 124 -484 104 -463 104 -437 c 2
 104 -409 l 2
 104 -383 124 -363 150 -363 c 2
EndSplineSet
Validated: 1
EndChar

StartChar: h
Encoding: 104 104 43
Width: 684
Flags: HW
LayerCount: 2
Fore
SplineSet
138.375976562 594 m 2
 229.125976562 594 l 2
 254.263671875 594 274.5 573.762695312 274.5 548.625 c 2
 274.5 521.399414062 l 2
 274.5 496.262695312 254.263671875 476.025390625 229.125976562 476.025390625 c 2
 138.375976562 476.025390625 l 2
 113.23828125 476.025390625 93 496.262695312 93 521.399414062 c 2
 93 548.625 l 2
 93 573.762695312 113.23828125 594 138.375976562 594 c 2
138.375976562 457.875 m 2
 229.125976562 457.875 l 2
 254.263671875 457.875 274.5 437.638671875 274.5 412.5 c 2
 274.5 385.275390625 l 2
 274.5 360.137695312 254.263671875 339.901367188 229.125976562 339.901367188 c 2
 138.375976562 339.901367188 l 2
 113.23828125 339.901367188 93 360.137695312 93 385.275390625 c 2
 93 412.5 l 2
 93 437.638671875 113.23828125 457.875 138.375976562 457.875 c 2
138.375976562 321.750976562 m 2
 455.999023438 321.750976562 l 2
 481.13671875 321.750976562 501.374023438 301.513671875 501.374023438 276.376953125 c 2
 501.374023438 249.151367188 l 2
 501.374023438 224.013671875 481.13671875 203.776367188 455.999023438 203.776367188 c 2
 138.375976562 203.776367188 l 2
 113.23828125 203.776367188 93 224.013671875 93 249.151367188 c 2
 93 276.376953125 l 2
 93 301.513671875 113.23828125 321.750976562 138.375976562 321.750976562 c 2
138.375976562 185.625976562 m 2
 229.125976562 185.625976562 l 2
 254.263671875 185.625976562 274.5 165.389648438 274.5 140.251953125 c 2
 274.5 113.02734375 l 2
 274.5 87.888671875 254.263671875 67.65234375 229.125976562 67.65234375 c 2
 138.375976562 67.65234375 l 2
 113.23828125 67.65234375 93 87.888671875 93 113.02734375 c 2
 93 140.251953125 l 2
 93 165.389648438 113.23828125 185.625976562 138.375976562 185.625976562 c 2
455.999023438 185.625976562 m 2
 546.749023438 185.625976562 l 2
 571.885742188 185.625976562 592.123046875 165.389648438 592.123046875 140.251953125 c 2
 592.123046875 113.02734375 l 2
 592.123046875 87.888671875 571.885742188 67.65234375 546.749023438 67.65234375 c 2
 455.999023438 67.65234375 l 2
 430.861328125 67.65234375 410.625 87.888671875 410.625 113.02734375 c 2
 410.625 140.251953125 l 2
 410.625 165.389648438 430.861328125 185.625976562 455.999023438 185.625976562 c 2
138.375976562 49.501953125 m 2
 229.125976562 49.501953125 l 2
 254.263671875 49.501953125 274.5 29.2646484375 274.5 4.126953125 c 2
 274.5 -23.09765625 l 2
 274.5 -48.236328125 254.263671875 -68.47265625 229.125976562 -68.47265625 c 2
 138.375976562 -68.47265625 l 2
 113.23828125 -68.47265625 93 -48.236328125 93 -23.09765625 c 2
 93 4.126953125 l 2
 93 29.2646484375 113.23828125 49.501953125 138.375976562 49.501953125 c 2
455.999023438 49.501953125 m 2
 546.749023438 49.501953125 l 2
 571.885742188 49.501953125 592.123046875 29.2646484375 592.123046875 4.126953125 c 2
 592.123046875 -23.09765625 l 2
 592.123046875 -48.236328125 571.885742188 -68.47265625 546.749023438 -68.47265625 c 2
 455.999023438 -68.47265625 l 2
 430.861328125 -68.47265625 410.625 -48.236328125 410.625 -23.09765625 c 2
 410.625 4.126953125 l 2
 410.625 29.2646484375 430.861328125 49.501953125 455.999023438 49.501953125 c 2
138.375976562 -86.623046875 m 2
 229.125976562 -86.623046875 l 2
 254.263671875 -86.623046875 274.5 -106.860351562 274.5 -131.997070312 c 2
 274.5 -159.221679688 l 2
 274.5 -184.360351562 254.263671875 -204.59765625 229.125976562 -204.59765625 c 2
 138.375976562 -204.59765625 l 2
 113.23828125 -204.59765625 93 -184.360351562 93 -159.221679688 c 2
 93 -131.997070312 l 2
 93 -106.860351562 113.23828125 -86.623046875 138.375976562 -86.623046875 c 2
455.999023438 -86.623046875 m 2
 546.749023438 -86.623046875 l 2
 571.885742188 -86.623046875 592.123046875 -106.860351562 592.123046875 -131.997070312 c 2
 592.123046875 -159.221679688 l 2
 592.123046875 -184.360351562 571.885742188 -204.59765625 546.749023438 -204.59765625 c 2
 455.999023438 -204.59765625 l 2
 430.861328125 -204.59765625 410.625 -184.360351562 410.625 -159.221679688 c 2
 410.625 -131.997070312 l 2
 410.625 -106.860351562 430.861328125 -86.623046875 455.999023438 -86.623046875 c 2
EndSplineSet
Validated: 524289
EndChar

StartChar: i
Encoding: 105 105 44
Width: 350
Flags: HW
LayerCount: 2
Fore
SplineSet
130 614 m 2
 223 614 l 2
 249 614 270 593 270 567 c 2
 270 539 l 2
 270 513 249 493 223 493 c 2
 130 493 l 2
 104 493 84 513 84 539 c 2
 84 567 l 2
 84 593 104 614 130 614 c 2
130 335 m 2
 223 335 l 2
 249 335 270 314 270 288 c 2
 270 260 l 2
 270 234 249 214 223 214 c 2
 130 214 l 2
 104 214 84 234 84 260 c 2
 84 288 l 2
 84 314 104 335 130 335 c 2
130 195 m 2
 223 195 l 2
 249 195 270 175 270 149 c 2
 270 121 l 2
 270 95 249 74 223 74 c 2
 130 74 l 2
 104 74 84 95 84 121 c 2
 84 149 l 2
 84 175 104 195 130 195 c 2
130 56 m 2
 223 56 l 2
 249 56 270 35 270 9 c 2
 270 -19 l 2
 270 -45 249 -65 223 -65 c 2
 130 -65 l 2
 104 -65 84 -45 84 -19 c 2
 84 9 l 2
 84 35 104 56 130 56 c 2
130 -84 m 2
 223 -84 l 2
 249 -84 270 -104 270 -130 c 2
 270 -158 l 2
 270 -184 249 -205 223 -205 c 2
 130 -205 l 2
 104 -205 84 -184 84 -158 c 2
 84 -130 l 2
 84 -104 104 -84 130 -84 c 2
EndSplineSet
Validated: 1
EndChar

StartChar: j
Encoding: 106 106 45
Width: 700
Flags: HW
LayerCount: 2
Fore
SplineSet
466 614 m 2
 559 614 l 2
 585 614 605 593 605 567 c 2
 605 539 l 2
 605 513 585 493 559 493 c 2
 466 493 l 2
 440 493 419 513 419 539 c 2
 419 567 l 2
 419 593 440 614 466 614 c 2
466 335 m 2
 559 335 l 2
 585 335 605 314 605 288 c 2
 605 260 l 2
 605 234 585 214 559 214 c 2
 466 214 l 2
 440 214 419 234 419 260 c 2
 419 288 l 2
 419 314 440 335 466 335 c 2
466 195 m 2
 559 195 l 2
 585 195 605 175 605 149 c 2
 605 121 l 2
 605 95 585 74 559 74 c 2
 466 74 l 2
 440 74 419 95 419 121 c 2
 419 149 l 2
 419 175 440 195 466 195 c 2
140 56 m 2
 233 56 l 2
 259 56 280 35 280 9 c 2
 280 -19 l 2
 280 -45 259 -65 233 -65 c 2
 140 -65 l 2
 114 -65 94 -45 94 -19 c 2
 94 9 l 2
 94 35 114 56 140 56 c 2
466 56 m 2
 559 56 l 2
 585 56 605 35 605 9 c 2
 605 -19 l 2
 605 -45 585 -65 559 -65 c 2
 466 -65 l 2
 440 -65 419 -45 419 -19 c 2
 419 9 l 2
 419 35 440 56 466 56 c 2
140 -84 m 2
 559 -84 l 2
 585 -84 605 -104 605 -130 c 2
 605 -158 l 2
 605 -184 585 -205 559 -205 c 2
 140 -205 l 2
 114 -205 94 -184 94 -158 c 2
 94 -130 l 2
 94 -104 114 -84 140 -84 c 2
EndSplineSet
Validated: 1
EndChar

StartChar: k
Encoding: 107 107 46
Width: 670
Flags: HW
LayerCount: 2
Fore
SplineSet
132 474 m 2
 225 474 l 2
 251 474 272 454 272 428 c 2
 272 400 l 2
 272 374 251 353 225 353 c 2
 132 353 l 2
 106 353 86 374 86 400 c 2
 86 428 l 2
 86 454 106 474 132 474 c 2
132 335 m 2
 225 335 l 2
 251 335 272 314 272 288 c 2
 272 260 l 2
 272 234 251 214 225 214 c 2
 132 214 l 2
 106 214 86 234 86 260 c 2
 86 288 l 2
 86 314 106 335 132 335 c 2
374 335 m 2
 467 335 l 2
 493 335 514 314 514 288 c 2
 514 260 l 2
 514 234 493 214 467 214 c 2
 374 214 l 2
 348 214 328 234 328 260 c 2
 328 288 l 2
 328 314 348 335 374 335 c 2
132 195 m 2
 365 195 l 2
 391 195 411 175 411 149 c 2
 411 121 l 2
 411 95 391 74 365 74 c 2
 132 74 l 2
 106 74 86 95 86 121 c 2
 86 149 l 2
 86 175 106 195 132 195 c 2
132 56 m 2
 225 56 l 2
 251 56 272 35 272 9 c 2
 272 -19 l 2
 272 -45 251 -65 225 -65 c 2
 132 -65 l 2
 106 -65 86 -45 86 -19 c 2
 86 9 l 2
 86 35 106 56 132 56 c 2
374 56 m 2
 467 56 l 2
 493 56 514 35 514 9 c 2
 514 -19 l 2
 514 -45 493 -65 467 -65 c 2
 374 -65 l 2
 348 -65 328 -45 328 -19 c 2
 328 9 l 2
 328 35 348 56 374 56 c 2
132 -84 m 2
 225 -84 l 2
 251 -84 272 -104 272 -130 c 2
 272 -158 l 2
 272 -184 251 -205 225 -205 c 2
 132 -205 l 2
 106 -205 86 -184 86 -158 c 2
 86 -130 l 2
 86 -104 106 -84 132 -84 c 2
458 -84 m 2
 551 -84 l 2
 577 -84 597 -104 597 -130 c 2
 597 -158 l 2
 597 -184 577 -205 551 -205 c 2
 458 -205 l 2
 432 -205 411 -184 411 -158 c 2
 411 -130 l 2
 411 -104 432 -84 458 -84 c 2
EndSplineSet
Validated: 1
EndChar

StartChar: l
Encoding: 108 108 47
Width: 375
Flags: HW
LayerCount: 2
Fore
SplineSet
144 614 m 2
 237 614 l 2
 263 614 284 593 284 567 c 2
 284 539 l 2
 284 513 263 493 237 493 c 2
 144 493 l 2
 118 493 98 513 98 539 c 2
 98 567 l 2
 98 593 118 614 144 614 c 2
144 474 m 2
 237 474 l 2
 263 474 284 454 284 428 c 2
 284 400 l 2
 284 374 263 353 237 353 c 2
 144 353 l 2
 118 353 98 374 98 400 c 2
 98 428 l 2
 98 454 118 474 144 474 c 2
144 335 m 2
 237 335 l 2
 263 335 284 314 284 288 c 2
 284 260 l 2
 284 234 263 214 237 214 c 2
 144 214 l 2
 118 214 98 234 98 260 c 2
 98 288 l 2
 98 314 118 335 144 335 c 2
144 195 m 2
 237 195 l 2
 263 195 284 175 284 149 c 2
 284 121 l 2
 284 95 263 74 237 74 c 2
 144 74 l 2
 118 74 98 95 98 121 c 2
 98 149 l 2
 98 175 118 195 144 195 c 2
144 56 m 2
 237 56 l 2
 263 56 284 35 284 9 c 2
 284 -19 l 2
 284 -45 263 -65 237 -65 c 2
 144 -65 l 2
 118 -65 98 -45 98 -19 c 2
 98 9 l 2
 98 35 118 56 144 56 c 2
144 -84 m 2
 237 -84 l 2
 263 -84 284 -104 284 -130 c 2
 284 -158 l 2
 284 -184 263 -205 237 -205 c 2
 144 -205 l 2
 118 -205 98 -184 98 -158 c 2
 98 -130 l 2
 98 -104 118 -84 144 -84 c 2
EndSplineSet
Validated: 1
EndChar

StartChar: m
Encoding: 109 109 48
Width: 1044
Flags: HW
LayerCount: 2
Fore
SplineSet
140 335 m 2
 810 335 l 2
 836 335 857 314 857 288 c 2
 857 260 l 2
 857 234 836 214 810 214 c 2
 140 214 l 2
 114 214 94 234 94 260 c 2
 94 288 l 2
 94 314 114 335 140 335 c 2
140 195 m 2
 233 195 l 2
 259 195 280 175 280 149 c 2
 280 121 l 2
 280 95 259 74 233 74 c 2
 140 74 l 2
 114 74 94 95 94 121 c 2
 94 149 l 2
 94 175 114 195 140 195 c 2
475 195 m 2
 568 195 l 2
 594 195 615 175 615 149 c 2
 615 121 l 2
 615 95 594 74 568 74 c 2
 475 74 l 2
 449 74 429 95 429 121 c 2
 429 149 l 2
 429 175 449 195 475 195 c 2
810 195 m 2
 903 195 l 2
 929 195 950 175 950 149 c 2
 950 121 l 2
 950 95 929 74 903 74 c 2
 810 74 l 2
 784 74 764 95 764 121 c 2
 764 149 l 2
 764 175 784 195 810 195 c 2
140 56 m 2
 233 56 l 2
 259 56 280 35 280 9 c 2
 280 -19 l 2
 280 -45 259 -65 233 -65 c 2
 140 -65 l 2
 114 -65 94 -45 94 -19 c 2
 94 9 l 2
 94 35 114 56 140 56 c 2
475 56 m 2
 568 56 l 2
 594 56 615 35 615 9 c 2
 615 -19 l 2
 615 -45 594 -65 568 -65 c 2
 475 -65 l 2
 449 -65 429 -45 429 -19 c 2
 429 9 l 2
 429 35 449 56 475 56 c 2
810 56 m 2
 903 56 l 2
 929 56 950 35 950 9 c 2
 950 -19 l 2
 950 -45 929 -65 903 -65 c 2
 810 -65 l 2
 784 -65 764 -45 764 -19 c 2
 764 9 l 2
 764 35 784 56 810 56 c 2
140 -84 m 2
 233 -84 l 2
 259 -84 280 -104 280 -130 c 2
 280 -158 l 2
 280 -184 259 -205 233 -205 c 2
 140 -205 l 2
 114 -205 94 -184 94 -158 c 2
 94 -130 l 2
 94 -104 114 -84 140 -84 c 2
475 -84 m 2
 568 -84 l 2
 594 -84 615 -104 615 -130 c 2
 615 -158 l 2
 615 -184 594 -205 568 -205 c 2
 475 -205 l 2
 449 -205 429 -184 429 -158 c 2
 429 -130 l 2
 429 -104 449 -84 475 -84 c 2
810 -84 m 2
 903 -84 l 2
 929 -84 950 -104 950 -130 c 2
 950 -158 l 2
 950 -184 929 -205 903 -205 c 2
 810 -205 l 2
 784 -205 764 -184 764 -158 c 2
 764 -130 l 2
 764 -104 784 -84 810 -84 c 2
EndSplineSet
Validated: 1
EndChar

StartChar: n
Encoding: 110 110 49
Width: 698
Flags: HW
LayerCount: 2
Fore
SplineSet
132 337 m 2
 458 337 l 2
 484 337 504 316 504 290 c 2
 504 262 l 2
 504 236 484 216 458 216 c 2
 132 216 l 2
 106 216 86 236 86 262 c 2
 86 290 l 2
 86 316 106 337 132 337 c 2
132 197 m 2
 225 197 l 2
 251 197 272 177 272 151 c 2
 272 123 l 2
 272 97 251 76 225 76 c 2
 132 76 l 2
 106 76 86 97 86 123 c 2
 86 151 l 2
 86 177 106 197 132 197 c 2
467 197 m 2
 560 197 l 2
 586 197 607 177 607 151 c 2
 607 123 l 2
 607 97 586 76 560 76 c 2
 467 76 l 2
 441 76 421 97 421 123 c 2
 421 151 l 2
 421 177 441 197 467 197 c 2
132 58 m 2
 225 58 l 2
 251 58 272 37 272 11 c 2
 272 -17 l 2
 272 -43 251 -63 225 -63 c 2
 132 -63 l 2
 106 -63 86 -43 86 -17 c 2
 86 11 l 2
 86 37 106 58 132 58 c 2
467 58 m 2
 560 58 l 2
 586 58 607 37 607 11 c 2
 607 -17 l 2
 607 -43 586 -63 560 -63 c 2
 467 -63 l 2
 441 -63 421 -43 421 -17 c 2
 421 11 l 2
 421 37 441 58 467 58 c 2
132 -82 m 2
 225 -82 l 2
 251 -82 272 -102 272 -128 c 2
 272 -156 l 2
 272 -182 251 -203 225 -203 c 2
 132 -203 l 2
 106 -203 86 -182 86 -156 c 2
 86 -128 l 2
 86 -102 106 -82 132 -82 c 2
467 -82 m 2
 560 -82 l 2
 586 -82 607 -102 607 -128 c 2
 607 -156 l 2
 607 -182 586 -203 560 -203 c 2
 467 -203 l 2
 441 -203 421 -182 421 -156 c 2
 421 -128 l 2
 421 -102 441 -82 467 -82 c 2
EndSplineSet
Validated: 1
EndChar

StartChar: o
Encoding: 111 111 50
Width: 666
Flags: HW
LayerCount: 2
Fore
SplineSet
118 335 m 2
 537 335 l 2
 563 335 583 314 583 288 c 2
 583 260 l 2
 583 234 563 214 537 214 c 2
 118 214 l 2
 92 214 72 234 72 260 c 2
 72 288 l 2
 72 314 92 335 118 335 c 2
118 195 m 2
 211 195 l 2
 237 195 258 175 258 149 c 2
 258 121 l 2
 258 95 237 74 211 74 c 2
 118 74 l 2
 92 74 72 95 72 121 c 2
 72 149 l 2
 72 175 92 195 118 195 c 2
444 195 m 2
 537 195 l 2
 563 195 583 175 583 149 c 2
 583 121 l 2
 583 95 563 74 537 74 c 2
 444 74 l 2
 418 74 397 95 397 121 c 2
 397 149 l 2
 397 175 418 195 444 195 c 2
118 56 m 2
 211 56 l 2
 237 56 258 35 258 9 c 2
 258 -19 l 2
 258 -45 237 -65 211 -65 c 2
 118 -65 l 2
 92 -65 72 -45 72 -19 c 2
 72 9 l 2
 72 35 92 56 118 56 c 2
444 56 m 2
 537 56 l 2
 563 56 583 35 583 9 c 2
 583 -19 l 2
 583 -45 563 -65 537 -65 c 2
 444 -65 l 2
 418 -65 397 -45 397 -19 c 2
 397 9 l 2
 397 35 418 56 444 56 c 2
118 -84 m 2
 537 -84 l 2
 563 -84 583 -104 583 -130 c 2
 583 -158 l 2
 583 -184 563 -205 537 -205 c 2
 118 -205 l 2
 92 -205 72 -184 72 -158 c 2
 72 -130 l 2
 72 -104 92 -84 118 -84 c 2
EndSplineSet
Validated: 1
EndChar

StartChar: p
Encoding: 112 112 51
Width: 702
Flags: HW
LayerCount: 2
Fore
SplineSet
138 335 m 2
 464 335 l 2
 490 335 510 315 510 289 c 2
 510 261 l 2
 510 235 490 214 464 214 c 2
 138 214 l 2
 112 214 92 235 92 261 c 2
 92 289 l 2
 92 315 112 335 138 335 c 2
138 196 m 2
 231 196 l 2
 257 196 278 175 278 149 c 2
 278 121 l 2
 278 95 257 75 231 75 c 2
 138 75 l 2
 112 75 92 95 92 121 c 2
 92 149 l 2
 92 175 112 196 138 196 c 2
464 196 m 2
 557 196 l 2
 583 196 603 175 603 149 c 2
 603 121 l 2
 603 95 583 75 557 75 c 2
 464 75 l 2
 438 75 417 95 417 121 c 2
 417 149 l 2
 417 175 438 196 464 196 c 2
138 56 m 2
 231 56 l 2
 257 56 278 36 278 10 c 2
 278 -18 l 2
 278 -44 257 -65 231 -65 c 2
 138 -65 l 2
 112 -65 92 -44 92 -18 c 2
 92 10 l 2
 92 36 112 56 138 56 c 2
464 56 m 2
 557 56 l 2
 583 56 603 36 603 10 c 2
 603 -18 l 2
 603 -44 583 -65 557 -65 c 2
 464 -65 l 2
 438 -65 417 -44 417 -18 c 2
 417 10 l 2
 417 36 438 56 464 56 c 2
138 -83 m 2
 464 -83 l 2
 490 -83 510 -104 510 -130 c 2
 510 -158 l 2
 510 -184 490 -204 464 -204 c 2
 138 -204 l 2
 112 -204 92 -184 92 -158 c 2
 92 -130 l 2
 92 -104 112 -83 138 -83 c 2
138 -223 m 2
 231 -223 l 2
 257 -223 278 -243 278 -269 c 2
 278 -297 l 2
 278 -323 257 -344 231 -344 c 2
 138 -344 l 2
 112 -344 92 -323 92 -297 c 2
 92 -269 l 2
 92 -243 112 -223 138 -223 c 2
138 -362 m 2
 231 -362 l 2
 257 -362 278 -383 278 -409 c 2
 278 -437 l 2
 278 -463 257 -483 231 -483 c 2
 138 -483 l 2
 112 -483 92 -463 92 -437 c 2
 92 -409 l 2
 92 -383 112 -362 138 -362 c 2
EndSplineSet
Validated: 1
EndChar

StartChar: q
Encoding: 113 113 52
Width: 709
Flags: HW
LayerCount: 2
Fore
SplineSet
233 335 m 2
 559 335 l 2
 585 335 605 315 605 289 c 2
 605 261 l 2
 605 235 585 214 559 214 c 2
 233 214 l 2
 207 214 187 235 187 261 c 2
 187 289 l 2
 187 315 207 335 233 335 c 2
140 196 m 2
 233 196 l 2
 259 196 280 175 280 149 c 2
 280 121 l 2
 280 95 259 75 233 75 c 2
 140 75 l 2
 114 75 94 95 94 121 c 2
 94 149 l 2
 94 175 114 196 140 196 c 2
466 196 m 2
 559 196 l 2
 585 196 605 175 605 149 c 2
 605 121 l 2
 605 95 585 75 559 75 c 2
 466 75 l 2
 440 75 419 95 419 121 c 2
 419 149 l 2
 419 175 440 196 466 196 c 2
140 56 m 2
 233 56 l 2
 259 56 280 36 280 10 c 2
 280 -18 l 2
 280 -44 259 -65 233 -65 c 2
 140 -65 l 2
 114 -65 94 -44 94 -18 c 2
 94 10 l 2
 94 36 114 56 140 56 c 2
466 56 m 2
 559 56 l 2
 585 56 605 36 605 10 c 2
 605 -18 l 2
 605 -44 585 -65 559 -65 c 2
 466 -65 l 2
 440 -65 419 -44 419 -18 c 2
 419 10 l 2
 419 36 440 56 466 56 c 2
233 -83 m 2
 559 -83 l 2
 585 -83 605 -104 605 -130 c 2
 605 -158 l 2
 605 -184 585 -204 559 -204 c 2
 233 -204 l 2
 207 -204 187 -184 187 -158 c 2
 187 -130 l 2
 187 -104 207 -83 233 -83 c 2
466 -223 m 2
 559 -223 l 2
 585 -223 605 -243 605 -269 c 2
 605 -297 l 2
 605 -323 585 -344 559 -344 c 2
 466 -344 l 2
 440 -344 419 -323 419 -297 c 2
 419 -269 l 2
 419 -243 440 -223 466 -223 c 2
466 -362 m 2
 559 -362 l 2
 585 -362 605 -383 605 -409 c 2
 605 -437 l 2
 605 -463 585 -483 559 -483 c 2
 466 -483 l 2
 440 -483 419 -463 419 -437 c 2
 419 -409 l 2
 419 -383 440 -362 466 -362 c 2
EndSplineSet
Validated: 1
EndChar

StartChar: r
Encoding: 114 114 53
Width: 670
Flags: HW
LayerCount: 2
Fore
SplineSet
132 335 m 2
 458 335 l 2
 484 335 504 314 504 288 c 2
 504 260 l 2
 504 234 484 214 458 214 c 2
 132 214 l 2
 106 214 86 234 86 260 c 2
 86 288 l 2
 86 314 106 335 132 335 c 2
132 195 m 2
 225 195 l 2
 251 195 272 175 272 149 c 2
 272 121 l 2
 272 95 251 74 225 74 c 2
 132 74 l 2
 106 74 86 95 86 121 c 2
 86 149 l 2
 86 175 106 195 132 195 c 2
458 195 m 2
 551 195 l 2
 577 195 597 175 597 149 c 2
 597 121 l 2
 597 95 577 74 551 74 c 2
 458 74 l 2
 432 74 411 95 411 121 c 2
 411 149 l 2
 411 175 432 195 458 195 c 2
132 56 m 2
 225 56 l 2
 251 56 272 35 272 9 c 2
 272 -19 l 2
 272 -45 251 -65 225 -65 c 2
 132 -65 l 2
 106 -65 86 -45 86 -19 c 2
 86 9 l 2
 86 35 106 56 132 56 c 2
132 -84 m 2
 225 -84 l 2
 251 -84 272 -104 272 -130 c 2
 272 -158 l 2
 272 -184 251 -205 225 -205 c 2
 132 -205 l 2
 106 -205 86 -184 86 -158 c 2
 86 -130 l 2
 86 -104 106 -84 132 -84 c 2
EndSplineSet
Validated: 1
EndChar

StartChar: s
Encoding: 115 115 54
Width: 656
Flags: HW
LayerCount: 2
Fore
SplineSet
207 344 m 2
 533 344 l 2
 559 344 579 323 579 297 c 2
 579 269 l 2
 579 243 559 223 533 223 c 2
 207 223 l 2
 181 223 161 243 161 269 c 2
 161 297 l 2
 161 323 181 344 207 344 c 2
101 237 m 2
 138 237 l 2
 156 237 170 222 170 204 c 2
 170 149 l 2
 170 131 156 116 138 116 c 2
 101 116 l 2
 83 116 68 131 68 149 c 2
 68 204 l 2
 68 222 83 237 101 237 c 2
207 130 m 2
 440 130 l 2
 466 130 486 109 486 83 c 2
 486 56 l 2
 486 30 466 9 440 9 c 2
 207 9 l 2
 181 9 161 30 161 56 c 2
 161 83 l 2
 161 109 181 130 207 130 c 2
510 23 m 2
 547 23 l 2
 565 23 579 8 579 -10 c 2
 579 -65 l 2
 579 -83 565 -98 547 -98 c 2
 510 -98 l 2
 492 -98 477 -83 477 -65 c 2
 477 -10 l 2
 477 8 492 23 510 23 c 2
114 -84 m 2
 440 -84 l 2
 466 -84 486 -104 486 -130 c 2
 486 -158 l 2
 486 -184 466 -205 440 -205 c 2
 114 -205 l 2
 88 -205 68 -184 68 -158 c 2
 68 -130 l 2
 68 -104 88 -84 114 -84 c 2
EndSplineSet
Validated: 1
EndChar

StartChar: t
Encoding: 116 116 55
Width: 548
Flags: HW
LayerCount: 2
Fore
SplineSet
164 614 m 2
 257 614 l 2
 283 614 303 593 303 567 c 2
 303 539 l 2
 303 513 283 493 257 493 c 2
 164 493 l 2
 138 493 117 513 117 539 c 2
 117 567 l 2
 117 593 138 614 164 614 c 2
164 474 m 2
 257 474 l 2
 283 474 303 454 303 428 c 2
 303 400 l 2
 303 374 283 353 257 353 c 2
 164 353 l 2
 138 353 117 374 117 400 c 2
 117 428 l 2
 117 454 138 474 164 474 c 2
98 335 m 2
 424 335 l 2
 450 335 470 314 470 288 c 2
 470 260 l 2
 470 234 450 214 424 214 c 2
 98 214 l 2
 72 214 52 234 52 260 c 2
 52 288 l 2
 52 314 72 335 98 335 c 2
164 195 m 2
 257 195 l 2
 283 195 303 175 303 149 c 2
 303 121 l 2
 303 95 283 74 257 74 c 2
 164 74 l 2
 138 74 117 95 117 121 c 2
 117 149 l 2
 117 175 138 195 164 195 c 2
164 56 m 2
 257 56 l 2
 283 56 303 35 303 9 c 2
 303 -19 l 2
 303 -45 283 -65 257 -65 c 2
 164 -65 l 2
 138 -65 117 -45 117 -19 c 2
 117 9 l 2
 117 35 138 56 164 56 c 2
257 -84 m 2
 424 -84 l 2
 450 -84 470 -104 470 -130 c 2
 470 -158 l 2
 470 -184 450 -205 424 -205 c 2
 257 -205 l 2
 231 -205 210 -184 210 -158 c 2
 210 -130 l 2
 210 -104 231 -84 257 -84 c 2
EndSplineSet
Validated: 1
EndChar

StartChar: u
Encoding: 117 117 56
Width: 702
Flags: HW
LayerCount: 2
Fore
SplineSet
136 334 m 2
 229 334 l 2
 255 334 276 313 276 287 c 2
 276 259 l 2
 276 233 255 213 229 213 c 2
 136 213 l 2
 110 213 90 233 90 259 c 2
 90 287 l 2
 90 313 110 334 136 334 c 2
462 334 m 2
 555 334 l 2
 581 334 601 313 601 287 c 2
 601 259 l 2
 601 233 581 213 555 213 c 2
 462 213 l 2
 436 213 415 233 415 259 c 2
 415 287 l 2
 415 313 436 334 462 334 c 2
136 194 m 2
 229 194 l 2
 255 194 276 174 276 148 c 2
 276 120 l 2
 276 94 255 73 229 73 c 2
 136 73 l 2
 110 73 90 94 90 120 c 2
 90 148 l 2
 90 174 110 194 136 194 c 2
462 194 m 2
 555 194 l 2
 581 194 601 174 601 148 c 2
 601 120 l 2
 601 94 581 73 555 73 c 2
 462 73 l 2
 436 73 415 94 415 120 c 2
 415 148 l 2
 415 174 436 194 462 194 c 2
136 55 m 2
 229 55 l 2
 255 55 276 34 276 8 c 2
 276 -20 l 2
 276 -46 255 -66 229 -66 c 2
 136 -66 l 2
 110 -66 90 -46 90 -20 c 2
 90 8 l 2
 90 34 110 55 136 55 c 2
462 55 m 2
 555 55 l 2
 581 55 601 34 601 8 c 2
 601 -20 l 2
 601 -46 581 -66 555 -66 c 2
 462 -66 l 2
 436 -66 415 -46 415 -20 c 2
 415 8 l 2
 415 34 436 55 462 55 c 2
136 -85 m 2
 555 -85 l 2
 581 -85 601 -105 601 -131 c 2
 601 -159 l 2
 601 -185 581 -206 555 -206 c 2
 136 -206 l 2
 110 -206 90 -185 90 -159 c 2
 90 -131 l 2
 90 -105 110 -85 136 -85 c 2
EndSplineSet
Validated: 1
EndChar

StartChar: v
Encoding: 118 118 57
Width: 715
Flags: HW
LayerCount: 2
Fore
SplineSet
114 335 m 2
 207 335 l 2
 233 335 254 314 254 288 c 2
 254 260 l 2
 254 234 233 214 207 214 c 2
 114 214 l 2
 88 214 68 234 68 260 c 2
 68 288 l 2
 68 314 88 335 114 335 c 2
496 335 m 2
 589 335 l 2
 615 335 635 314 635 288 c 2
 635 260 l 2
 635 234 615 214 589 214 c 2
 496 214 l 2
 470 214 449 234 449 260 c 2
 449 288 l 2
 449 314 470 335 496 335 c 2
161 195 m 2
 254 195 l 2
 280 195 300 175 300 149 c 2
 300 121 l 2
 300 95 280 74 254 74 c 2
 161 74 l 2
 135 74 114 95 114 121 c 2
 114 149 l 2
 114 175 135 195 161 195 c 2
440 195 m 2
 533 195 l 2
 559 195 579 175 579 149 c 2
 579 121 l 2
 579 95 559 74 533 74 c 2
 440 74 l 2
 414 74 393 95 393 121 c 2
 393 149 l 2
 393 175 414 195 440 195 c 2
207 56 m 2
 486 56 l 2
 512 56 533 35 533 9 c 2
 533 -19 l 2
 533 -45 512 -65 486 -65 c 2
 207 -65 l 2
 181 -65 161 -45 161 -19 c 2
 161 9 l 2
 161 35 181 56 207 56 c 2
300 -84 m 2
 393 -84 l 2
 419 -84 440 -104 440 -130 c 2
 440 -158 l 2
 440 -184 419 -205 393 -205 c 2
 300 -205 l 2
 274 -205 254 -184 254 -158 c 2
 254 -130 l 2
 254 -104 274 -84 300 -84 c 2
EndSplineSet
Validated: 1
EndChar

StartChar: w
Encoding: 119 119 58
Width: 1048
Flags: HW
LayerCount: 2
Fore
SplineSet
140 336 m 2
 233 336 l 2
 259 336 280 315 280 289 c 2
 280 261 l 2
 280 235 259 215 233 215 c 2
 140 215 l 2
 114 215 94 235 94 261 c 2
 94 289 l 2
 94 315 114 336 140 336 c 2
475 336 m 2
 568 336 l 2
 594 336 615 315 615 289 c 2
 615 261 l 2
 615 235 594 215 568 215 c 2
 475 215 l 2
 449 215 429 235 429 261 c 2
 429 289 l 2
 429 315 449 336 475 336 c 2
810 336 m 2
 903 336 l 2
 929 336 950 315 950 289 c 2
 950 261 l 2
 950 235 929 215 903 215 c 2
 810 215 l 2
 784 215 764 235 764 261 c 2
 764 289 l 2
 764 315 784 336 810 336 c 2
140 196 m 2
 233 196 l 2
 259 196 280 176 280 150 c 2
 280 122 l 2
 280 96 259 75 233 75 c 2
 140 75 l 2
 114 75 94 96 94 122 c 2
 94 150 l 2
 94 176 114 196 140 196 c 2
475 196 m 2
 568 196 l 2
 594 196 615 176 615 150 c 2
 615 122 l 2
 615 96 594 75 568 75 c 2
 475 75 l 2
 449 75 429 96 429 122 c 2
 429 150 l 2
 429 176 449 196 475 196 c 2
810 196 m 2
 903 196 l 2
 929 196 950 176 950 150 c 2
 950 122 l 2
 950 96 929 75 903 75 c 2
 810 75 l 2
 784 75 764 96 764 122 c 2
 764 150 l 2
 764 176 784 196 810 196 c 2
140 57 m 2
 233 57 l 2
 259 57 280 36 280 10 c 2
 280 -18 l 2
 280 -44 259 -64 233 -64 c 2
 140 -64 l 2
 114 -64 94 -44 94 -18 c 2
 94 10 l 2
 94 36 114 57 140 57 c 2
475 57 m 2
 568 57 l 2
 594 57 615 36 615 10 c 2
 615 -18 l 2
 615 -44 594 -64 568 -64 c 2
 475 -64 l 2
 449 -64 429 -44 429 -18 c 2
 429 10 l 2
 429 36 449 57 475 57 c 2
810 57 m 2
 903 57 l 2
 929 57 950 36 950 10 c 2
 950 -18 l 2
 950 -44 929 -64 903 -64 c 2
 810 -64 l 2
 784 -64 764 -44 764 -18 c 2
 764 10 l 2
 764 36 784 57 810 57 c 2
233 -83 m 2
 466 -83 l 2
 492 -83 512 -103 512 -129 c 2
 512 -157 l 2
 512 -183 492 -204 466 -204 c 2
 233 -204 l 2
 207 -204 187 -183 187 -157 c 2
 187 -129 l 2
 187 -103 207 -83 233 -83 c 2
578 -83 m 2
 810 -83 l 2
 836 -83 857 -103 857 -129 c 2
 857 -157 l 2
 857 -183 836 -204 810 -204 c 2
 578 -204 l 2
 552 -204 531 -183 531 -157 c 2
 531 -129 l 2
 531 -103 552 -83 578 -83 c 2
EndSplineSet
Validated: 1
EndChar

StartChar: x
Encoding: 120 120 59
Width: 656
Flags: HW
LayerCount: 2
Fore
SplineSet
521 -84 m 2
 547 -84 568 -104 568 -130 c 2
 568 -158 l 2
 568 -184 547 -205 521 -205 c 2
 428 -205 l 2
 402 -205 382 -184 382 -158 c 2
 382 -130 l 2
 382 -104 402 -84 428 -84 c 2
 521 -84 l 2
270 195 m 2
 296 195 316 175 316 149 c 2
 316 121 l 2
 316 95 296 74 270 74 c 2
 196 74 l 2
 170 74 149 95 149 121 c 2
 149 149 l 2
 149 175 170 195 196 195 c 2
 270 195 l 2
456 195 m 2
 482 195 502 175 502 149 c 2
 502 121 l 2
 502 95 482 74 456 74 c 2
 382 74 l 2
 356 74 335 95 335 121 c 2
 335 149 l 2
 335 175 356 195 382 195 c 2
 456 195 l 2
456 56 m 2
 482 56 502 35 502 9 c 2
 502 -19 l 2
 502 -45 482 -65 456 -65 c 2
 382 -65 l 2
 356 -65 335 -45 335 -19 c 2
 335 9 l 2
 335 35 356 56 382 56 c 2
 456 56 l 2
270 56 m 2
 296 56 316 35 316 9 c 2
 316 -19 l 2
 316 -45 296 -65 270 -65 c 2
 196 -65 l 2
 170 -65 149 -45 149 -19 c 2
 149 9 l 2
 149 35 170 56 196 56 c 2
 270 56 l 2
223 335 m 2
 249 335 270 314 270 288 c 2
 270 260 l 2
 270 234 249 214 223 214 c 2
 130 214 l 2
 104 214 84 234 84 260 c 2
 84 288 l 2
 84 314 104 335 130 335 c 2
 223 335 l 2
521 335 m 2
 547 335 568 314 568 288 c 2
 568 260 l 2
 568 234 547 214 521 214 c 2
 428 214 l 2
 402 214 382 234 382 260 c 2
 382 288 l 2
 382 314 402 335 428 335 c 2
 521 335 l 2
223 -84 m 2
 249 -84 270 -104 270 -130 c 2
 270 -158 l 2
 270 -184 249 -205 223 -205 c 2
 130 -205 l 2
 104 -205 84 -184 84 -158 c 2
 84 -130 l 2
 84 -104 104 -84 130 -84 c 2
 223 -84 l 2
EndSplineSet
Validated: 1
EndChar

StartChar: y
Encoding: 121 121 60
Width: 653
Flags: HW
LayerCount: 2
Fore
SplineSet
124 335 m 2
 217 335 l 2
 243 335 264 314 264 288 c 2
 264 260 l 2
 264 234 243 214 217 214 c 2
 124 214 l 2
 98 214 78 234 78 260 c 2
 78 288 l 2
 78 314 98 335 124 335 c 2
441 335 m 2
 534 335 l 2
 560 335 580 314 580 288 c 2
 580 260 l 2
 580 234 560 214 534 214 c 2
 441 214 l 2
 415 214 394 234 394 260 c 2
 394 288 l 2
 394 314 415 335 441 335 c 2
171 195 m 2
 264 195 l 2
 290 195 310 175 310 149 c 2
 310 121 l 2
 310 95 290 74 264 74 c 2
 171 74 l 2
 145 74 124 95 124 121 c 2
 124 149 l 2
 124 175 145 195 171 195 c 2
394 195 m 2
 487 195 l 2
 513 195 534 175 534 149 c 2
 534 121 l 2
 534 95 513 74 487 74 c 2
 394 74 l 2
 368 74 348 95 348 121 c 2
 348 149 l 2
 348 175 368 195 394 195 c 2
292 56 m 2
 385 56 l 2
 411 56 431 35 431 9 c 2
 431 -19 l 2
 431 -45 411 -65 385 -65 c 2
 292 -65 l 2
 266 -65 245 -45 245 -19 c 2
 245 9 l 2
 245 35 266 56 292 56 c 2
199 -84 m 2
 292 -84 l 2
 318 -84 338 -104 338 -130 c 2
 338 -158 l 2
 338 -184 318 -205 292 -205 c 2
 199 -205 l 2
 173 -205 152 -184 152 -158 c 2
 152 -130 l 2
 152 -104 173 -84 199 -84 c 2
EndSplineSet
Validated: 1
EndChar

StartChar: z
Encoding: 122 122 61
Width: 670
Flags: HW
LayerCount: 2
Fore
SplineSet
122 335 m 2
 541 335 l 2
 567 335 587 314 587 288 c 2
 587 260 l 2
 587 234 567 214 541 214 c 2
 122 214 l 2
 96 214 76 234 76 260 c 2
 76 288 l 2
 76 314 96 335 122 335 c 2
355 195 m 2
 448 195 l 2
 474 195 494 175 494 149 c 2
 494 121 l 2
 494 95 474 74 448 74 c 2
 355 74 l 2
 329 74 308 95 308 121 c 2
 308 149 l 2
 308 175 329 195 355 195 c 2
206 56 m 2
 299 56 l 2
 325 56 346 35 346 9 c 2
 346 -19 l 2
 346 -45 325 -65 299 -65 c 2
 206 -65 l 2
 180 -65 160 -45 160 -19 c 2
 160 9 l 2
 160 35 180 56 206 56 c 2
122 -84 m 2
 541 -84 l 2
 567 -84 587 -104 587 -130 c 2
 587 -158 l 2
 587 -184 567 -205 541 -205 c 2
 122 -205 l 2
 96 -205 76 -184 76 -158 c 2
 76 -130 l 2
 76 -104 96 -84 122 -84 c 2
EndSplineSet
Validated: 1
EndChar

StartChar: braceleft
Encoding: 123 123 62
Width: 465
Flags: HW
LayerCount: 2
Fore
SplineSet
203 610 m 2
 342 610 l 2
 368 610 388 590 388 564 c 2
 388 536 l 2
 388 510 368 490 342 490 c 2
 203 490 l 2
 177 490 157 510 157 536 c 2
 157 564 l 2
 157 590 177 610 203 610 c 2
175 471 m 2
 268 471 l 2
 294 471 314 451 314 425 c 2
 314 397 l 2
 314 371 294 351 268 351 c 2
 175 351 l 2
 149 351 129 371 129 397 c 2
 129 425 l 2
 129 451 149 471 175 471 c 2
194 333 m 2
 286 333 l 2
 312 333 333 312 333 286 c 2
 333 259 l 2
 333 233 312 212 286 212 c 2
 194 212 l 2
 168 212 148 233 148 259 c 2
 148 286 l 2
 148 312 168 333 194 333 c 2
78 268 m 2
 97 268 l 2
 115 268 129 253 129 235 c 2
 129 180 l 2
 129 162 115 148 97 148 c 2
 78 148 l 2
 60 148 46 162 46 180 c 2
 46 235 l 2
 46 253 60 268 78 268 c 2
194 194 m 2
 286 194 l 2
 312 194 333 174 333 148 c 2
 333 120 l 2
 333 94 312 74 286 74 c 2
 194 74 l 2
 168 74 148 94 148 120 c 2
 148 148 l 2
 148 174 168 194 194 194 c 2
175 55 m 2
 268 55 l 2
 294 55 314 35 314 9 c 2
 314 -19 l 2
 314 -45 294 -65 268 -65 c 2
 175 -65 l 2
 149 -65 129 -45 129 -19 c 2
 129 9 l 2
 129 35 149 55 175 55 c 2
203 -84 m 2
 342 -84 l 2
 368 -84 388 -104 388 -130 c 2
 388 -158 l 2
 388 -184 368 -204 342 -204 c 2
 203 -204 l 2
 177 -204 157 -184 157 -158 c 2
 157 -130 l 2
 157 -104 177 -84 203 -84 c 2
EndSplineSet
Validated: 1
EndChar

StartChar: colon
Encoding: 58 58 63
Width: 270
Flags: HW
LayerCount: 2
Fore
SplineSet
116 389 m 2
 144 389 l 2
 170 389 190 368 190 342 c 2
 190 315 l 2
 190 289 170 268 144 268 c 2
 116 268 l 2
 90 268 70 289 70 315 c 2
 70 342 l 2
 70 368 90 389 116 389 c 2
116 -83 m 2
 144 -83 l 2
 170 -83 190 -103 190 -129 c 2
 190 -157 l 2
 190 -183 170 -203 144 -203 c 2
 116 -203 l 2
 90 -203 70 -183 70 -157 c 2
 70 -129 l 2
 70 -103 90 -83 116 -83 c 2
EndSplineSet
Validated: 1
EndChar

StartChar: semicolon
Encoding: 59 59 64
Width: 269
Flags: HW
LayerCount: 2
Fore
SplineSet
126 111 m 2
 154 111 l 2
 180 111 200 91 200 65 c 2
 200 37 l 2
 200 11 180 -9 154 -9 c 2
 126 -9 l 2
 100 -9 80 11 80 37 c 2
 80 65 l 2
 80 91 100 111 126 111 c 2
124 -85 m 2
 152 -85 l 2
 178 -85 198 -105 198 -131 c 2
 198 -159 l 2
 198 -185 178 -205 152 -205 c 2
 124 -205 l 2
 98 -205 78 -185 78 -159 c 2
 78 -131 l 2
 78 -105 98 -85 124 -85 c 2
69 -214 m 2
 97 -214 l 2
 117 -214 134 -231 134 -251 c 2
 134 -298 l 2
 134 -318 117 -335 97 -335 c 2
 69 -335 l 2
 49 -335 32 -318 32 -298 c 2
 32 -251 l 2
 32 -231 49 -214 69 -214 c 2
EndSplineSet
EndChar

StartChar: less
Encoding: 60 60 65
Width: 774
Flags: HW
LayerCount: 2
Fore
SplineSet
576 489 m 2
 604 489 l 2
 630 489 650 469 650 443 c 2
 650 350 l 2
 650 324 630 304 604 304 c 2
 576 304 l 2
 550 304 530 324 530 350 c 2
 530 443 l 2
 530 469 550 489 576 489 c 2
438 443 m 2
 465 443 l 2
 491 443 512 423 512 397 c 2
 512 304 l 2
 512 278 491 258 465 258 c 2
 438 258 l 2
 412 258 391 278 391 304 c 2
 391 397 l 2
 391 423 412 443 438 443 c 2
299 397 m 2
 327 397 l 2
 353 397 373 376 373 350 c 2
 373 73 l 2
 373 47 362 27 327 27 c 2
 299 27 l 2
 273 27 253 47 253 73 c 2
 253 350 l 2
 253 376 273 397 299 397 c 2
160 304 m 2
 188 304 l 2
 214 304 234 284 234 258 c 2
 234 166 l 2
 234 140 209 119 188 119 c 2
 160 119 l 2
 134 119 114 140 114 166 c 2
 114 258 l 2
 114 284 134 304 160 304 c 2
438 166 m 2
 465 166 l 2
 491 166 512 145 512 119 c 2
 512 27 l 2
 512 1 491 -19 465 -19 c 2
 438 -19 l 2
 412 -19 391 1 391 27 c 2
 391 119 l 2
 391 145 412 166 438 166 c 2
576 110 m 2
 604 110 l 2
 630 110 650 90 650 64 c 2
 650 -29 l 2
 650 -55 630 -75 604 -75 c 2
 576 -75 l 2
 550 -75 530 -55 530 -29 c 2
 530 64 l 2
 530 90 550 110 576 110 c 2
EndSplineSet
EndChar

StartChar: greater
Encoding: 62 62 66
Width: 776
Flags: HW
HStem: 255 185<119 226> 311 185<257 364> 449 185<535 642> 588 185<257 364> 634 185<119 226>
VStem: 112 120<262 433 641 813> 251 120<317 489 595 766> 389 120<364 720> 528 120<456 628>
LayerCount: 2
Fore
SplineSet
158 499 m 2x0f80
 186 499 l 2x0f80
 212 499 232 479 232 453 c 2x1780
 232 360 l 2
 232 334 212 314 186 314 c 2
 158 314 l 2x0f80
 132 314 112 334 112 360 c 2
 112 453 l 2x1780
 112 479 132 499 158 499 c 2x0f80
297 453 m 2x1780
 325 453 l 2x1780
 351 453 371 433 371 407 c 2
 371 314 l 2x0f80
 371 288 351 268 325 268 c 2
 297 268 l 2x1780
 271 268 251 288 251 314 c 2x0f80
 251 407 l 2
 251 433 271 453 297 453 c 2x1780
436 407 m 2
 463 407 l 2
 489 407 510 386 510 360 c 2
 510 83 l 2
 510 57 489 37 463 37 c 2
 436 37 l 2
 410 37 389 57 389 83 c 2
 389 360 l 2
 389 386 410 407 436 407 c 2
574 314 m 2x2780
 602 314 l 2x2780
 628 314 648 294 648 268 c 2
 648 176 l 2x4780
 648 150 628 129 602 129 c 2
 574 129 l 2x2780
 548 129 528 150 528 176 c 2x4780
 528 268 l 2
 528 294 548 314 574 314 c 2x2780
297 176 m 2x4780
 325 176 l 2
 351 176 371 155 371 129 c 2
 371 37 l 2
 371 11 351 -9 325 -9 c 2
 297 -9 l 2
 271 -9 251 11 251 37 c 2
 251 129 l 2
 251 155 271 176 297 176 c 2x4780
158 120 m 2x8780
 186 120 l 2
 212 120 232 100 232 74 c 2
 232 -19 l 2
 232 -45 212 -65 186 -65 c 2
 158 -65 l 2
 132 -65 112 -45 112 -19 c 2
 112 74 l 2
 112 100 132 120 158 120 c 2x8780
EndSplineSet
EndChar

StartChar: asterisk
Encoding: 42 42 67
Width: 512
Flags: HW
LayerCount: 2
Fore
SplineSet
251.44921875 820.724609375 m 2
 260.524414062 820.724609375 l 2
 285.571289062 820.724609375 305.899414062 800.405273438 305.899414062 775.349609375 c 2
 305.899414062 748.124023438 l 2
 305.899414062 723.068359375 285.571289062 702.75 260.524414062 702.75 c 2
 251.44921875 702.75 l 2
 226.403320312 702.75 206.07421875 723.068359375 206.07421875 748.124023438 c 2
 206.07421875 775.349609375 l 2
 206.07421875 800.405273438 226.403320312 820.724609375 251.44921875 820.724609375 c 2
115.325195312 739.049804688 m 2
 142.549804688 739.049804688 l 2
 167.596679688 739.049804688 187.924804688 718.73046875 187.924804688 693.674804688 c 2
 187.924804688 684.599609375 l 2
 187.924804688 659.552734375 167.596679688 639.224609375 142.549804688 639.224609375 c 2
 115.325195312 639.224609375 l 2
 90.2783203125 639.224609375 69.9501953125 659.552734375 69.9501953125 684.599609375 c 2
 69.9501953125 693.674804688 l 2
 69.9501953125 718.73046875 90.2783203125 739.049804688 115.325195312 739.049804688 c 2
369.423828125 739.049804688 m 2
 396.649414062 739.049804688 l 2
 421.696289062 739.049804688 442.024414062 718.73046875 442.024414062 693.674804688 c 2
 442.024414062 684.599609375 l 2
 442.024414062 659.552734375 421.696289062 639.224609375 396.649414062 639.224609375 c 2
 369.423828125 639.224609375 l 2
 344.376953125 639.224609375 324.049804688 659.552734375 324.049804688 684.599609375 c 2
 324.049804688 693.674804688 l 2
 324.049804688 718.73046875 344.376953125 739.049804688 369.423828125 739.049804688 c 2
242.374023438 684.599609375 m 2
 269.599609375 684.599609375 l 2
 294.737304688 684.599609375 314.974609375 664.36328125 314.974609375 639.224609375 c 2
 314.974609375 612 l 2
 314.974609375 586.862304688 294.737304688 566.625976562 269.599609375 566.625976562 c 2
 242.374023438 566.625976562 l 2
 217.237304688 566.625976562 197 586.862304688 197 612 c 2
 197 639.224609375 l 2
 197 664.36328125 217.237304688 684.599609375 242.374023438 684.599609375 c 2
115.325195312 612 m 2
 142.549804688 612 l 2
 167.596679688 612 187.924804688 591.672851562 187.924804688 566.625976562 c 2
 187.924804688 557.549804688 l 2
 187.924804688 532.502929688 167.596679688 512.17578125 142.549804688 512.17578125 c 2
 115.325195312 512.17578125 l 2
 90.2783203125 512.17578125 69.9501953125 532.502929688 69.9501953125 557.549804688 c 2
 69.9501953125 566.625976562 l 2
 69.9501953125 591.672851562 90.2783203125 612 115.325195312 612 c 2
369.423828125 612 m 2
 396.649414062 612 l 2
 421.696289062 612 442.024414062 591.672851562 442.024414062 566.625976562 c 2
 442.024414062 557.549804688 l 2
 442.024414062 532.502929688 421.696289062 512.17578125 396.649414062 512.17578125 c 2
 369.423828125 512.17578125 l 2
 344.376953125 512.17578125 324.049804688 532.502929688 324.049804688 557.549804688 c 2
 324.049804688 566.625976562 l 2
 324.049804688 591.672851562 344.376953125 612 369.423828125 612 c 2
251.44921875 548.475585938 m 2
 260.524414062 548.475585938 l 2
 285.571289062 548.475585938 305.899414062 528.147460938 305.899414062 503.100585938 c 2
 305.899414062 475.875 l 2
 305.899414062 450.828125 285.571289062 430.500976562 260.524414062 430.500976562 c 2
 251.44921875 430.500976562 l 2
 226.403320312 430.500976562 206.07421875 450.828125 206.07421875 475.875 c 2
 206.07421875 503.100585938 l 2
 206.07421875 528.147460938 226.403320312 548.475585938 251.44921875 548.475585938 c 2
EndSplineSet
Validated: 1
EndChar

StartChar: hyphen
Encoding: 45 45 68
Width: 560
Flags: HW
LayerCount: 2
Fore
SplineSet
145.374023438 289 m 2
 417.623046875 289 l 2
 442.760742188 289 462.998046875 268.762695312 462.998046875 243.625 c 2
 462.998046875 216.400390625 l 2
 462.998046875 191.262695312 442.760742188 171.025390625 417.623046875 171.025390625 c 2
 145.374023438 171.025390625 l 2
 120.237304688 171.025390625 100 191.262695312 100 216.400390625 c 2
 100 243.625 l 2
 100 268.762695312 120.237304688 289 145.374023438 289 c 2
EndSplineSet
EndChar

StartChar: equal
Encoding: 61 61 69
Width: 622
Flags: HW
LayerCount: 2
Fore
SplineSet
166 374 m 2
 444 374 l 2
 470 374 490 354 490 328 c 2
 490 300 l 2
 490 274 470 254 444 254 c 2
 166 254 l 2
 140 254 120 274 120 300 c 2
 120 328 l 2
 120 354 140 374 166 374 c 2
166 189 m 2
 444 189 l 2
 470 189 490 169 490 143 c 2
 490 115 l 2
 490 89 470 69 444 69 c 2
 166 69 l 2
 139 69 120 89 120 115 c 2
 120 143 l 2
 120 169 140 189 166 189 c 2
EndSplineSet
EndChar

StartChar: plus
Encoding: 43 43 70
Width: 581
Flags: HW
LayerCount: 2
Fore
SplineSet
277.40234375 390.849609375 m 2
 304.625 390.849609375 l 2
 329.763671875 390.849609375 350 370.611328125 350 345.474609375 c 2
 350 254.725585938 l 1
 440.749023438 254.725585938 l 2
 465.887695312 254.725585938 486.124023438 234.487304688 486.124023438 209.349609375 c 2
 486.124023438 182.125 l 2
 486.124023438 156.987304688 465.887695312 136.75 440.749023438 136.75 c 2
 350 136.75 l 1
 350 46 l 2
 350 20.86328125 329.763671875 0.6259765625 304.625 0.6259765625 c 2
 277.40234375 0.6259765625 l 2
 252.264648438 0.6259765625 232.026367188 20.86328125 232.026367188 46 c 2
 232.026367188 136.75 l 1
 141.276367188 136.75 l 2
 116.138671875 136.75 95.9013671875 156.987304688 95.9013671875 182.125 c 2
 95.9013671875 209.349609375 l 2
 95.9013671875 234.487304688 116.138671875 254.725585938 141.276367188 254.725585938 c 2
 232.026367188 254.725585938 l 1
 232.026367188 345.474609375 l 2
 232.026367188 370.611328125 252.264648438 390.849609375 277.40234375 390.849609375 c 2
EndSplineSet
Validated: 1
EndChar

StartChar: comma
Encoding: 44 44 71
Width: 254
Flags: HW
LayerCount: 2
Fore
SplineSet
92 -83 m 2
 119 -83 l 0
 120 -83 l 2
 121 -83 121 -83 122 -83 c 0
 123 -83 123 -83 124 -83 c 0
 148 -85 166 -105 166 -129 c 2
 166 -157 l 2
 166 -183 146 -203 120 -203 c 2
 92 -203 l 2
 66 -203 46 -183 46 -157 c 2
 46 -129 l 2
 46 -103 66 -83 92 -83 c 2
37 -212 m 2
 65 -212 l 2
 85 -212 102 -229 102 -249 c 2
 102 -296 l 2
 102 -316 85 -333 65 -333 c 2
 37 -333 l 2
 17 -333 0 -316 0 -296 c 2
 0 -249 l 2
 0 -229 17 -212 37 -212 c 2
EndSplineSet
Validated: 1
EndChar

StartChar: period
Encoding: 46 46 72
Width: 257
Flags: HW
LayerCount: 2
Fore
SplineSet
114 -85 m 2
 142 -85 l 2
 168 -85 188 -105 188 -131 c 2
 188 -159 l 2
 188 -183 170 -203 146 -205 c 0
 145 -205 143 -205 142 -205 c 2
 133 -205 l 0
 114 -205 l 2
 88 -205 68 -185 68 -159 c 2
 68 -131 l 2
 68 -105 88 -85 114 -85 c 2
EndSplineSet
Validated: 1
EndChar

StartChar: slash
Encoding: 47 47 73
Width: 504
Flags: HW
LayerCount: 2
Fore
SplineSet
263.885742188 596 m 2
 381.862304688 596 l 2
 399.458984375 596 413.625 581.833984375 413.625 564.237304688 c 2
 413.625 509.787109375 l 2
 413.625 492.19140625 399.458984375 478.025390625 381.862304688 478.025390625 c 2
 263.885742188 478.025390625 l 2
 246.290039062 478.025390625 232.125 492.19140625 232.125 509.787109375 c 2
 232.125 564.237304688 l 2
 232.125 581.833984375 246.290039062 596 263.885742188 596 c 2
236.661132812 459.875976562 m 2
 354.635742188 459.875976562 l 2
 372.233398438 459.875976562 386.399414062 445.709960938 386.399414062 428.112304688 c 2
 386.399414062 373.663085938 l 2
 386.399414062 356.067382812 372.233398438 341.901367188 354.635742188 341.901367188 c 2
 236.661132812 341.901367188 l 2
 219.06640625 341.901367188 204.900390625 356.067382812 204.900390625 373.663085938 c 2
 204.900390625 428.112304688 l 2
 204.900390625 445.709960938 219.06640625 459.875976562 236.661132812 459.875976562 c 2
209.436523438 323.750976562 m 2
 327.411132812 323.750976562 l 2
 345.0078125 323.750976562 359.173828125 309.584960938 359.173828125 291.98828125 c 2
 359.173828125 237.538085938 l 2
 359.173828125 219.942382812 345.0078125 205.776367188 327.411132812 205.776367188 c 2
 209.436523438 205.776367188 l 2
 191.840820312 205.776367188 177.674804688 219.942382812 177.674804688 237.538085938 c 2
 177.674804688 291.98828125 l 2
 177.674804688 309.584960938 191.840820312 323.750976562 209.436523438 323.750976562 c 2
182.212890625 187.625976562 m 2
 300.186523438 187.625976562 l 2
 317.784179688 187.625976562 331.94921875 173.459960938 331.94921875 155.86328125 c 2
 331.94921875 101.4140625 l 2
 331.94921875 83.818359375 317.784179688 69.65234375 300.186523438 69.65234375 c 2
 182.212890625 69.65234375 l 2
 164.616210938 69.65234375 150.450195312 83.818359375 150.450195312 101.4140625 c 2
 150.450195312 155.86328125 l 2
 150.450195312 173.459960938 164.616210938 187.625976562 182.212890625 187.625976562 c 2
154.987304688 51.501953125 m 2
 272.961914062 51.501953125 l 2
 290.55859375 51.501953125 304.723632812 37.3359375 304.723632812 19.740234375 c 2
 304.723632812 -34.7099609375 l 2
 304.723632812 -52.306640625 290.55859375 -66.47265625 272.961914062 -66.47265625 c 2
 154.987304688 -66.47265625 l 2
 137.390625 -66.47265625 123.224609375 -52.306640625 123.224609375 -34.7099609375 c 2
 123.224609375 19.740234375 l 2
 123.224609375 37.3359375 137.390625 51.501953125 154.987304688 51.501953125 c 2
127.762695312 -84.623046875 m 2
 245.736328125 -84.623046875 l 2
 263.333007812 -84.623046875 277.499023438 -98.7890625 277.499023438 -116.384765625 c 2
 277.499023438 -170.833984375 l 2
 277.499023438 -188.431640625 263.333007812 -202.59765625 245.736328125 -202.59765625 c 2
 127.762695312 -202.59765625 l 2
 110.166015625 -202.59765625 96 -188.431640625 96 -170.833984375 c 2
 96 -116.384765625 l 2
 96 -98.7890625 110.166015625 -84.623046875 127.762695312 -84.623046875 c 2
EndSplineSet
Validated: 1
EndChar

StartChar: bar
Encoding: 124 124 74
Width: 396
Flags: HW
LayerCount: 2
Fore
SplineSet
136.762695312 594 m 2
 254.73828125 594 l 2
 272.334960938 594 286.5 579.833984375 286.5 562.237304688 c 2
 286.5 507.787109375 l 2
 286.5 490.19140625 272.334960938 476.025390625 254.73828125 476.025390625 c 2
 136.762695312 476.025390625 l 2
 119.166992188 476.025390625 105 490.19140625 105 507.787109375 c 2
 105 562.237304688 l 2
 105 579.833984375 119.166992188 594 136.762695312 594 c 2
136.762695312 457.875976562 m 2
 254.73828125 457.875976562 l 2
 272.334960938 457.875976562 286.5 443.709960938 286.5 426.112304688 c 2
 286.5 371.663085938 l 2
 286.5 354.067382812 272.334960938 339.901367188 254.73828125 339.901367188 c 2
 136.762695312 339.901367188 l 2
 119.166992188 339.901367188 105 354.067382812 105 371.663085938 c 2
 105 426.112304688 l 2
 105 443.709960938 119.166992188 457.875976562 136.762695312 457.875976562 c 2
136.762695312 321.750976562 m 2
 254.73828125 321.750976562 l 2
 272.334960938 321.750976562 286.5 307.584960938 286.5 289.98828125 c 2
 286.5 235.538085938 l 2
 286.5 217.942382812 272.334960938 203.776367188 254.73828125 203.776367188 c 2
 136.762695312 203.776367188 l 2
 119.166992188 203.776367188 105 217.942382812 105 235.538085938 c 2
 105 289.98828125 l 2
 105 307.584960938 119.166992188 321.750976562 136.762695312 321.750976562 c 2
136.762695312 185.625976562 m 2
 254.73828125 185.625976562 l 2
 272.334960938 185.625976562 286.5 171.459960938 286.5 153.86328125 c 2
 286.5 99.4140625 l 2
 286.5 81.818359375 272.334960938 67.65234375 254.73828125 67.65234375 c 2
 136.762695312 67.65234375 l 2
 119.166992188 67.65234375 105 81.818359375 105 99.4140625 c 2
 105 153.86328125 l 2
 105 171.459960938 119.166992188 185.625976562 136.762695312 185.625976562 c 2
136.762695312 49.501953125 m 2
 254.73828125 49.501953125 l 2
 272.334960938 49.501953125 286.5 35.3359375 286.5 17.740234375 c 2
 286.5 -36.7099609375 l 2
 286.5 -54.306640625 272.334960938 -68.47265625 254.73828125 -68.47265625 c 2
 136.762695312 -68.47265625 l 2
 119.166992188 -68.47265625 105 -54.306640625 105 -36.7099609375 c 2
 105 17.740234375 l 2
 105 35.3359375 119.166992188 49.501953125 136.762695312 49.501953125 c 2
136.762695312 -86.623046875 m 2
 254.73828125 -86.623046875 l 2
 272.334960938 -86.623046875 286.5 -100.7890625 286.5 -118.384765625 c 2
 286.5 -172.833984375 l 2
 286.5 -190.431640625 272.334960938 -204.59765625 254.73828125 -204.59765625 c 2
 136.762695312 -204.59765625 l 2
 119.166992188 -204.59765625 105 -190.431640625 105 -172.833984375 c 2
 105 -118.384765625 l 2
 105 -100.7890625 119.166992188 -86.623046875 136.762695312 -86.623046875 c 2
EndSplineSet
Validated: 524289
EndChar

StartChar: braceright
Encoding: 125 125 75
Width: 476
Flags: HW
LayerCount: 2
Fore
SplineSet
118 611 m 2
 257 611 l 2
 283 611 303 591 303 565 c 2
 303 537 l 2
 303 511 283 491 257 491 c 2
 118 491 l 2
 92 491 72 511 72 537 c 2
 72 565 l 2
 72 591 92 611 118 611 c 2
192 472 m 2
 285 472 l 2
 311 472 331 452 331 426 c 2
 331 398 l 2
 331 372 311 352 285 352 c 2
 192 352 l 2
 166 352 146 372 146 398 c 2
 146 426 l 2
 146 452 166 472 192 472 c 2
174 334 m 2
 266 334 l 2
 292 334 312 313 312 287 c 2
 312 260 l 2
 312 234 292 213 266 213 c 2
 174 213 l 2
 148 213 127 234 127 260 c 2
 127 287 l 2
 127 313 148 334 174 334 c 2
363 269 m 2
 382 269 l 2
 400 269 414 254 414 236 c 2
 414 181 l 2
 414 163 400 149 382 149 c 2
 363 149 l 2
 345 149 331 163 331 181 c 2
 331 236 l 2
 331 254 345 269 363 269 c 2
174 195 m 2
 266 195 l 2
 292 195 312 175 312 149 c 2
 312 121 l 2
 312 95 292 75 266 75 c 2
 174 75 l 2
 148 75 127 95 127 121 c 2
 127 149 l 2
 127 175 148 195 174 195 c 2
192 56 m 2
 285 56 l 2
 311 56 331 36 331 10 c 2
 331 -18 l 2
 331 -44 311 -64 285 -64 c 2
 192 -64 l 2
 166 -64 146 -44 146 -18 c 2
 146 10 l 2
 146 36 166 56 192 56 c 2
118 -83 m 2
 257 -83 l 2
 283 -83 303 -103 303 -129 c 2
 303 -157 l 2
 303 -183 283 -203 257 -203 c 2
 118 -203 l 2
 92 -203 72 -183 72 -157 c 2
 72 -129 l 2
 72 -103 92 -83 118 -83 c 2
EndSplineSet
Validated: 1
EndChar

StartChar: asciitilde
Encoding: 126 126 76
Width: 684
Flags: HW
LayerCount: 2
Fore
SplineSet
104 777 m 6
 141 777 l 6
 159 777 172 763 172 745 c 6
 172 690 l 6
 172 672 159 658 141 658 c 6
 104 658 l 6
 86 658 72 672 72 690 c 6
 72 745 l 6
 72 763 86 777 104 777 c 6
319 777 m 6
 501 777 l 6
 526 777 547 757 547 732 c 6
 547 704 l 6
 547 679 526 658 501 658 c 6
 319 658 l 6
 294 658 273 679 273 704 c 6
 273 732 l 6
 273 757 294 777 319 777 c 6
533 640 m 6
 570 640 l 6
 588 640 602 626 602 608 c 6
 602 553 l 6
 602 535 588 521 570 521 c 6
 533 521 l 6
 515 521 501 535 501 553 c 6
 501 608 l 6
 501 626 515 640 533 640 c 6
163 640 m 6
 346 640 l 6
 371 640 392 619 392 594 c 6
 392 567 l 6
 392 542 371 521 346 521 c 6
 163 521 l 6
 138 521 118 542 118 567 c 6
 118 594 l 6
 118 619 138 640 163 640 c 6
EndSplineSet
Validated: 1
EndChar

StartChar: grave
Encoding: 96 96 77
Width: 514
Flags: HW
LayerCount: 2
Fore
SplineSet
124 822 m 6
 261 822 l 6
 286 822 306 802 306 777 c 6
 306 749 l 6
 306 724 286 703 261 703 c 6
 124 703 l 6
 99 703 78 724 78 749 c 6
 78 777 l 6
 78 802 99 822 124 822 c 6
242 685 m 6
 379 685 l 6
 404 685 425 664 425 639 c 6
 425 612 l 6
 425 587 404 566 379 566 c 6
 242 566 l 6
 217 566 197 587 197 612 c 6
 197 639 l 6
 197 664 217 685 242 685 c 6
EndSplineSet
Validated: 1
EndChar

StartChar: asciicircum
Encoding: 94 94 78
Width: 473
Flags: HW
LayerCount: 2
Fore
SplineSet
196 756 m 6
 269 756 l 6
 294 756 317 736 317 711 c 6
 317 683 l 6
 317 658 296 637 271 637 c 6
 198 637 l 6
 173 637 152 658 152 683 c 6
 152 711 l 6
 152 736 171 756 196 756 c 6
107 619 m 6
 171 619 l 6
 196 619 216 598 216 573 c 6
 216 546 l 6
 216 521 196 500 171 500 c 6
 107 500 l 6
 82 500 61 521 61 546 c 6
 61 573 l 6
 61 598 82 619 107 619 c 6
299 619 m 6
 372 619 l 6
 397 619 417 598 417 573 c 6
 417 546 l 6
 417 521 397 500 372 500 c 6
 299 500 l 6
 274 500 253 521 253 546 c 6
 253 573 l 6
 253 598 274 619 299 619 c 6
EndSplineSet
Validated: 1
EndChar

StartChar: bracketright
Encoding: 93 93 79
Width: 459
Flags: HW
LayerCount: 2
Fore
SplineSet
133.157226562 590 m 2
 313.765625 590 l 2
 338.779296875 590 358.916992188 569.862304688 358.916992188 544.84765625 c 2
 358.916992188 517.755859375 l 2
 358.916992188 492.7421875 338.779296875 472.603515625 313.765625 472.603515625 c 2
 133.157226562 472.603515625 l 2
 108.141601562 472.603515625 88.00390625 492.7421875 88.00390625 517.755859375 c 2
 88.00390625 544.84765625 l 2
 88.00390625 569.862304688 108.141601562 590 133.157226562 590 c 2
223.4609375 454.54296875 m 2
 313.765625 454.54296875 l 2
 338.779296875 454.54296875 358.916992188 434.405273438 358.916992188 409.391601562 c 2
 358.916992188 382.299804688 l 2
 358.916992188 357.28515625 338.779296875 337.147460938 313.765625 337.147460938 c 2
 223.4609375 337.147460938 l 2
 198.446289062 337.147460938 178.307617188 357.28515625 178.307617188 382.299804688 c 2
 178.307617188 409.391601562 l 2
 178.307617188 434.405273438 198.446289062 454.54296875 223.4609375 454.54296875 c 2
223.4609375 319.086914062 m 2
 313.765625 319.086914062 l 2
 338.779296875 319.086914062 358.916992188 298.94921875 358.916992188 273.934570312 c 2
 358.916992188 246.842773438 l 2
 358.916992188 221.829101562 338.779296875 201.690429688 313.765625 201.690429688 c 2
 223.4609375 201.690429688 l 2
 198.446289062 201.690429688 178.307617188 221.829101562 178.307617188 246.842773438 c 2
 178.307617188 273.934570312 l 2
 178.307617188 298.94921875 198.446289062 319.086914062 223.4609375 319.086914062 c 2
223.4609375 183.630859375 m 2
 313.765625 183.630859375 l 2
 338.779296875 183.630859375 358.916992188 163.490234375 358.916992188 138.4765625 c 2
 358.916992188 111.38671875 l 2
 358.916992188 86.3720703125 338.779296875 66.234375 313.765625 66.234375 c 2
 223.4609375 66.234375 l 2
 198.446289062 66.234375 178.307617188 86.3720703125 178.307617188 111.38671875 c 2
 178.307617188 138.4765625 l 2
 178.307617188 163.490234375 198.446289062 183.630859375 223.4609375 183.630859375 c 2
223.4609375 48.173828125 m 2
 313.765625 48.173828125 l 2
 338.779296875 48.173828125 358.916992188 28.0341796875 358.916992188 3.01953125 c 2
 358.916992188 -24.0703125 l 2
 358.916992188 -49.083984375 338.779296875 -69.22265625 313.765625 -69.22265625 c 2
 223.4609375 -69.22265625 l 2
 198.446289062 -69.22265625 178.307617188 -49.083984375 178.307617188 -24.0703125 c 2
 178.307617188 3.01953125 l 2
 178.307617188 28.0341796875 198.446289062 48.173828125 223.4609375 48.173828125 c 2
133.153320312 -87.2802734375 m 2
 313.760742188 -87.2802734375 l 2
 338.68359375 -87.2802734375 358.913085938 -107.500976562 358.913085938 -132.434570312 c 2
 358.913085938 -159.524414062 l 2
 358.913085938 -184.458007812 338.68359375 -204.676757812 313.760742188 -204.676757812 c 2
 133.153320312 -204.676757812 l 2
 108.227539062 -204.676757812 88 -184.458007812 88 -159.524414062 c 2
 88 -132.434570312 l 2
 88 -107.500976562 108.227539062 -87.2802734375 133.153320312 -87.2802734375 c 2
EndSplineSet
Validated: 1
EndChar

StartChar: bracketleft
Encoding: 91 91 80
Width: 472
Flags: HW
LayerCount: 2
Fore
SplineSet
139 611 m 2
 324 611 l 2
 350 611 370 591 370 565 c 2
 370 537 l 2
 370 511 350 491 324 491 c 2
 139 491 l 2
 113 491 93 511 93 537 c 2
 93 565 l 2
 93 591 113 611 139 611 c 2
139 472 m 2
 232 472 l 2
 258 472 278 452 278 426 c 2
 278 399 l 2
 278 373 258 352 232 352 c 2
 139 352 l 2
 113 352 93 373 93 399 c 2
 93 426 l 2
 93 452 113 472 139 472 c 2
139 334 m 2
 232 334 l 2
 258 334 278 314 278 288 c 2
 278 260 l 2
 278 234 258 214 232 214 c 2
 139 214 l 2
 113 214 93 234 93 260 c 2
 93 288 l 2
 93 314 113 334 139 334 c 2
139 195 m 2
 232 195 l 2
 258 195 278 175 278 149 c 2
 278 121 l 2
 278 95 258 75 232 75 c 2
 139 75 l 2
 113 75 93 95 93 121 c 2
 93 149 l 2
 93 175 113 195 139 195 c 2
139 56 m 2
 232 56 l 2
 258 56 278 36 278 10 c 2
 278 -18 l 2
 278 -44 258 -64 232 -64 c 2
 139 -64 l 2
 113 -64 93 -44 93 -18 c 2
 93 10 l 2
 93 36 113 56 139 56 c 2
139 -82 m 2
 324 -82 l 2
 350 -82 370 -103 370 -129 c 2
 370 -156 l 2
 370 -182 350 -203 324 -203 c 2
 139 -203 l 2
 113 -203 93 -182 93 -156 c 2
 93 -129 l 2
 93 -103 113 -82 139 -82 c 2
EndSplineSet
Validated: 1
EndChar

StartChar: at
Encoding: 64 64 81
Width: 1280
Flags: HW
LayerCount: 2
Fore
SplineSet
411 839 m 2
 466 839 l 2
 484 839 499 825 499 807 c 2
 499 751 l 2
 499 733 484 719 466 719 c 2
 411 719 l 2
 393 719 378 733 378 751 c 2
 378 807 l 2
 378 825 393 839 411 839 c 2
549 839 m 2
 605 839 l 2
 623 839 637 825 637 807 c 2
 637 751 l 2
 637 733 623 719 605 719 c 2
 549 719 l 2
 531 719 517 733 517 751 c 2
 517 807 l 2
 517 825 531 839 549 839 c 2
688 839 m 2
 744 839 l 2
 762 839 776 825 776 807 c 2
 776 751 l 2
 776 733 762 719 744 719 c 2
 688 719 l 2
 670 719 656 733 656 751 c 2
 656 807 l 2
 656 825 670 839 688 839 c 2
827 839 m 2
 882 839 l 2
 900 839 915 825 915 807 c 2
 915 751 l 2
 915 733 900 719 882 719 c 2
 827 719 l 2
 809 719 795 733 795 751 c 2
 795 807 l 2
 795 825 809 839 827 839 c 2
966 784 m 2
 1021 784 l 2
 1039 784 1053 769 1053 751 c 2
 1053 696 l 2
 1053 678 1039 664 1021 664 c 2
 966 664 l 2
 948 664 933 678 933 696 c 2
 933 751 l 2
 933 769 948 784 966 784 c 2
272 774 m 2
 328 774 l 2
 346 774 360 760 360 742 c 2
 360 687 l 2
 360 669 346 654 328 654 c 2
 272 654 l 2
 254 654 240 669 240 687 c 2
 240 742 l 2
 240 760 254 774 272 774 c 2
966 645 m 2
 1021 645 l 2
 1039 645 1053 631 1053 613 c 2
 1053 557 l 2
 1053 539 1039 525 1021 525 c 2
 966 525 l 2
 948 525 933 539 933 557 c 2
 933 613 l 2
 933 631 948 645 966 645 c 2
272 636 m 2
 328 636 l 2
 346 636 360 621 360 603 c 2
 360 548 l 2
 360 530 346 516 328 516 c 2
 272 516 l 2
 254 516 240 530 240 548 c 2
 240 603 l 2
 240 621 254 636 272 636 c 2
133 571 m 2
 189 571 l 2
 207 571 221 557 221 539 c 2
 221 483 l 2
 221 465 207 451 189 451 c 2
 133 451 l 2
 115 451 101 465 101 483 c 2
 101 539 l 2
 101 557 115 571 133 571 c 2
1104 571 m 2
 1160 571 l 2
 1178 571 1192 557 1192 539 c 2
 1192 483 l 2
 1192 465 1178 451 1160 451 c 2
 1104 451 l 2
 1086 451 1072 465 1072 483 c 2
 1072 539 l 2
 1072 557 1086 571 1104 571 c 2
452 562 m 2
 776 562 l 2
 802 562 822 542 822 516 c 2
 822 488 l 2
 822 462 802 442 776 442 c 2
 452 442 l 2
 426 442 406 462 406 488 c 2
 406 516 l 2
 406 542 426 562 452 562 c 2
133 432 m 2
 189 432 l 2
 207 432 221 418 221 400 c 2
 221 344 l 2
 221 326 207 312 189 312 c 2
 133 312 l 2
 115 312 101 326 101 344 c 2
 101 400 l 2
 101 418 115 432 133 432 c 2
1104 432 m 2
 1160 432 l 2
 1178 432 1192 418 1192 400 c 2
 1192 344 l 2
 1192 326 1178 312 1160 312 c 2
 1104 312 l 2
 1086 312 1072 326 1072 344 c 2
 1072 400 l 2
 1072 418 1086 432 1104 432 c 2
545 423 m 2
 869 423 l 2
 895 423 915 403 915 377 c 2
 915 349 l 2
 915 323 895 303 869 303 c 2
 545 303 l 2
 519 303 499 323 499 349 c 2
 499 377 l 2
 499 403 519 423 545 423 c 2
133 294 m 2
 189 294 l 2
 207 294 221 279 221 261 c 2
 221 206 l 2
 221 188 207 173 189 173 c 2
 133 173 l 2
 115 173 101 188 101 206 c 2
 101 261 l 2
 101 279 115 294 133 294 c 2
1104 294 m 2
 1160 294 l 2
 1178 294 1192 279 1192 261 c 2
 1192 206 l 2
 1192 188 1178 173 1160 173 c 2
 1104 173 l 2
 1086 173 1072 188 1072 206 c 2
 1072 261 l 2
 1072 279 1086 294 1104 294 c 2
452 284 m 2
 545 284 l 2
 571 284 591 264 591 238 c 2
 591 210 l 2
 591 184 571 164 545 164 c 2
 452 164 l 2
 426 164 406 184 406 210 c 2
 406 238 l 2
 406 264 426 284 452 284 c 2
776 284 m 2
 869 284 l 2
 895 284 915 264 915 238 c 2
 915 210 l 2
 915 184 895 164 869 164 c 2
 776 164 l 2
 750 164 730 184 730 210 c 2
 730 238 l 2
 730 264 750 284 776 284 c 2
133 155 m 2
 189 155 l 2
 207 155 221 141 221 123 c 2
 221 67 l 2
 221 49 207 35 189 35 c 2
 133 35 l 2
 115 35 101 49 101 67 c 2
 101 123 l 2
 101 141 115 155 133 155 c 2
1104 155 m 2
 1160 155 l 2
 1178 155 1192 141 1192 123 c 2
 1192 67 l 2
 1192 49 1178 35 1160 35 c 2
 1104 35 l 2
 1086 35 1072 49 1072 67 c 2
 1072 123 l 2
 1072 141 1086 155 1104 155 c 2
545 146 m 2
 869 146 l 2
 895 146 915 125 915 99 c 2
 915 72 l 2
 915 46 895 25 869 25 c 2
 545 25 l 2
 519 25 499 46 499 72 c 2
 499 99 l 2
 499 125 519 146 545 146 c 2
966 99 m 2
 1021 99 l 2
 1039 99 1053 85 1053 67 c 2
 1053 12 l 2
 1053 -6 1039 -21 1021 -21 c 2
 966 -21 l 2
 948 -21 933 -6 933 12 c 2
 933 67 l 2
 933 85 948 99 966 99 c 2
272 90 m 2
 328 90 l 2
 346 90 360 76 360 58 c 2
 360 2 l 2
 360 -16 346 -30 328 -30 c 2
 272 -30 l 2
 254 -30 240 -16 240 2 c 2
 240 58 l 2
 240 76 254 90 272 90 c 2
272 -49 m 2
 328 -49 l 2
 346 -49 360 -63 360 -81 c 2
 360 -136 l 2
 360 -154 346 -169 328 -169 c 2
 272 -169 l 2
 254 -169 240 -154 240 -136 c 2
 240 -81 l 2
 240 -63 254 -49 272 -49 c 2
411 -104 m 2
 466 -104 l 2
 484 -104 499 -118 499 -136 c 2
 499 -192 l 2
 499 -210 484 -224 466 -224 c 2
 411 -224 l 2
 393 -224 378 -210 378 -192 c 2
 378 -136 l 2
 378 -118 393 -104 411 -104 c 2
549 -104 m 2
 605 -104 l 2
 623 -104 637 -118 637 -136 c 2
 637 -192 l 2
 637 -210 623 -224 605 -224 c 2
 549 -224 l 2
 531 -224 517 -210 517 -192 c 2
 517 -136 l 2
 517 -118 531 -104 549 -104 c 2
688 -104 m 2
 744 -104 l 2
 762 -104 776 -118 776 -136 c 2
 776 -192 l 2
 776 -210 762 -224 744 -224 c 2
 688 -224 l 2
 670 -224 656 -210 656 -192 c 2
 656 -136 l 2
 656 -118 670 -104 688 -104 c 2
827 -104 m 2
 882 -104 l 2
 900 -104 915 -118 915 -136 c 2
 915 -192 l 2
 915 -210 900 -224 882 -224 c 2
 827 -224 l 2
 809 -224 795 -210 795 -192 c 2
 795 -136 l 2
 795 -118 809 -104 827 -104 c 2
966 -104 m 2
 1021 -104 l 2
 1039 -104 1053 -118 1053 -136 c 2
 1053 -192 l 2
 1053 -210 1039 -224 1021 -224 c 2
 966 -224 l 2
 948 -224 933 -210 933 -192 c 2
 933 -136 l 2
 933 -118 948 -104 966 -104 c 2
EndSplineSet
Validated: 1
EndChar

StartChar: question
Encoding: 63 63 82
Width: 641
Flags: HW
LayerCount: 2
Fore
SplineSet
258.423828125 543 m 2
 376.399414062 543 l 2
 401.537109375 543 421.775390625 522.763671875 421.775390625 497.625 c 2
 421.775390625 470.399414062 l 2
 421.775390625 445.262695312 401.537109375 425.025390625 376.399414062 425.025390625 c 2
 258.423828125 425.025390625 l 2
 233.287109375 425.025390625 213.049804688 445.262695312 213.049804688 470.399414062 c 2
 213.049804688 497.625 l 2
 213.049804688 522.763671875 233.287109375 543 258.423828125 543 c 2
131.375976562 406.875976562 m 2
 222.125 406.875976562 l 2
 247.262695312 406.875976562 267.5 386.638671875 267.5 361.5 c 2
 267.5 334.275390625 l 2
 267.5 309.137695312 247.262695312 288.901367188 222.125 288.901367188 c 2
 131.375976562 288.901367188 l 2
 106.23828125 288.901367188 86 309.137695312 86 334.275390625 c 2
 86 361.5 l 2
 86 386.638671875 106.23828125 406.875976562 131.375976562 406.875976562 c 2
412.69921875 406.875976562 m 2
 503.44921875 406.875976562 l 2
 528.586914062 406.875976562 548.82421875 386.638671875 548.82421875 361.5 c 2
 548.82421875 334.275390625 l 2
 548.82421875 309.137695312 528.586914062 288.901367188 503.44921875 288.901367188 c 2
 412.69921875 288.901367188 l 2
 387.560546875 288.901367188 367.32421875 309.137695312 367.32421875 334.275390625 c 2
 367.32421875 361.5 l 2
 367.32421875 386.638671875 387.560546875 406.875976562 412.69921875 406.875976562 c 2
358.249023438 270.750976562 m 2
 449 270.750976562 l 2
 474.137695312 270.750976562 494.375 250.513671875 494.375 225.375976562 c 2
 494.375 198.150390625 l 2
 494.375 173.013671875 474.137695312 152.776367188 449 152.776367188 c 2
 358.249023438 152.776367188 l 2
 333.112304688 152.776367188 312.875 173.013671875 312.875 198.150390625 c 2
 312.875 225.375976562 l 2
 312.875 250.513671875 333.112304688 270.750976562 358.249023438 270.750976562 c 2
267.5 134.625976562 m 2
 358.249023438 134.625976562 l 2
 383.38671875 134.625976562 403.624023438 114.389648438 403.624023438 89.2509765625 c 2
 403.624023438 62.0263671875 l 2
 403.624023438 36.888671875 383.38671875 16.65234375 358.249023438 16.65234375 c 2
 267.5 16.65234375 l 2
 242.362304688 16.65234375 222.125 36.888671875 222.125 62.0263671875 c 2
 222.125 89.2509765625 l 2
 222.125 114.389648438 242.362304688 134.625976562 267.5 134.625976562 c 2
267.5 -86.623046875 m 2
 358.249023438 -86.623046875 l 2
 383.38671875 -86.623046875 403.624023438 -106.859375 403.624023438 -131.997070312 c 2
 403.624023438 -159.221679688 l 2
 403.624023438 -184.360351562 383.38671875 -204.59765625 358.249023438 -204.59765625 c 2
 267.5 -204.59765625 l 2
 242.362304688 -204.59765625 222.125 -184.360351562 222.125 -159.221679688 c 2
 222.125 -131.997070312 l 2
 222.125 -106.859375 242.362304688 -86.623046875 267.5 -86.623046875 c 2
EndSplineSet
Validated: 1
EndChar

StartChar: parenleft
Encoding: 40 40 83
Width: 473
Flags: HW
LayerCount: 2
Fore
SplineSet
241 609 m 2
 333 609 l 2
 359 609 379 589 379 563 c 2
 379 535 l 2
 379 509 359 489 333 489 c 2
 241 489 l 2
 215 489 194 509 194 535 c 2
 194 563 l 2
 194 589 215 609 241 609 c 2
148 470 m 2
 241 470 l 2
 267 470 287 450 287 424 c 2
 287 396 l 2
 287 370 267 350 241 350 c 2
 148 350 l 2
 122 350 102 370 102 396 c 2
 102 424 l 2
 102 450 122 470 148 470 c 2
148 332 m 2
 241 332 l 2
 267 332 287 311 287 285 c 2
 287 258 l 2
 287 232 267 211 241 211 c 2
 148 211 l 2
 122 211 102 232 102 258 c 2
 102 285 l 2
 102 311 122 332 148 332 c 2
148 193 m 2
 241 193 l 2
 267 193 287 173 287 147 c 2
 287 119 l 2
 287 93 267 73 241 73 c 2
 148 73 l 2
 122 73 102 93 102 119 c 2
 102 147 l 2
 102 173 122 193 148 193 c 2
148 54 m 2
 241 54 l 2
 267 54 287 34 287 8 c 2
 287 -20 l 2
 287 -46 267 -66 241 -66 c 2
 148 -66 l 2
 122 -66 102 -46 102 -20 c 2
 102 8 l 2
 102 34 122 54 148 54 c 2
241 -85 m 2
 333 -85 l 2
 359 -85 379 -105 379 -131 c 2
 379 -159 l 2
 379 -170 375 -179 369 -187 c 0
 363 -194 356 -200 347 -203 c 0
 343 -204 338 -205 333 -205 c 2
 241 -205 l 2
 215 -205 194 -185 194 -159 c 2
 194 -131 l 2
 194 -105 215 -85 241 -85 c 2
EndSplineSet
EndChar

StartChar: parenright
Encoding: 41 41 84
Width: 467
Flags: HW
LayerCount: 2
Fore
SplineSet
130 609 m 2
 223 609 l 2
 249 609 269 589 269 563 c 2
 269 535 l 2
 269 509 249 489 223 489 c 2
 130 489 l 2
 104 489 84 509 84 535 c 2
 84 563 l 2
 84 589 104 609 130 609 c 2
223 470 m 2
 315 470 l 2
 341 470 361 450 361 424 c 2
 361 396 l 2
 361 370 341 350 315 350 c 2
 223 350 l 2
 197 350 176 370 176 396 c 2
 176 424 l 2
 176 450 197 470 223 470 c 2
223 332 m 2
 315 332 l 2
 341 332 361 311 361 285 c 2
 361 258 l 2
 361 232 341 211 315 211 c 2
 223 211 l 2
 197 211 176 232 176 258 c 2
 176 285 l 2
 176 311 197 332 223 332 c 2
223 193 m 2
 315 193 l 2
 341 193 361 173 361 147 c 2
 361 119 l 2
 361 93 341 73 315 73 c 2
 223 73 l 2
 197 73 176 93 176 119 c 2
 176 147 l 2
 176 173 197 193 223 193 c 2
223 54 m 2
 315 54 l 2
 341 54 361 34 361 8 c 2
 361 -20 l 2
 361 -46 341 -66 315 -66 c 2
 223 -66 l 2
 197 -66 176 -46 176 -20 c 2
 176 8 l 2
 176 34 197 54 223 54 c 2
130 -85 m 2
 223 -85 l 2
 249 -85 269 -105 269 -131 c 2
 269 -159 l 2
 269 -185 249 -205 223 -205 c 2
 130 -205 l 2
 104 -205 84 -185 84 -159 c 2
 84 -131 l 2
 84 -105 104 -85 130 -85 c 2
EndSplineSet
EndChar

StartChar: numbersign
Encoding: 35 35 85
Width: 751
Flags: HW
LayerCount: 2
Fore
SplineSet
233 474 m 2
 271 474 l 2
 289 474 303 459 303 441 c 2
 303 386 l 2
 303 368 289 353 271 353 c 2
 233 353 l 2
 215 353 201 368 201 386 c 2
 201 441 l 2
 201 451 206 461 213 467 c 0
 219 471 225 474 233 474 c 2
475 474 m 2
 512 474 l 2
 530 474 545 459 545 441 c 2
 545 386 l 2
 545 368 530 353 512 353 c 2
 475 353 l 2
 457 353 443 368 443 386 c 2
 443 441 l 2
 443 459 457 474 475 474 c 2
113 334 m 2
 150 334 l 2
 168 334 182 320 182 302 c 2
 182 246 l 2
 182 228 168 214 150 214 c 2
 113 214 l 2
 95 214 80 228 80 246 c 2
 80 302 l 2
 80 320 95 334 113 334 c 2
233 334 m 2
 271 334 l 2
 289 334 303 320 303 302 c 2
 303 246 l 2
 303 228 289 214 271 214 c 2
 233 214 l 2
 215 214 201 228 201 246 c 2
 201 302 l 2
 201 320 215 334 233 334 c 2
354 334 m 2
 391 334 l 2
 409 334 424 320 424 302 c 2
 424 246 l 2
 424 228 409 214 391 214 c 2
 354 214 l 2
 336 214 322 228 322 246 c 2
 322 302 l 2
 322 320 336 334 354 334 c 2
475 334 m 2
 512 334 l 2
 530 334 545 320 545 302 c 2
 545 246 l 2
 545 228 530 214 512 214 c 2
 475 214 l 2
 457 214 443 228 443 246 c 2
 443 302 l 2
 443 320 457 334 475 334 c 2
596 334 m 2
 633 334 l 2
 651 334 666 320 666 302 c 2
 666 246 l 2
 666 228 651 214 633 214 c 2
 596 214 l 2
 578 214 563 228 563 246 c 2
 563 302 l 2
 563 320 578 334 596 334 c 2
233 195 m 2
 271 195 l 2
 289 195 303 180 303 162 c 2
 303 107 l 2
 303 89 289 74 271 74 c 2
 233 74 l 2
 215 74 201 89 201 107 c 2
 201 162 l 2
 201 180 215 195 233 195 c 2
475 195 m 2
 512 195 l 2
 530 195 545 180 545 162 c 2
 545 107 l 2
 545 89 530 74 512 74 c 2
 475 74 l 2
 457 74 443 89 443 107 c 2
 443 162 l 2
 443 180 457 195 475 195 c 2
113 56 m 2
 150 56 l 2
 168 56 182 41 182 23 c 2
 182 -33 l 2
 182 -51 168 -65 150 -65 c 2
 113 -65 l 2
 95 -65 80 -51 80 -33 c 2
 80 23 l 2
 80 41 95 56 113 56 c 2
233 56 m 2
 271 56 l 2
 289 56 303 41 303 23 c 2
 303 -33 l 2
 303 -51 289 -65 271 -65 c 2
 233 -65 l 2
 215 -65 201 -51 201 -33 c 2
 201 23 l 2
 201 41 215 56 233 56 c 2
354 56 m 2
 391 56 l 2
 409 56 424 41 424 23 c 2
 424 -33 l 2
 424 -51 409 -65 391 -65 c 2
 354 -65 l 2
 336 -65 322 -51 322 -33 c 2
 322 23 l 2
 322 41 336 56 354 56 c 2
475 56 m 2
 512 56 l 2
 530 56 545 41 545 23 c 2
 545 -33 l 2
 545 -51 530 -65 512 -65 c 2
 475 -65 l 2
 457 -65 443 -51 443 -33 c 2
 443 23 l 2
 443 41 457 56 475 56 c 2
596 56 m 2
 633 56 l 2
 651 56 666 41 666 23 c 2
 666 -33 l 2
 666 -51 651 -65 633 -65 c 2
 596 -65 l 2
 578 -65 563 -51 563 -33 c 2
 563 23 l 2
 563 41 578 56 596 56 c 2
233 -84 m 2
 271 -84 l 2
 289 -84 303 -98 303 -116 c 2
 303 -172 l 2
 303 -188 292 -202 276 -204 c 0
 274 -204 273 -205 271 -205 c 2
 269 -205 l 0
 266 -205 l 0
 233 -205 l 2
 215 -205 201 -190 201 -172 c 2
 201 -116 l 2
 201 -98 215 -84 233 -84 c 2
475 -84 m 2
 512 -84 l 2
 530 -84 545 -98 545 -116 c 2
 545 -172 l 2
 545 -190 530 -205 512 -205 c 2
 496 -205 l 0
 482 -205 l 0
 475 -205 l 2
 457 -205 443 -190 443 -172 c 2
 443 -116 l 2
 443 -98 457 -84 475 -84 c 2
EndSplineSet
Validated: 1
EndChar

StartChar: percent
Encoding: 37 37 86
Width: 977
Flags: HW
LayerCount: 2
Fore
SplineSet
259 613 m 2
 269 613 l 2
 295 613 315 593 315 567 c 2
 315 539 l 2
 315 513 295 493 269 493 c 2
 259 493 l 2
 233 493 213 513 213 539 c 2
 213 567 l 2
 213 593 233 613 259 613 c 2
580 613 m 2
 617 613 l 2
 635 613 650 599 650 581 c 2
 650 525 l 2
 650 507 635 493 617 493 c 2
 580 493 l 2
 562 493 548 507 548 525 c 2
 548 581 l 2
 548 599 562 613 580 613 c 2
138 548 m 2
 166 548 l 2
 192 548 213 528 213 502 c 2
 213 493 l 2
 213 467 192 446 166 446 c 2
 138 446 l 2
 112 446 92 467 92 493 c 2
 92 502 l 2
 92 528 112 548 138 548 c 2
362 548 m 2
 390 548 l 2
 416 548 436 528 436 502 c 2
 436 493 l 2
 436 467 416 446 390 446 c 2
 362 446 l 2
 336 446 315 467 315 493 c 2
 315 502 l 2
 315 528 336 548 362 548 c 2
534 474 m 2
 571 474 l 2
 589 474 603 459 603 441 c 2
 603 386 l 2
 603 368 589 353 571 353 c 2
 534 353 l 2
 516 353 501 368 501 386 c 2
 501 441 l 2
 501 459 516 474 534 474 c 2
138 437 m 2
 166 437 l 2
 192 437 213 416 213 390 c 2
 213 381 l 2
 213 355 192 334 166 334 c 2
 138 334 l 2
 112 334 92 355 92 381 c 2
 92 390 l 2
 92 416 112 437 138 437 c 2
362 437 m 2
 390 437 l 2
 416 437 436 416 436 390 c 2
 436 381 l 2
 436 355 416 334 390 334 c 2
 362 334 l 2
 336 334 315 355 315 381 c 2
 315 390 l 2
 315 416 336 437 362 437 c 2
259 381 m 2
 269 381 l 2
 295 381 315 360 315 334 c 2
 315 307 l 2
 315 281 295 260 269 260 c 2
 259 260 l 2
 233 260 213 281 213 307 c 2
 213 334 l 2
 213 360 233 381 259 381 c 2
487 334 m 2
 524 334 l 2
 542 334 557 320 557 302 c 2
 557 246 l 2
 557 228 542 214 524 214 c 2
 487 214 l 2
 469 214 455 228 455 246 c 2
 455 302 l 2
 455 320 469 334 487 334 c 2
441 195 m 2
 478 195 l 2
 496 195 510 180 510 162 c 2
 510 107 l 2
 510 89 496 74 478 74 c 2
 441 74 l 2
 423 74 408 89 408 107 c 2
 408 162 l 2
 408 180 423 195 441 195 c 2
706 149 m 2
 715 149 l 2
 741 149 761 128 761 102 c 2
 761 74 l 2
 761 48 741 28 715 28 c 2
 706 28 l 2
 680 28 659 48 659 74 c 2
 659 102 l 2
 659 128 680 149 706 149 c 2
585 83 m 2
 613 83 l 2
 639 83 659 63 659 37 c 2
 659 28 l 2
 659 2 639 -19 613 -19 c 2
 585 -19 l 2
 559 -19 538 2 538 28 c 2
 538 37 l 2
 538 63 559 83 585 83 c 2
808 83 m 2
 836 83 l 2
 862 83 882 63 882 37 c 2
 882 28 l 2
 882 2 862 -19 836 -19 c 2
 808 -19 l 2
 782 -19 761 2 761 28 c 2
 761 37 l 2
 761 63 782 83 808 83 c 2
394 56 m 2
 431 56 l 2
 449 56 464 41 464 23 c 2
 464 -33 l 2
 464 -51 449 -65 431 -65 c 2
 394 -65 l 2
 376 -65 362 -51 362 -33 c 2
 362 23 l 2
 362 41 376 56 394 56 c 2
585 -28 m 2
 613 -28 l 2
 639 -28 659 -49 659 -75 c 2
 659 -84 l 2
 659 -95 655 -105 649 -113 c 0
 649 -114 648 -114 648 -114 c 0
 639 -124 627 -130 613 -130 c 2
 585 -130 l 2
 559 -130 538 -110 538 -84 c 2
 538 -75 l 2
 538 -49 559 -28 585 -28 c 2
808 -28 m 2
 836 -28 l 2
 862 -28 882 -49 882 -75 c 2
 882 -84 l 2
 882 -110 862 -130 836 -130 c 2
 808 -130 l 2
 782 -130 761 -110 761 -84 c 2
 761 -75 l 2
 761 -49 782 -28 808 -28 c 2
706 -84 m 2
 715 -84 l 2
 741 -84 761 -104 761 -130 c 2
 761 -158 l 2
 761 -182 743 -203 719 -205 c 0
 718 -205 716 -205 715 -205 c 2
 706 -205 l 2
 680 -205 659 -184 659 -158 c 2
 659 -130 l 2
 659 -104 680 -84 706 -84 c 2
348 -84 m 2
 385 -84 l 2
 403 -84 417 -98 417 -116 c 2
 417 -172 l 2
 417 -190 403 -205 385 -205 c 2
 348 -205 l 2
 330 -205 315 -190 315 -172 c 2
 315 -116 l 2
 315 -98 330 -84 348 -84 c 2
EndSplineSet
Validated: 1
EndChar

StartChar: exclam
Encoding: 33 33 87
Width: 316
Flags: HW
LayerCount: 2
Fore
SplineSet
113.375 594 m 2
 204.125 594 l 2
 229.262695312 594 249.5 573.763671875 249.5 548.625 c 2
 249.5 521.399414062 l 2
 249.5 496.262695312 229.262695312 476.025390625 204.125 476.025390625 c 2
 113.375 476.025390625 l 2
 88.2373046875 476.025390625 68 496.262695312 68 521.399414062 c 2
 68 548.625 l 2
 68 573.763671875 88.2373046875 594 113.375 594 c 2
113.375 457.875976562 m 2
 204.125 457.875976562 l 2
 229.262695312 457.875976562 249.5 437.638671875 249.5 412.5 c 2
 249.5 385.275390625 l 2
 249.5 360.137695312 229.262695312 339.901367188 204.125 339.901367188 c 2
 113.375 339.901367188 l 2
 88.2373046875 339.901367188 68 360.137695312 68 385.275390625 c 2
 68 412.5 l 2
 68 437.638671875 88.2373046875 457.875976562 113.375 457.875976562 c 2
113.375 321.750976562 m 2
 204.125 321.750976562 l 2
 229.262695312 321.750976562 249.5 301.513671875 249.5 276.375976562 c 2
 249.5 249.150390625 l 2
 249.5 224.013671875 229.262695312 203.776367188 204.125 203.776367188 c 2
 113.375 203.776367188 l 2
 88.2373046875 203.776367188 68 224.013671875 68 249.150390625 c 2
 68 276.375976562 l 2
 68 301.513671875 88.2373046875 321.750976562 113.375 321.750976562 c 2
113.375 185.625976562 m 2
 204.125 185.625976562 l 2
 229.262695312 185.625976562 249.5 165.389648438 249.5 140.250976562 c 2
 249.5 113.026367188 l 2
 249.5 87.888671875 229.262695312 67.65234375 204.125 67.65234375 c 2
 113.375 67.65234375 l 2
 88.2373046875 67.65234375 68 87.888671875 68 113.026367188 c 2
 68 140.250976562 l 2
 68 165.389648438 88.2373046875 185.625976562 113.375 185.625976562 c 2
113.375 -86.623046875 m 2
 204.125 -86.623046875 l 2
 229.262695312 -86.623046875 249.5 -106.859375 249.5 -131.997070312 c 2
 249.5 -159.221679688 l 2
 249.5 -184.360351562 229.262695312 -204.59765625 204.125 -204.59765625 c 2
 113.375 -204.59765625 l 2
 88.2373046875 -204.59765625 68 -184.360351562 68 -159.221679688 c 2
 68 -131.997070312 l 2
 68 -106.859375 88.2373046875 -86.623046875 113.375 -86.623046875 c 2
EndSplineSet
Validated: 1
EndChar

StartChar: exclamdown
Encoding: 161 161 88
Width: 337
Flags: HW
LayerCount: 2
Fore
SplineSet
128.250976562 458.587890625 m 2
 219 458.587890625 l 2
 244.13671875 458.587890625 264.374023438 438.350585938 264.374023438 413.213867188 c 2
 264.374023438 385.989257812 l 2
 264.374023438 360.8515625 244.13671875 340.614257812 219 340.614257812 c 2
 128.250976562 340.614257812 l 2
 103.114257812 340.614257812 82.876953125 360.8515625 82.876953125 385.989257812 c 2
 82.876953125 413.213867188 l 2
 82.876953125 438.350585938 103.114257812 458.587890625 128.250976562 458.587890625 c 2
128.250976562 186.341796875 m 2
 219 186.341796875 l 2
 244.13671875 186.341796875 264.374023438 166.104492188 264.374023438 140.967773438 c 2
 264.374023438 113.743164062 l 2
 264.374023438 88.60546875 244.13671875 68.369140625 219 68.369140625 c 2
 128.250976562 68.369140625 l 2
 103.114257812 68.369140625 82.876953125 88.60546875 82.876953125 113.743164062 c 2
 82.876953125 140.967773438 l 2
 82.876953125 166.104492188 103.114257812 186.341796875 128.250976562 186.341796875 c 2
128.250976562 50.21875 m 2
 219 50.21875 l 2
 244.13671875 50.21875 264.374023438 29.982421875 264.374023438 4.8447265625 c 2
 264.374023438 -22.3798828125 l 2
 264.374023438 -47.517578125 244.13671875 -67.75390625 219 -67.75390625 c 2
 128.250976562 -67.75390625 l 2
 103.114257812 -67.75390625 82.876953125 -47.517578125 82.876953125 -22.3798828125 c 2
 82.876953125 4.8447265625 l 2
 82.876953125 29.982421875 103.114257812 50.21875 128.250976562 50.21875 c 2
128.250976562 -85.904296875 m 2
 219 -85.904296875 l 2
 244.13671875 -85.904296875 264.374023438 -106.140625 264.374023438 -131.278320312 c 2
 264.374023438 -158.502929688 l 2
 264.374023438 -183.640625 244.13671875 -203.876953125 219 -203.876953125 c 2
 128.250976562 -203.876953125 l 2
 103.114257812 -203.876953125 82.876953125 -183.640625 82.876953125 -158.502929688 c 2
 82.876953125 -131.278320312 l 2
 82.876953125 -106.140625 103.114257812 -85.904296875 128.250976562 -85.904296875 c 2
128.250976562 -222.02734375 m 2
 219 -222.02734375 l 2
 244.13671875 -222.02734375 264.374023438 -242.263671875 264.374023438 -267.401367188 c 2
 264.374023438 -294.625976562 l 2
 264.374023438 -319.763671875 244.13671875 -340 219 -340 c 2
 128.250976562 -340 l 2
 103.114257812 -340 82.876953125 -319.763671875 82.876953125 -294.625976562 c 2
 82.876953125 -267.401367188 l 2
 82.876953125 -242.263671875 103.114257812 -222.02734375 128.250976562 -222.02734375 c 2
EndSplineSet
Validated: 1
EndChar

StartChar: periodcentered
Encoding: 183 183 89
Width: 280
Flags: HW
LayerCount: 2
Fore
SplineSet
125 145 m 2
 153 145 l 2
 179 145 199 125 199 99 c 2
 199 71 l 2
 199 45 179 25 153 25 c 2
 125 25 l 2
 99 25 79 45 79 71 c 2
 79 99 l 2
 79 125 99 145 125 145 c 2
EndSplineSet
Validated: 1
EndChar

StartChar: cedilla
Encoding: 184 184 90
Width: 302
Flags: HW
LayerCount: 2
Fore
SplineSet
124 -84 m 2
 152 -84 l 2
 178 -84 198 -104 198 -130 c 2
 198 -158 l 2
 198 -184 178 -204 152 -204 c 2
 124 -204 l 2
 98 -204 78 -184 78 -158 c 2
 78 -130 l 2
 78 -104 98 -84 124 -84 c 2
69 -213 m 2
 97 -213 l 2
 117 -213 134 -230 134 -250 c 2
 134 -296 l 2
 134 -316 117 -333 97 -333 c 2
 69 -333 l 2
 49 -333 32 -316 32 -296 c 2
 32 -250 l 2
 32 -230 49 -213 69 -213 c 2
EndSplineSet
EndChar

StartChar: underscore
Encoding: 95 95 92
Width: 808
Flags: HW
LayerCount: 2
Fore
SplineSet
149.375 -85 m 2
 657.573242188 -85 l 2
 682.7109375 -85 702.948242188 -105.237304688 702.948242188 -130.375 c 2
 702.948242188 -157.599609375 l 2
 702.948242188 -182.737304688 682.7109375 -202.974609375 657.573242188 -202.974609375 c 2
 149.375 -202.974609375 l 2
 124.237304688 -202.974609375 104 -182.737304688 104 -157.599609375 c 2
 104 -130.375 l 2
 104 -105.237304688 124.237304688 -85 149.375 -85 c 2
EndSplineSet
Validated: 524289
EndChar

StartChar: dollar
Encoding: 36 36 93
Width: 838
Flags: HW
LayerCount: 2
Fore
SplineSet
394.786132812 721 m 2
 431.0859375 721 l 2
 448.682617188 721 462.848632812 706.833984375 462.848632812 689.237304688 c 2
 462.848632812 634.787109375 l 2
 462.848632812 617.19140625 448.682617188 603.025390625 431.0859375 603.025390625 c 2
 394.786132812 603.025390625 l 2
 377.190429688 603.025390625 363.0234375 617.19140625 363.0234375 634.787109375 c 2
 363.0234375 689.237304688 l 2
 363.0234375 706.833984375 377.190429688 721 394.786132812 721 c 2
254.124023438 593.950195312 m 2
 571.748046875 593.950195312 l 2
 596.885742188 593.950195312 617.123046875 573.712890625 617.123046875 548.576171875 c 2
 617.123046875 521.350585938 l 2
 617.123046875 496.213867188 596.885742188 475.975585938 571.748046875 475.975585938 c 2
 254.124023438 475.975585938 l 2
 228.986328125 475.975585938 208.75 496.213867188 208.75 521.350585938 c 2
 208.75 548.576171875 l 2
 208.75 573.712890625 228.986328125 593.950195312 254.124023438 593.950195312 c 2
163.375 457.826171875 m 2
 254.124023438 457.826171875 l 2
 279.26171875 457.826171875 299.499023438 437.588867188 299.499023438 412.451171875 c 2
 299.499023438 385.2265625 l 2
 299.499023438 360.088867188 279.26171875 339.850585938 254.124023438 339.850585938 c 2
 163.375 339.850585938 l 2
 138.237304688 339.850585938 118 360.088867188 118 385.2265625 c 2
 118 412.451171875 l 2
 118 437.588867188 138.237304688 457.826171875 163.375 457.826171875 c 2
571.748046875 457.826171875 m 2
 662.498046875 457.826171875 l 2
 687.635742188 457.826171875 707.873046875 437.588867188 707.873046875 412.451171875 c 2
 707.873046875 385.2265625 l 2
 707.873046875 360.088867188 687.635742188 339.850585938 662.498046875 339.850585938 c 2
 571.748046875 339.850585938 l 2
 546.610351562 339.850585938 526.374023438 360.088867188 526.374023438 385.2265625 c 2
 526.374023438 412.451171875 l 2
 526.374023438 437.588867188 546.610351562 457.826171875 571.748046875 457.826171875 c 2
394.786132812 430.6015625 m 2
 431.0859375 430.6015625 l 2
 448.682617188 430.6015625 462.848632812 416.435546875 462.848632812 398.838867188 c 2
 462.848632812 344.388671875 l 2
 462.848632812 326.791992188 448.682617188 312.625976562 431.0859375 312.625976562 c 2
 394.786132812 312.625976562 l 2
 377.190429688 312.625976562 363.0234375 326.791992188 363.0234375 344.388671875 c 2
 363.0234375 398.838867188 l 2
 363.0234375 416.435546875 377.190429688 430.6015625 394.786132812 430.6015625 c 2
149.76171875 330.776367188 m 2
 186.061523438 330.776367188 l 2
 203.658203125 330.776367188 217.825195312 316.610351562 217.825195312 299.013671875 c 2
 217.825195312 244.563476562 l 2
 217.825195312 226.967773438 203.658203125 212.801757812 186.061523438 212.801757812 c 2
 149.76171875 212.801757812 l 2
 132.166015625 212.801757812 118 226.967773438 118 244.563476562 c 2
 118 299.013671875 l 2
 118 316.610351562 132.166015625 330.776367188 149.76171875 330.776367188 c 2
281.349609375 258.176757812 m 2
 544.5234375 258.176757812 l 2
 569.661132812 258.176757812 589.8984375 237.939453125 589.8984375 212.801757812 c 2
 589.8984375 185.577148438 l 2
 589.8984375 160.438476562 569.661132812 140.202148438 544.5234375 140.202148438 c 2
 281.349609375 140.202148438 l 2
 256.211914062 140.202148438 235.974609375 160.438476562 235.974609375 185.577148438 c 2
 235.974609375 212.801757812 l 2
 235.974609375 237.939453125 256.211914062 258.176757812 281.349609375 258.176757812 c 2
639.810546875 185.577148438 m 2
 676.110351562 185.577148438 l 2
 693.70703125 185.577148438 707.873046875 171.411132812 707.873046875 153.814453125 c 2
 707.873046875 99.3642578125 l 2
 707.873046875 81.767578125 693.70703125 67.6015625 676.110351562 67.6015625 c 2
 639.810546875 67.6015625 l 2
 622.213867188 67.6015625 608.047851562 81.767578125 608.047851562 99.3642578125 c 2
 608.047851562 153.814453125 l 2
 608.047851562 171.411132812 622.213867188 185.577148438 639.810546875 185.577148438 c 2
394.786132812 85.751953125 m 2
 431.0859375 85.751953125 l 2
 448.682617188 85.751953125 462.848632812 71.5859375 462.848632812 53.9892578125 c 2
 462.848632812 -0.4609375 l 2
 462.848632812 -18.0556640625 448.682617188 -32.2216796875 431.0859375 -32.2216796875 c 2
 394.786132812 -32.2216796875 l 2
 377.190429688 -32.2216796875 363.0234375 -18.0556640625 363.0234375 -0.4609375 c 2
 363.0234375 53.9892578125 l 2
 363.0234375 71.5859375 377.190429688 85.751953125 394.786132812 85.751953125 c 2
163.375 49.453125 m 2
 254.124023438 49.453125 l 2
 279.26171875 49.453125 299.499023438 29.21484375 299.499023438 4.0771484375 c 2
 299.499023438 -23.1474609375 l 2
 299.499023438 -48.28515625 279.26171875 -68.521484375 254.124023438 -68.521484375 c 2
 163.375 -68.521484375 l 2
 138.237304688 -68.521484375 118 -48.28515625 118 -23.1474609375 c 2
 118 4.0771484375 l 2
 118 29.21484375 138.237304688 49.453125 163.375 49.453125 c 2
571.748046875 49.453125 m 2
 662.498046875 49.453125 l 2
 687.635742188 49.453125 707.873046875 29.21484375 707.873046875 4.0771484375 c 2
 707.873046875 -23.1474609375 l 2
 707.873046875 -48.28515625 687.635742188 -68.521484375 662.498046875 -68.521484375 c 2
 571.748046875 -68.521484375 l 2
 546.610351562 -68.521484375 526.374023438 -48.28515625 526.374023438 -23.1474609375 c 2
 526.374023438 4.0771484375 l 2
 526.374023438 29.21484375 546.610351562 49.453125 571.748046875 49.453125 c 2
254.124023438 -86.671875 m 2
 571.748046875 -86.671875 l 2
 596.885742188 -86.671875 617.123046875 -106.909179688 617.123046875 -132.046875 c 2
 617.123046875 -159.272460938 l 2
 617.123046875 -184.409179688 596.885742188 -204.646484375 571.748046875 -204.646484375 c 2
 254.124023438 -204.646484375 l 2
 228.986328125 -204.646484375 208.75 -184.409179688 208.75 -159.272460938 c 2
 208.75 -132.046875 l 2
 208.75 -106.909179688 228.986328125 -86.671875 254.124023438 -86.671875 c 2
394.786132812 -213.721679688 m 2
 431.0859375 -213.721679688 l 2
 448.682617188 -213.721679688 462.848632812 -227.887695312 462.848632812 -245.483398438 c 2
 462.848632812 -299.93359375 l 2
 462.848632812 -317.530273438 448.682617188 -331.696289062 431.0859375 -331.696289062 c 2
 394.786132812 -331.696289062 l 2
 377.190429688 -331.696289062 363.0234375 -317.530273438 363.0234375 -299.93359375 c 2
 363.0234375 -245.483398438 l 2
 363.0234375 -227.887695312 377.190429688 -213.721679688 394.786132812 -213.721679688 c 2
EndSplineSet
Validated: 1
EndChar

StartChar: uni0080
Encoding: 128 215 94
Width: 471
Flags: HW
LayerCount: 2
Fore
SplineSet
328.421875 322.494140625 m 1
 328.43359375 322.485351562 l 1
 340.034179688 322.485351562 351.645507812 318.047851562 360.534179688 309.154296875 c 2
 379.783203125 289.905273438 l 2
 397.557617188 272.13671875 397.557617188 243.5234375 379.783203125 225.74609375 c 2
 315.602539062 161.567382812 l 1
 379.783203125 97.3798828125 l 2
 397.557617188 79.611328125 397.556640625 50.9990234375 379.783203125 33.220703125 c 2
 360.5234375 13.9638671875 l 2
 342.750976562 -3.8134765625 314.120117188 -3.8134765625 296.344726562 13.9638671875 c 2
 232.163085938 78.16015625 l 1
 168 14 l 2
 150.224609375 -3.7783203125 121.611328125 -3.7783203125 103.836914062 14 c 2
 84.5869140625 33.248046875 l 2
 66.8115234375 51.025390625 66.8115234375 79.6298828125 84.5869140625 97.4072265625 c 2
 148.75 161.567382812 l 1
 84.5859375 225.737304688 l 2
 66.810546875 243.514648438 66.8115234375 272.119140625 84.5859375 289.896484375 c 2
 103.8359375 309.14453125 l 2
 121.610351562 326.922851562 150.221679688 326.922851562 167.997070312 309.14453125 c 2
 232.161132812 244.984375 l 1
 296.340820312 309.163085938 l 2
 305.227539062 318.047851562 316.823242188 322.494140625 328.421875 322.494140625 c 1
EndSplineSet
EndChar

StartChar: NameMe.127
Encoding: 127 8364 95
Width: 898
Flags: HW
LayerCount: 2
Fore
SplineSet
337.174804688 594 m 2
 672.948242188 594 l 2
 698.084960938 594 718.322265625 573.763671875 718.322265625 548.625976562 c 2
 718.322265625 521.401367188 l 2
 718.322265625 496.263671875 698.084960938 476.025390625 672.948242188 476.025390625 c 2
 337.174804688 476.025390625 l 2
 312.036132812 476.025390625 291.798828125 496.263671875 291.798828125 521.401367188 c 2
 291.798828125 548.625976562 l 2
 291.798828125 573.763671875 312.036132812 594 337.174804688 594 c 2
246.424804688 457.875976562 m 2
 337.174804688 457.875976562 l 2
 362.311523438 457.875976562 382.548828125 437.638671875 382.548828125 412.500976562 c 2
 382.548828125 385.276367188 l 2
 382.548828125 360.138671875 362.311523438 339.901367188 337.174804688 339.901367188 c 2
 246.424804688 339.901367188 l 2
 221.287109375 339.901367188 201.049804688 360.138671875 201.049804688 385.276367188 c 2
 201.049804688 412.500976562 l 2
 201.049804688 437.638671875 221.287109375 457.875976562 246.424804688 457.875976562 c 2
672.948242188 448.80078125 m 2
 763.697265625 448.80078125 l 2
 788.834960938 448.80078125 809.072265625 428.564453125 809.072265625 403.426757812 c 2
 809.072265625 376.202148438 l 2
 809.072265625 351.063476562 788.834960938 330.826171875 763.697265625 330.826171875 c 2
 672.948242188 330.826171875 l 2
 647.810546875 330.826171875 627.573242188 351.063476562 627.573242188 376.202148438 c 2
 627.573242188 403.426757812 l 2
 627.573242188 428.564453125 647.810546875 448.80078125 672.948242188 448.80078125 c 2
119.375 321.751953125 m 2
 527.748046875 321.751953125 l 2
 552.88671875 321.751953125 573.123046875 301.513671875 573.123046875 276.376953125 c 2
 573.123046875 249.151367188 l 2
 573.123046875 224.014648438 552.88671875 203.776367188 527.748046875 203.776367188 c 2
 119.375 203.776367188 l 2
 94.2373046875 203.776367188 74 224.014648438 74 249.151367188 c 2
 74 276.376953125 l 2
 74 301.513671875 94.2373046875 321.751953125 119.375 321.751953125 c 2
119.375 185.626953125 m 2
 527.748046875 185.626953125 l 2
 552.88671875 185.626953125 573.123046875 165.389648438 573.123046875 140.251953125 c 2
 573.123046875 113.02734375 l 2
 573.123046875 87.8896484375 552.88671875 67.65234375 527.748046875 67.65234375 c 2
 119.375 67.65234375 l 2
 94.2373046875 67.65234375 74 87.8896484375 74 113.02734375 c 2
 74 140.251953125 l 2
 74 165.389648438 94.2373046875 185.626953125 119.375 185.626953125 c 2
246.424804688 49.5029296875 m 2
 337.174804688 49.5029296875 l 2
 362.311523438 49.5029296875 382.548828125 29.2646484375 382.548828125 4.1279296875 c 2
 382.548828125 -23.09765625 l 2
 382.548828125 -48.234375 362.311523438 -68.4716796875 337.174804688 -68.4716796875 c 2
 246.424804688 -68.4716796875 l 2
 221.287109375 -68.4716796875 201.049804688 -48.234375 201.049804688 -23.09765625 c 2
 201.049804688 4.1279296875 l 2
 201.049804688 29.2646484375 221.287109375 49.5029296875 246.424804688 49.5029296875 c 2
672.948242188 49.5029296875 m 2
 763.697265625 49.5029296875 l 2
 788.834960938 49.5029296875 809.072265625 29.2646484375 809.072265625 4.1279296875 c 2
 809.072265625 -23.09765625 l 2
 809.072265625 -48.234375 788.834960938 -68.4716796875 763.697265625 -68.4716796875 c 2
 672.948242188 -68.4716796875 l 2
 647.810546875 -68.4716796875 627.573242188 -48.234375 627.573242188 -23.09765625 c 2
 627.573242188 4.1279296875 l 2
 627.573242188 29.2646484375 647.810546875 49.5029296875 672.948242188 49.5029296875 c 2
337.174804688 -86.6220703125 m 2
 672.948242188 -86.6220703125 l 2
 697.995117188 -86.6220703125 718.322265625 -106.950195312 718.322265625 -131.997070312 c 2
 718.322265625 -159.221679688 l 2
 718.322265625 -184.268554688 697.995117188 -204.595703125 672.948242188 -204.595703125 c 2
 337.174804688 -204.595703125 l 2
 312.126953125 -204.595703125 291.798828125 -184.268554688 291.798828125 -159.221679688 c 2
 291.798828125 -131.997070312 l 2
 291.798828125 -106.950195312 312.126953125 -86.6220703125 337.174804688 -86.6220703125 c 2
EndSplineSet
Validated: 524289
EndChar

StartChar: NameMe.92
Encoding: 92 231 96
Width: 700
Flags: HW
LayerCount: 2
Fore
SplineSet
575.217773438 278.5 m 2
 575.217773438 251.200195312 l 2
 575.217773438 226.075195312 554.845703125 205.700195312 529.717773438 205.700195312 c 2
 165.71875 205.700195312 l 2
 140.58984375 205.700195312 120.21875 226.075195312 120.21875 251.200195312 c 2
 120.21875 278.5 l 2
 120.21875 303.625 140.58984375 324 165.71875 324 c 2
 529.717773438 324 l 2
 554.845703125 324 575.217773438 303.625 575.217773438 278.5 c 2
575.217773438 -130.997070312 m 2
 575.217773438 -158.296875 l 2
 575.217773438 -183.421875 554.845703125 -203.796875 529.717773438 -203.796875 c 2
 165.71875 -203.796875 l 2
 140.58984375 -203.796875 120.21875 -183.421875 120.21875 -158.296875 c 2
 120.21875 -130.997070312 l 2
 120.21875 -105.872070312 140.58984375 -85.4970703125 165.71875 -85.4970703125 c 2
 529.717773438 -85.4970703125 l 2
 554.845703125 -85.4970703125 575.217773438 -105.872070312 575.217773438 -130.997070312 c 2
302.436523438 142.002929688 m 2
 302.436523438 114.702148438 l 2
 302.436523438 89.5771484375 282.065429688 69.203125 256.936523438 69.203125 c 2
 250.341796875 69.2021484375 l 1
 165.5 69.2001953125 l 2
 140.37109375 69.2001953125 120 89.5751953125 120 114.700195312 c 2
 120 142 l 2
 120 167.125976562 140.37109375 187.5 165.5 187.5 c 2
 256.936523438 187.501953125 l 2
 282.065429688 187.502929688 302.436523438 167.127929688 302.436523438 142.002929688 c 2
302.436523438 5.5029296875 m 2
 302.436523438 -21.796875 l 2
 302.436523438 -46.921875 282.065429688 -67.2958984375 256.936523438 -67.296875 c 2
 250.341796875 -67.296875 l 1
 165.5 -67.298828125 l 2
 140.37109375 -67.2998046875 120 -46.923828125 120 -21.798828125 c 2
 120 5.5009765625 l 2
 120 30.6259765625 140.37109375 51 165.5 51.0009765625 c 2
 256.936523438 51.0029296875 l 2
 282.065429688 51.0029296875 302.436523438 30.6279296875 302.436523438 5.5029296875 c 2
502.635742188 -267.497070312 m 2
 502.635742188 -294.796875 l 2
 502.635742188 -319.921875 482.264648438 -340.296875 457.135742188 -340.296875 c 2
 450.541015625 -340.296875 l 1
 365.69921875 -340.298828125 l 2
 340.5703125 -340.299804688 320.19921875 -319.923828125 320.19921875 -294.798828125 c 2
 320.19921875 -267.499023438 l 2
 320.19921875 -242.374023438 340.5703125 -222 365.69921875 -221.999023438 c 2
 457.135742188 -221.997070312 l 2
 482.264648438 -221.997070312 502.635742188 -242.372070312 502.635742188 -267.497070312 c 2
EndSplineSet
Validated: 33
EndChar

StartChar: NameMe.129
Encoding: 129 199 97
Width: 783
Flags: HW
LayerCount: 2
Fore
SplineSet
163.5 598 m 2
 618.5 598 l 2
 643.70703125 598 664 577.70703125 664 552.5 c 2
 664 525.201171875 l 2
 664 499.994140625 643.70703125 479.701171875 618.5 479.701171875 c 2
 163.5 479.701171875 l 2
 138.29296875 479.701171875 118 499.994140625 118 525.201171875 c 2
 118 552.5 l 2
 118 577.70703125 138.29296875 598 163.5 598 c 2
163.5 461.501953125 m 2
 254.5 461.501953125 l 2
 279.70703125 461.501953125 300 441.208984375 300 416.001953125 c 2
 300 388.701171875 l 2
 300 363.494140625 279.70703125 343.201171875 254.5 343.201171875 c 2
 163.5 343.201171875 l 2
 138.29296875 343.201171875 118 363.494140625 118 388.701171875 c 2
 118 416.001953125 l 2
 118 441.208984375 138.29296875 461.501953125 163.5 461.501953125 c 2
163.5 325.001953125 m 2
 254.5 325.001953125 l 2
 279.70703125 325.001953125 300 304.708984375 300 279.501953125 c 2
 300 252.201171875 l 2
 300 226.994140625 279.70703125 206.701171875 254.5 206.701171875 c 2
 163.5 206.701171875 l 2
 138.29296875 206.701171875 118 226.994140625 118 252.201171875 c 2
 118 279.501953125 l 2
 118 304.708984375 138.29296875 325.001953125 163.5 325.001953125 c 2
163.5 188.501953125 m 2
 254.5 188.501953125 l 2
 279.70703125 188.501953125 300 168.208984375 300 143.001953125 c 2
 300 115.703125 l 2
 300 90.49609375 279.70703125 70.203125 254.5 70.203125 c 2
 163.5 70.203125 l 2
 138.29296875 70.203125 118 90.49609375 118 115.703125 c 2
 118 143.001953125 l 2
 118 168.208984375 138.29296875 188.501953125 163.5 188.501953125 c 2
163.5 52.001953125 m 2
 254.5 52.001953125 l 2
 279.70703125 52.001953125 300 31.708984375 300 6.501953125 c 2
 300 -20.796875 l 2
 300 -46.00390625 279.70703125 -66.296875 254.5 -66.296875 c 2
 163.5 -66.296875 l 2
 138.29296875 -66.296875 118 -46.00390625 118 -20.796875 c 2
 118 6.501953125 l 2
 118 31.708984375 138.29296875 52.001953125 163.5 52.001953125 c 2
163.5 -84.498046875 m 2
 618.5 -84.498046875 l 2
 643.70703125 -84.498046875 664 -104.791015625 664 -129.998046875 c 2
 664 -157.296875 l 2
 664 -182.50390625 643.70703125 -202.796875 618.5 -202.796875 c 2
 163.5 -202.796875 l 2
 138.29296875 -202.796875 118 -182.50390625 118 -157.296875 c 2
 118 -129.998046875 l 2
 118 -104.791015625 138.29296875 -84.498046875 163.5 -84.498046875 c 2
418.298828125 -220.99609375 m 2
 509.298828125 -220.99609375 l 2
 534.505859375 -220.99609375 554.798828125 -241.2890625 554.798828125 -266.49609375 c 2
 554.798828125 -293.796875 l 2
 554.798828125 -319.00390625 534.505859375 -339.296875 509.298828125 -339.296875 c 2
 418.298828125 -339.296875 l 2
 393.091796875 -339.296875 372.798828125 -319.00390625 372.798828125 -293.796875 c 2
 372.798828125 -266.49609375 l 2
 372.798828125 -241.2890625 393.091796875 -220.99609375 418.298828125 -220.99609375 c 2
345.5 -357.49609375 m 2
 436.5 -357.49609375 l 2
 461.70703125 -357.49609375 482 -377.7890625 482 -402.99609375 c 2
 482 -430.296875 l 2
 482 -455.50390625 461.70703125 -475.796875 436.5 -475.796875 c 2
 345.5 -475.796875 l 2
 320.29296875 -475.796875 300 -455.50390625 300 -430.296875 c 2
 300 -402.99609375 l 2
 300 -377.7890625 320.29296875 -357.49609375 345.5 -357.49609375 c 2
EndSplineSet
Validated: 524289
EndChar

StartChar: NameMe.163
Encoding: 163 193 98
Width: 746
Flags: HW
LayerCount: 2
Fore
SplineSet
400.348632812 938 m 2
 536.473632812 938 l 2
 561.533203125 938 581.848632812 917.680664062 581.848632812 892.625 c 2
 581.848632812 865.399414062 l 2
 581.848632812 840.34375 561.533203125 820.024414062 536.473632812 820.024414062 c 2
 400.348632812 820.024414062 l 2
 375.2890625 820.024414062 354.974609375 840.34375 354.974609375 865.399414062 c 2
 354.974609375 892.625 l 2
 354.974609375 917.680664062 375.2890625 938 400.348632812 938 c 2
282.374023438 801.875 m 2
 418.499023438 801.875 l 2
 443.63671875 801.875 463.874023438 781.637695312 463.874023438 756.5 c 2
 463.874023438 729.275390625 l 2
 463.874023438 704.137695312 443.63671875 683.899414062 418.499023438 683.899414062 c 2
 282.374023438 683.899414062 l 2
 257.236328125 683.899414062 237 704.137695312 237 729.275390625 c 2
 237 756.5 l 2
 237 781.637695312 257.236328125 801.875 282.374023438 801.875 c 2
140 614 m 2
 605 614 l 2
 631 614 652 593 652 567 c 2
 652 539 l 2
 652 513 631 493 605 493 c 2
 140 493 l 2
 114 493 94 513 94 539 c 2
 94 567 l 2
 94 593 114 614 140 614 c 2
140 474 m 2
 233 474 l 2
 259 474 280 454 280 428 c 2
 280 400 l 2
 280 374 259 353 233 353 c 2
 140 353 l 2
 114 353 94 374 94 400 c 2
 94 428 l 2
 94 454 114 474 140 474 c 2
512 474 m 2
 605 474 l 2
 631 474 652 454 652 428 c 2
 652 400 l 2
 652 374 631 353 605 353 c 2
 512 353 l 2
 486 353 466 374 466 400 c 2
 466 428 l 2
 466 454 486 474 512 474 c 2
140 335 m 2
 233 335 l 2
 259 335 280 314 280 288 c 2
 280 260 l 2
 280 234 259 214 233 214 c 2
 140 214 l 2
 114 214 94 234 94 260 c 2
 94 288 l 2
 94 314 114 335 140 335 c 2
512 335 m 2
 605 335 l 2
 631 335 652 314 652 288 c 2
 652 260 l 2
 652 234 631 214 605 214 c 2
 512 214 l 2
 486 214 466 234 466 260 c 2
 466 288 l 2
 466 314 486 335 512 335 c 2
140 195 m 2
 605 195 l 2
 631 195 652 175 652 149 c 2
 652 121 l 2
 652 95 631 74 605 74 c 2
 140 74 l 2
 114 74 94 95 94 121 c 2
 94 149 l 2
 94 175 114 195 140 195 c 2
140 56 m 2
 233 56 l 2
 259 56 280 35 280 9 c 2
 280 -19 l 2
 280 -45 259 -65 233 -65 c 2
 140 -65 l 2
 114 -65 94 -45 94 -19 c 2
 94 9 l 2
 94 35 114 56 140 56 c 2
512 56 m 2
 605 56 l 2
 631 56 652 35 652 9 c 2
 652 -19 l 2
 652 -45 631 -65 605 -65 c 2
 512 -65 l 2
 486 -65 466 -45 466 -19 c 2
 466 9 l 2
 466 35 486 56 512 56 c 2
140 -84 m 2
 233 -84 l 2
 259 -84 280 -104 280 -130 c 2
 280 -158 l 2
 280 -184 259 -205 233 -205 c 2
 140 -205 l 2
 114 -205 94 -184 94 -158 c 2
 94 -130 l 2
 94 -104 114 -84 140 -84 c 2
512 -84 m 2
 605 -84 l 2
 631 -84 652 -104 652 -130 c 2
 652 -158 l 2
 652 -184 631 -205 605 -205 c 2
 512 -205 l 2
 486 -205 466 -184 466 -158 c 2
 466 -130 l 2
 466 -104 486 -84 512 -84 c 2
EndSplineSet
Validated: 1
EndChar

StartChar: NameMe.164
Encoding: 164 192 99
Width: 746
Flags: HW
LayerCount: 2
Fore
SplineSet
224 939 m 2
 361 939 l 2
 386 939 406 919 406 894 c 2
 406 866 l 2
 406 841 386 820 361 820 c 2
 224 820 l 2
 199 820 178 841 178 866 c 2
 178 894 l 2
 178 919 199 939 224 939 c 2
342 802 m 2
 479 802 l 2
 504 802 525 781 525 756 c 2
 525 729 l 2
 525 704 504 683 479 683 c 2
 342 683 l 2
 317 683 297 704 297 729 c 2
 297 756 l 2
 297 781 317 802 342 802 c 2
140 614 m 2
 605 614 l 2
 631 614 652 593 652 567 c 2
 652 539 l 2
 652 513 631 493 605 493 c 2
 140 493 l 2
 114 493 94 513 94 539 c 2
 94 567 l 2
 94 593 114 614 140 614 c 2
140 474 m 2
 233 474 l 2
 259 474 280 454 280 428 c 2
 280 400 l 2
 280 374 259 353 233 353 c 2
 140 353 l 2
 114 353 94 374 94 400 c 2
 94 428 l 2
 94 454 114 474 140 474 c 2
512 474 m 2
 605 474 l 2
 631 474 652 454 652 428 c 2
 652 400 l 2
 652 374 631 353 605 353 c 2
 512 353 l 2
 486 353 466 374 466 400 c 2
 466 428 l 2
 466 454 486 474 512 474 c 2
140 335 m 2
 233 335 l 2
 259 335 280 314 280 288 c 2
 280 260 l 2
 280 234 259 214 233 214 c 2
 140 214 l 2
 114 214 94 234 94 260 c 2
 94 288 l 2
 94 314 114 335 140 335 c 2
512 335 m 2
 605 335 l 2
 631 335 652 314 652 288 c 2
 652 260 l 2
 652 234 631 214 605 214 c 2
 512 214 l 2
 486 214 466 234 466 260 c 2
 466 288 l 2
 466 314 486 335 512 335 c 2
140 195 m 2
 605 195 l 2
 631 195 652 175 652 149 c 2
 652 121 l 2
 652 95 631 74 605 74 c 2
 140 74 l 2
 114 74 94 95 94 121 c 2
 94 149 l 2
 94 175 114 195 140 195 c 2
140 56 m 2
 233 56 l 2
 259 56 280 35 280 9 c 2
 280 -19 l 2
 280 -45 259 -65 233 -65 c 2
 140 -65 l 2
 114 -65 94 -45 94 -19 c 2
 94 9 l 2
 94 35 114 56 140 56 c 2
512 56 m 2
 605 56 l 2
 631 56 652 35 652 9 c 2
 652 -19 l 2
 652 -45 631 -65 605 -65 c 2
 512 -65 l 2
 486 -65 466 -45 466 -19 c 2
 466 9 l 2
 466 35 486 56 512 56 c 2
140 -84 m 2
 233 -84 l 2
 259 -84 280 -104 280 -130 c 2
 280 -158 l 2
 280 -184 259 -205 233 -205 c 2
 140 -205 l 2
 114 -205 94 -184 94 -158 c 2
 94 -130 l 2
 94 -104 114 -84 140 -84 c 2
512 -84 m 2
 605 -84 l 2
 631 -84 652 -104 652 -130 c 2
 652 -158 l 2
 652 -184 631 -205 605 -205 c 2
 512 -205 l 2
 486 -205 466 -184 466 -158 c 2
 466 -130 l 2
 466 -104 486 -84 512 -84 c 2
EndSplineSet
Validated: 1
EndChar

StartChar: NameMe.165
Encoding: 165 194 100
Width: 746
Flags: HW
LayerCount: 2
Fore
SplineSet
330 939 m 2
 403 939 l 2
 428 939 451 919 451 894 c 2
 451 866 l 2
 451 841 430 820 405 820 c 2
 332 820 l 2
 307 820 286 841 286 866 c 2
 286 894 l 2
 286 919 305 939 330 939 c 2
241 802 m 2
 305 802 l 2
 330 802 350 781 350 756 c 2
 350 729 l 2
 350 704 330 683 305 683 c 2
 241 683 l 2
 216 683 195 704 195 729 c 2
 195 756 l 2
 195 781 216 802 241 802 c 2
433 802 m 2
 506 802 l 2
 531 802 551 781 551 756 c 2
 551 729 l 2
 551 704 531 683 506 683 c 2
 433 683 l 2
 408 683 387 704 387 729 c 2
 387 756 l 2
 387 781 408 802 433 802 c 2
140 614 m 2
 605 614 l 2
 631 614 652 593 652 567 c 2
 652 539 l 2
 652 513 631 493 605 493 c 2
 140 493 l 2
 114 493 94 513 94 539 c 2
 94 567 l 2
 94 593 114 614 140 614 c 2
140 474 m 2
 233 474 l 2
 259 474 280 454 280 428 c 2
 280 400 l 2
 280 374 259 353 233 353 c 2
 140 353 l 2
 114 353 94 374 94 400 c 2
 94 428 l 2
 94 454 114 474 140 474 c 2
512 474 m 2
 605 474 l 2
 631 474 652 454 652 428 c 2
 652 400 l 2
 652 374 631 353 605 353 c 2
 512 353 l 2
 486 353 466 374 466 400 c 2
 466 428 l 2
 466 454 486 474 512 474 c 2
140 335 m 2
 233 335 l 2
 259 335 280 314 280 288 c 2
 280 260 l 2
 280 234 259 214 233 214 c 2
 140 214 l 2
 114 214 94 234 94 260 c 2
 94 288 l 2
 94 314 114 335 140 335 c 2
512 335 m 2
 605 335 l 2
 631 335 652 314 652 288 c 2
 652 260 l 2
 652 234 631 214 605 214 c 2
 512 214 l 2
 486 214 466 234 466 260 c 2
 466 288 l 2
 466 314 486 335 512 335 c 2
140 195 m 2
 605 195 l 2
 631 195 652 175 652 149 c 2
 652 121 l 2
 652 95 631 74 605 74 c 2
 140 74 l 2
 114 74 94 95 94 121 c 2
 94 149 l 2
 94 175 114 195 140 195 c 2
140 56 m 2
 233 56 l 2
 259 56 280 35 280 9 c 2
 280 -19 l 2
 280 -45 259 -65 233 -65 c 2
 140 -65 l 2
 114 -65 94 -45 94 -19 c 2
 94 9 l 2
 94 35 114 56 140 56 c 2
512 56 m 2
 605 56 l 2
 631 56 652 35 652 9 c 2
 652 -19 l 2
 652 -45 631 -65 605 -65 c 2
 512 -65 l 2
 486 -65 466 -45 466 -19 c 2
 466 9 l 2
 466 35 486 56 512 56 c 2
140 -84 m 2
 233 -84 l 2
 259 -84 280 -104 280 -130 c 2
 280 -158 l 2
 280 -184 259 -205 233 -205 c 2
 140 -205 l 2
 114 -205 94 -184 94 -158 c 2
 94 -130 l 2
 94 -104 114 -84 140 -84 c 2
512 -84 m 2
 605 -84 l 2
 631 -84 652 -104 652 -130 c 2
 652 -158 l 2
 652 -184 631 -205 605 -205 c 2
 512 -205 l 2
 486 -205 466 -184 466 -158 c 2
 466 -130 l 2
 466 -104 486 -84 512 -84 c 2
EndSplineSet
Validated: 1
EndChar

StartChar: NameMe.166
Encoding: 166 195 101
Width: 746
Flags: HW
LayerCount: 2
Fore
SplineSet
132 939 m 2
 169 939 l 2
 187 939 200 925 200 907 c 2
 200 852 l 2
 200 834 187 820 169 820 c 2
 132 820 l 2
 114 820 100 834 100 852 c 2
 100 907 l 2
 100 925 114 939 132 939 c 2
347 939 m 2
 529 939 l 2
 554 939 575 919 575 894 c 2
 575 866 l 2
 575 841 554 820 529 820 c 2
 347 820 l 2
 322 820 301 841 301 866 c 2
 301 894 l 2
 301 919 322 939 347 939 c 2
561 802 m 2
 598 802 l 2
 616 802 630 788 630 770 c 2
 630 715 l 2
 630 697 616 683 598 683 c 2
 561 683 l 2
 543 683 529 697 529 715 c 2
 529 770 l 2
 529 788 543 802 561 802 c 2
191 802 m 2
 374 802 l 2
 399 802 420 781 420 756 c 2
 420 729 l 2
 420 704 399 683 374 683 c 2
 191 683 l 2
 166 683 146 704 146 729 c 2
 146 756 l 2
 146 781 166 802 191 802 c 2
140 614 m 2
 605 614 l 2
 631 614 652 593 652 567 c 2
 652 539 l 2
 652 513 631 493 605 493 c 2
 140 493 l 2
 114 493 94 513 94 539 c 2
 94 567 l 2
 94 593 114 614 140 614 c 2
140 474 m 2
 233 474 l 2
 259 474 280 454 280 428 c 2
 280 400 l 2
 280 374 259 353 233 353 c 2
 140 353 l 2
 114 353 94 374 94 400 c 2
 94 428 l 2
 94 454 114 474 140 474 c 2
512 474 m 2
 605 474 l 2
 631 474 652 454 652 428 c 2
 652 400 l 2
 652 374 631 353 605 353 c 2
 512 353 l 2
 486 353 466 374 466 400 c 2
 466 428 l 2
 466 454 486 474 512 474 c 2
140 335 m 2
 233 335 l 2
 259 335 280 314 280 288 c 2
 280 260 l 2
 280 234 259 214 233 214 c 2
 140 214 l 2
 114 214 94 234 94 260 c 2
 94 288 l 2
 94 314 114 335 140 335 c 2
512 335 m 2
 605 335 l 2
 631 335 652 314 652 288 c 2
 652 260 l 2
 652 234 631 214 605 214 c 2
 512 214 l 2
 486 214 466 234 466 260 c 2
 466 288 l 2
 466 314 486 335 512 335 c 2
140 195 m 2
 605 195 l 2
 631 195 652 175 652 149 c 2
 652 121 l 2
 652 95 631 74 605 74 c 2
 140 74 l 2
 114 74 94 95 94 121 c 2
 94 149 l 2
 94 175 114 195 140 195 c 2
140 56 m 2
 233 56 l 2
 259 56 280 35 280 9 c 2
 280 -19 l 2
 280 -45 259 -65 233 -65 c 2
 140 -65 l 2
 114 -65 94 -45 94 -19 c 2
 94 9 l 2
 94 35 114 56 140 56 c 2
512 56 m 2
 605 56 l 2
 631 56 652 35 652 9 c 2
 652 -19 l 2
 652 -45 631 -65 605 -65 c 2
 512 -65 l 2
 486 -65 466 -45 466 -19 c 2
 466 9 l 2
 466 35 486 56 512 56 c 2
140 -84 m 2
 233 -84 l 2
 259 -84 280 -104 280 -130 c 2
 280 -158 l 2
 280 -184 259 -205 233 -205 c 2
 140 -205 l 2
 114 -205 94 -184 94 -158 c 2
 94 -130 l 2
 94 -104 114 -84 140 -84 c 2
512 -84 m 2
 605 -84 l 2
 631 -84 652 -104 652 -130 c 2
 652 -158 l 2
 652 -184 631 -205 605 -205 c 2
 512 -205 l 2
 486 -205 466 -184 466 -158 c 2
 466 -130 l 2
 466 -104 486 -84 512 -84 c 2
EndSplineSet
Validated: 1
EndChar

StartChar: NameMe.190
Encoding: 190 225 102
Width: 711
Flags: HW
LayerCount: 2
Fore
SplineSet
398.348632812 659 m 2
 534.473632812 659 l 2
 559.533203125 659 579.848632812 638.680664062 579.848632812 613.625 c 2
 579.848632812 586.399414062 l 2
 579.848632812 561.34375 559.533203125 541.024414062 534.473632812 541.024414062 c 2
 398.348632812 541.024414062 l 2
 373.2890625 541.024414062 352.974609375 561.34375 352.974609375 586.399414062 c 2
 352.974609375 613.625 l 2
 352.974609375 638.680664062 373.2890625 659 398.348632812 659 c 2
280.374023438 522.875 m 2
 416.499023438 522.875 l 2
 441.63671875 522.875 461.874023438 502.637695312 461.874023438 477.5 c 2
 461.874023438 450.275390625 l 2
 461.874023438 425.137695312 441.63671875 404.899414062 416.499023438 404.899414062 c 2
 280.374023438 404.899414062 l 2
 255.236328125 404.899414062 235 425.137695312 235 450.275390625 c 2
 235 477.5 l 2
 235 502.637695312 255.236328125 522.875 280.374023438 522.875 c 2
149 326 m 2
 468 326 l 2
 493 326 514 305 514 280 c 2
 514 253 l 2
 514 228 493 207 468 207 c 2
 149 207 l 2
 124 207 103 228 103 253 c 2
 103 280 l 2
 103 305 124 326 149 326 c 2
240 189 m 2
 560 189 l 2
 585 189 605 168 605 143 c 2
 605 116 l 2
 605 91 585 70 560 70 c 2
 240 70 l 2
 215 70 194 91 194 116 c 2
 194 143 l 2
 194 168 215 189 240 189 c 2
149 52 m 2
 240 52 l 2
 265 52 286 31 286 6 c 2
 286 -21 l 2
 286 -46 265 -67 240 -67 c 2
 149 -67 l 2
 124 -67 103 -46 103 -21 c 2
 103 6 l 2
 103 31 124 52 149 52 c 2
468 52 m 2
 560 52 l 2
 585 52 605 31 605 6 c 2
 605 -21 l 2
 605 -46 585 -67 560 -67 c 2
 468 -67 l 2
 443 -67 423 -46 423 -21 c 2
 423 6 l 2
 423 31 443 52 468 52 c 2
240 -85 m 2
 560 -85 l 2
 585 -85 605 -106 605 -131 c 2
 605 -158 l 2
 605 -183 585 -204 560 -204 c 2
 240 -204 l 2
 215 -204 194 -183 194 -158 c 2
 194 -131 l 2
 194 -106 215 -85 240 -85 c 2
EndSplineSet
Validated: 1
EndChar

StartChar: NameMe.191
Encoding: 191 224 103
Width: 709
Flags: HW
LayerCount: 2
Fore
SplineSet
213 642 m 2
 350 642 l 2
 375 642 395 622 395 597 c 2
 395 569 l 2
 395 544 375 523 350 523 c 2
 213 523 l 2
 188 523 167 544 167 569 c 2
 167 597 l 2
 167 622 188 642 213 642 c 2
331 505 m 2
 468 505 l 2
 493 505 514 484 514 459 c 2
 514 432 l 2
 514 407 493 386 468 386 c 2
 331 386 l 2
 306 386 286 407 286 432 c 2
 286 459 l 2
 286 484 306 505 331 505 c 2
149 326 m 2
 468 326 l 2
 493 326 514 305 514 280 c 2
 514 253 l 2
 514 228 493 207 468 207 c 2
 149 207 l 2
 124 207 103 228 103 253 c 2
 103 280 l 2
 103 305 124 326 149 326 c 2
240 189 m 2
 560 189 l 2
 585 189 605 168 605 143 c 2
 605 116 l 2
 605 91 585 70 560 70 c 2
 240 70 l 2
 215 70 194 91 194 116 c 2
 194 143 l 2
 194 168 215 189 240 189 c 2
149 52 m 2
 240 52 l 2
 265 52 286 31 286 6 c 2
 286 -21 l 2
 286 -46 265 -67 240 -67 c 2
 149 -67 l 2
 124 -67 103 -46 103 -21 c 2
 103 6 l 2
 103 31 124 52 149 52 c 2
468 52 m 2
 560 52 l 2
 585 52 605 31 605 6 c 2
 605 -21 l 2
 605 -46 585 -67 560 -67 c 2
 468 -67 l 2
 443 -67 423 -46 423 -21 c 2
 423 6 l 2
 423 31 443 52 468 52 c 2
240 -85 m 2
 560 -85 l 2
 585 -85 605 -106 605 -131 c 2
 605 -158 l 2
 605 -183 585 -204 560 -204 c 2
 240 -204 l 2
 215 -204 194 -183 194 -158 c 2
 194 -131 l 2
 194 -106 215 -85 240 -85 c 2
EndSplineSet
Validated: 1
EndChar

StartChar: NameMe.192
Encoding: 192 226 104
Width: 702
Flags: HW
LayerCount: 2
Fore
SplineSet
316 646 m 2
 389 646 l 2
 414 646 437 626 437 601 c 2
 437 573 l 2
 437 548 416 527 391 527 c 2
 318 527 l 2
 293 527 272 548 272 573 c 2
 272 601 l 2
 272 626 291 646 316 646 c 2
227 509 m 2
 291 509 l 2
 316 509 336 488 336 463 c 2
 336 436 l 2
 336 411 316 390 291 390 c 2
 227 390 l 2
 202 390 181 411 181 436 c 2
 181 463 l 2
 181 488 202 509 227 509 c 2
419 509 m 2
 492 509 l 2
 517 509 537 488 537 463 c 2
 537 436 l 2
 537 411 517 390 492 390 c 2
 419 390 l 2
 394 390 373 411 373 436 c 2
 373 463 l 2
 373 488 394 509 419 509 c 2
140 326 m 2
 459 326 l 2
 484 326 505 305 505 280 c 2
 505 253 l 2
 505 228 484 207 459 207 c 2
 140 207 l 2
 115 207 94 228 94 253 c 2
 94 280 l 2
 94 305 115 326 140 326 c 2
231 189 m 2
 551 189 l 2
 576 189 596 168 596 143 c 2
 596 116 l 2
 596 91 576 70 551 70 c 2
 231 70 l 2
 206 70 185 91 185 116 c 2
 185 143 l 2
 185 168 206 189 231 189 c 2
140 52 m 2
 231 52 l 2
 256 52 277 31 277 6 c 2
 277 -21 l 2
 277 -46 256 -67 231 -67 c 2
 140 -67 l 2
 115 -67 94 -46 94 -21 c 2
 94 6 l 2
 94 31 115 52 140 52 c 2
459 52 m 2
 551 52 l 2
 576 52 596 31 596 6 c 2
 596 -21 l 2
 596 -46 576 -67 551 -67 c 2
 459 -67 l 2
 434 -67 414 -46 414 -21 c 2
 414 6 l 2
 414 31 434 52 459 52 c 2
231 -85 m 2
 551 -85 l 2
 576 -85 596 -106 596 -131 c 2
 596 -158 l 2
 596 -183 576 -204 551 -204 c 2
 231 -204 l 2
 206 -204 185 -183 185 -158 c 2
 185 -131 l 2
 185 -106 206 -85 231 -85 c 2
EndSplineSet
Validated: 1
EndChar

StartChar: NameMe.193
Encoding: 193 227 105
Width: 732
Flags: HW
LayerCount: 2
Fore
SplineSet
150 667 m 2
 187 667 l 2
 205 667 218 653 218 635 c 2
 218 580 l 2
 218 562 205 548 187 548 c 2
 150 548 l 2
 132 548 118 562 118 580 c 2
 118 635 l 2
 118 653 132 667 150 667 c 2
365 667 m 2
 547 667 l 2
 572 667 593 647 593 622 c 2
 593 594 l 2
 593 569 572 548 547 548 c 2
 365 548 l 2
 340 548 319 569 319 594 c 2
 319 622 l 2
 319 647 340 667 365 667 c 2
579 530 m 2
 616 530 l 2
 634 530 648 516 648 498 c 2
 648 443 l 2
 648 425 634 411 616 411 c 2
 579 411 l 2
 561 411 547 425 547 443 c 2
 547 498 l 2
 547 516 561 530 579 530 c 2
209 530 m 2
 392 530 l 2
 417 530 438 509 438 484 c 2
 438 457 l 2
 438 432 417 411 392 411 c 2
 209 411 l 2
 184 411 164 432 164 457 c 2
 164 484 l 2
 164 509 184 530 209 530 c 2
146 326 m 2
 465 326 l 2
 490 326 511 305 511 280 c 2
 511 253 l 2
 511 228 490 207 465 207 c 2
 146 207 l 2
 121 207 100 228 100 253 c 2
 100 280 l 2
 100 305 121 326 146 326 c 2
237 189 m 2
 557 189 l 2
 582 189 602 168 602 143 c 2
 602 116 l 2
 602 91 582 70 557 70 c 2
 237 70 l 2
 212 70 191 91 191 116 c 2
 191 143 l 2
 191 168 212 189 237 189 c 2
146 52 m 2
 237 52 l 2
 262 52 283 31 283 6 c 2
 283 -21 l 2
 283 -46 262 -67 237 -67 c 2
 146 -67 l 2
 121 -67 100 -46 100 -21 c 2
 100 6 l 2
 100 31 121 52 146 52 c 2
465 52 m 2
 557 52 l 2
 582 52 602 31 602 6 c 2
 602 -21 l 2
 602 -46 582 -67 557 -67 c 2
 465 -67 l 2
 440 -67 420 -46 420 -21 c 2
 420 6 l 2
 420 31 440 52 465 52 c 2
237 -85 m 2
 557 -85 l 2
 582 -85 602 -106 602 -131 c 2
 602 -158 l 2
 602 -183 582 -204 557 -204 c 2
 237 -204 l 2
 212 -204 191 -183 191 -158 c 2
 191 -131 l 2
 191 -106 212 -85 237 -85 c 2
EndSplineSet
Validated: 1
EndChar

StartChar: NameMe.167
Encoding: 167 196 106
Width: 746
Flags: HW
LayerCount: 2
Fore
SplineSet
204 746.345703125 m 2
 204 773.5703125 l 2
 203.998046875 798.708984375 224.234375 818.950195312 249.372070312 818.950195312 c 2
 276.596679688 818.950195312 l 2
 301.734375 818.952148438 321.973632812 798.71484375 321.973632812 773.577148438 c 2
 321.973632812 746.352539062 l 2
 321.975585938 721.213867188 301.741210938 700.974609375 276.603515625 700.974609375 c 2
 249.37890625 700.974609375 l 2
 224.240234375 700.97265625 204 721.208007812 204 746.345703125 c 2
410.893554688 746.395507812 m 2
 410.893554688 773.620117188 l 2
 410.891601562 798.758789062 431.126953125 819 456.263671875 819 c 2
 483.489257812 819 l 2
 508.627929688 819.001953125 528.868164062 798.765625 528.868164062 773.626953125 c 2
 528.868164062 746.40234375 l 2
 528.870117188 721.264648438 508.634765625 701.025390625 483.49609375 701.025390625 c 2
 456.271484375 701.025390625 l 2
 431.133789062 701.0234375 410.893554688 721.2578125 410.893554688 746.395507812 c 2
140 614 m 2
 605 614 l 2
 631 614 652 593 652 567 c 2
 652 539 l 2
 652 513 631 493 605 493 c 2
 140 493 l 2
 114 493 94 513 94 539 c 2
 94 567 l 2
 94 593 114 614 140 614 c 2
140 474 m 2
 233 474 l 2
 259 474 280 454 280 428 c 2
 280 400 l 2
 280 374 259 353 233 353 c 2
 140 353 l 2
 114 353 94 374 94 400 c 2
 94 428 l 2
 94 454 114 474 140 474 c 2
512 474 m 2
 605 474 l 2
 631 474 652 454 652 428 c 2
 652 400 l 2
 652 374 631 353 605 353 c 2
 512 353 l 2
 486 353 466 374 466 400 c 2
 466 428 l 2
 466 454 486 474 512 474 c 2
140 335 m 2
 233 335 l 2
 259 335 280 314 280 288 c 2
 280 260 l 2
 280 234 259 214 233 214 c 2
 140 214 l 2
 114 214 94 234 94 260 c 2
 94 288 l 2
 94 314 114 335 140 335 c 2
512 335 m 2
 605 335 l 2
 631 335 652 314 652 288 c 2
 652 260 l 2
 652 234 631 214 605 214 c 2
 512 214 l 2
 486 214 466 234 466 260 c 2
 466 288 l 2
 466 314 486 335 512 335 c 2
140 195 m 2
 605 195 l 2
 631 195 652 175 652 149 c 2
 652 121 l 2
 652 95 631 74 605 74 c 2
 140 74 l 2
 114 74 94 95 94 121 c 2
 94 149 l 2
 94 175 114 195 140 195 c 2
140 56 m 2
 233 56 l 2
 259 56 280 35 280 9 c 2
 280 -19 l 2
 280 -45 259 -65 233 -65 c 2
 140 -65 l 2
 114 -65 94 -45 94 -19 c 2
 94 9 l 2
 94 35 114 56 140 56 c 2
512 56 m 2
 605 56 l 2
 631 56 652 35 652 9 c 2
 652 -19 l 2
 652 -45 631 -65 605 -65 c 2
 512 -65 l 2
 486 -65 466 -45 466 -19 c 2
 466 9 l 2
 466 35 486 56 512 56 c 2
140 -84 m 2
 233 -84 l 2
 259 -84 280 -104 280 -130 c 2
 280 -158 l 2
 280 -184 259 -205 233 -205 c 2
 140 -205 l 2
 114 -205 94 -184 94 -158 c 2
 94 -130 l 2
 94 -104 114 -84 140 -84 c 2
512 -84 m 2
 605 -84 l 2
 631 -84 652 -104 652 -130 c 2
 652 -158 l 2
 652 -184 631 -205 605 -205 c 2
 512 -205 l 2
 486 -205 466 -184 466 -158 c 2
 466 -130 l 2
 466 -104 486 -84 512 -84 c 2
EndSplineSet
Validated: 33
EndChar

StartChar: NameMe.194
Encoding: 194 228 107
Width: 668
Flags: HW
LayerCount: 2
Fore
SplineSet
166 446.345703125 m 2
 166 473.5703125 l 2
 165.998046875 498.708984375 186.234375 518.950195312 211.372070312 518.950195312 c 2
 238.596679688 518.950195312 l 2
 263.734375 518.952148438 283.973632812 498.71484375 283.973632812 473.577148438 c 2
 283.973632812 446.352539062 l 2
 283.975585938 421.213867188 263.741210938 400.974609375 238.603515625 400.974609375 c 2
 211.37890625 400.974609375 l 2
 186.240234375 400.97265625 166 421.208007812 166 446.345703125 c 2
372.893554688 446.395507812 m 2
 372.893554688 473.620117188 l 2
 372.891601562 498.758789062 393.126953125 519 418.263671875 519 c 2
 445.489257812 519 l 2
 470.627929688 519.001953125 490.868164062 498.765625 490.868164062 473.626953125 c 2
 490.868164062 446.40234375 l 2
 490.870117188 421.264648438 470.634765625 401.025390625 445.49609375 401.025390625 c 2
 418.271484375 401.025390625 l 2
 393.133789062 401.0234375 372.893554688 421.2578125 372.893554688 446.395507812 c 2
116 326 m 2
 435 326 l 2
 460 326 481 305 481 280 c 2
 481 253 l 2
 481 228 460 207 435 207 c 2
 116 207 l 2
 91 207 70 228 70 253 c 2
 70 280 l 2
 70 305 91 326 116 326 c 2
207 189 m 2
 527 189 l 2
 552 189 572 168 572 143 c 2
 572 116 l 2
 572 91 552 70 527 70 c 2
 207 70 l 2
 182 70 161 91 161 116 c 2
 161 143 l 2
 161 168 182 189 207 189 c 2
116 52 m 2
 207 52 l 2
 232 52 253 31 253 6 c 2
 253 -21 l 2
 253 -46 232 -67 207 -67 c 2
 116 -67 l 2
 91 -67 70 -46 70 -21 c 2
 70 6 l 2
 70 31 91 52 116 52 c 2
435 52 m 2
 527 52 l 2
 552 52 572 31 572 6 c 2
 572 -21 l 2
 572 -46 552 -67 527 -67 c 2
 435 -67 l 2
 410 -67 390 -46 390 -21 c 2
 390 6 l 2
 390 31 410 52 435 52 c 2
207 -85 m 2
 527 -85 l 2
 552 -85 572 -106 572 -131 c 2
 572 -158 l 2
 572 -183 552 -204 527 -204 c 2
 207 -204 l 2
 182 -204 161 -183 161 -158 c 2
 161 -131 l 2
 161 -106 182 -85 207 -85 c 2
EndSplineSet
Validated: 33
EndChar

StartChar: NameMe.169
Encoding: 169 201 108
Width: 748
Flags: HW
LayerCount: 2
Fore
SplineSet
349.348632812 938 m 2
 485.473632812 938 l 2
 510.533203125 938 530.848632812 917.680664062 530.848632812 892.625 c 2
 530.848632812 865.399414062 l 2
 530.848632812 840.34375 510.533203125 820.024414062 485.473632812 820.024414062 c 2
 349.348632812 820.024414062 l 2
 324.2890625 820.024414062 303.974609375 840.34375 303.974609375 865.399414062 c 2
 303.974609375 892.625 l 2
 303.974609375 917.680664062 324.2890625 938 349.348632812 938 c 2
231.374023438 801.875 m 2
 367.499023438 801.875 l 2
 392.63671875 801.875 412.874023438 781.637695312 412.874023438 756.5 c 2
 412.874023438 729.275390625 l 2
 412.874023438 704.137695312 392.63671875 683.899414062 367.499023438 683.899414062 c 2
 231.374023438 683.899414062 l 2
 206.236328125 683.899414062 186 704.137695312 186 729.275390625 c 2
 186 756.5 l 2
 186 781.637695312 206.236328125 801.875 231.374023438 801.875 c 2
142 614 m 2
 607 614 l 2
 633 614 653 593 653 567 c 2
 653 539 l 2
 653 513 633 493 607 493 c 2
 142 493 l 2
 116 493 95 513 95 539 c 2
 95 567 l 2
 95 593 116 614 142 614 c 2
142 474 m 2
 235 474 l 2
 261 474 281 454 281 428 c 2
 281 400 l 2
 281 374 261 353 235 353 c 2
 142 353 l 2
 116 353 95 374 95 400 c 2
 95 428 l 2
 95 454 116 474 142 474 c 2
142 335 m 2
 402 335 l 2
 428 335 449 314 449 288 c 2
 449 260 l 2
 449 234 428 214 402 214 c 2
 142 214 l 2
 116 214 95 234 95 260 c 2
 95 288 l 2
 95 314 116 335 142 335 c 2
142 195 m 2
 235 195 l 2
 261 195 281 175 281 149 c 2
 281 121 l 2
 281 95 261 74 235 74 c 2
 142 74 l 2
 116 74 95 95 95 121 c 2
 95 149 l 2
 95 175 116 195 142 195 c 2
142 56 m 2
 235 56 l 2
 261 56 281 35 281 9 c 2
 281 -19 l 2
 281 -45 261 -65 235 -65 c 2
 142 -65 l 2
 116 -65 95 -45 95 -19 c 2
 95 9 l 2
 95 35 116 56 142 56 c 2
142 -84 m 2
 607 -84 l 2
 633 -84 653 -104 653 -130 c 2
 653 -158 l 2
 653 -184 633 -205 607 -205 c 2
 142 -205 l 2
 116 -205 95 -184 95 -158 c 2
 95 -130 l 2
 95 -104 116 -84 142 -84 c 2
EndSplineSet
Validated: 1
EndChar

StartChar: NameMe.170
Encoding: 170 200 109
Width: 748
Flags: HW
LayerCount: 2
Fore
SplineSet
234 939 m 2
 371 939 l 2
 396 939 416 919 416 894 c 2
 416 866 l 2
 416 841 396 820 371 820 c 2
 234 820 l 2
 209 820 188 841 188 866 c 2
 188 894 l 2
 188 919 209 939 234 939 c 2
352 802 m 2
 489 802 l 2
 514 802 535 781 535 756 c 2
 535 729 l 2
 535 704 514 683 489 683 c 2
 352 683 l 2
 327 683 307 704 307 729 c 2
 307 756 l 2
 307 781 327 802 352 802 c 2
142 614 m 2
 607 614 l 2
 633 614 653 593 653 567 c 2
 653 539 l 2
 653 513 633 493 607 493 c 2
 142 493 l 2
 116 493 95 513 95 539 c 2
 95 567 l 2
 95 593 116 614 142 614 c 2
142 474 m 2
 235 474 l 2
 261 474 281 454 281 428 c 2
 281 400 l 2
 281 374 261 353 235 353 c 2
 142 353 l 2
 116 353 95 374 95 400 c 2
 95 428 l 2
 95 454 116 474 142 474 c 2
142 335 m 2
 402 335 l 2
 428 335 449 314 449 288 c 2
 449 260 l 2
 449 234 428 214 402 214 c 2
 142 214 l 2
 116 214 95 234 95 260 c 2
 95 288 l 2
 95 314 116 335 142 335 c 2
142 195 m 2
 235 195 l 2
 261 195 281 175 281 149 c 2
 281 121 l 2
 281 95 261 74 235 74 c 2
 142 74 l 2
 116 74 95 95 95 121 c 2
 95 149 l 2
 95 175 116 195 142 195 c 2
142 56 m 2
 235 56 l 2
 261 56 281 35 281 9 c 2
 281 -19 l 2
 281 -45 261 -65 235 -65 c 2
 142 -65 l 2
 116 -65 95 -45 95 -19 c 2
 95 9 l 2
 95 35 116 56 142 56 c 2
142 -84 m 2
 607 -84 l 2
 633 -84 653 -104 653 -130 c 2
 653 -158 l 2
 653 -184 633 -205 607 -205 c 2
 142 -205 l 2
 116 -205 95 -184 95 -158 c 2
 95 -130 l 2
 95 -104 116 -84 142 -84 c 2
EndSplineSet
Validated: 1
EndChar

StartChar: NameMe.171
Encoding: 171 202 110
Width: 748
Flags: HW
LayerCount: 2
Fore
SplineSet
326 939 m 2
 399 939 l 2
 424 939 447 919 447 894 c 2
 447 866 l 2
 447 841 426 820 401 820 c 2
 328 820 l 2
 303 820 282 841 282 866 c 2
 282 894 l 2
 282 919 301 939 326 939 c 2
237 802 m 2
 301 802 l 2
 326 802 346 781 346 756 c 2
 346 729 l 2
 346 704 326 683 301 683 c 2
 237 683 l 2
 212 683 191 704 191 729 c 2
 191 756 l 2
 191 781 212 802 237 802 c 2
429 802 m 2
 502 802 l 2
 527 802 547 781 547 756 c 2
 547 729 l 2
 547 704 527 683 502 683 c 2
 429 683 l 2
 404 683 383 704 383 729 c 2
 383 756 l 2
 383 781 404 802 429 802 c 2
142 614 m 2
 607 614 l 2
 633 614 653 593 653 567 c 2
 653 539 l 2
 653 513 633 493 607 493 c 2
 142 493 l 2
 116 493 95 513 95 539 c 2
 95 567 l 2
 95 593 116 614 142 614 c 2
142 474 m 2
 235 474 l 2
 261 474 281 454 281 428 c 2
 281 400 l 2
 281 374 261 353 235 353 c 2
 142 353 l 2
 116 353 95 374 95 400 c 2
 95 428 l 2
 95 454 116 474 142 474 c 2
142 335 m 2
 402 335 l 2
 428 335 449 314 449 288 c 2
 449 260 l 2
 449 234 428 214 402 214 c 2
 142 214 l 2
 116 214 95 234 95 260 c 2
 95 288 l 2
 95 314 116 335 142 335 c 2
142 195 m 2
 235 195 l 2
 261 195 281 175 281 149 c 2
 281 121 l 2
 281 95 261 74 235 74 c 2
 142 74 l 2
 116 74 95 95 95 121 c 2
 95 149 l 2
 95 175 116 195 142 195 c 2
142 56 m 2
 235 56 l 2
 261 56 281 35 281 9 c 2
 281 -19 l 2
 281 -45 261 -65 235 -65 c 2
 142 -65 l 2
 116 -65 95 -45 95 -19 c 2
 95 9 l 2
 95 35 116 56 142 56 c 2
142 -84 m 2
 607 -84 l 2
 633 -84 653 -104 653 -130 c 2
 653 -158 l 2
 653 -184 633 -205 607 -205 c 2
 142 -205 l 2
 116 -205 95 -184 95 -158 c 2
 95 -130 l 2
 95 -104 116 -84 142 -84 c 2
EndSplineSet
Validated: 1
EndChar

